<svg width="354" height="49" viewBox="0 0 354 49" fill="none" xmlns="http://www.w3.org/2000/svg">
<path d="M20.7717 2.51074H47.3125L27.7997 31.3503H1.25879L20.7717 2.51074Z" fill="#007AFF"/>
<path d="M21.9338 34.0233L14.376 45.1936H42.1758L61.6887 16.354H41.1707L29.2156 34.0233H21.9338Z" fill="#001835"/>
<path d="M88.2604 15.376V38H82.7884V15.376H88.2604ZM115.174 19.952C117.372 19.952 119.1 20.6347 120.358 22C121.617 23.344 122.246 25.2213 122.246 27.632V38H116.806V28.272C116.806 27.1413 116.497 26.2667 115.878 25.648C115.281 25.008 114.46 24.688 113.414 24.688C112.326 24.688 111.462 25.0293 110.822 25.712C110.204 26.3733 109.894 27.312 109.894 28.528V38H104.422V28.272C104.422 27.1413 104.124 26.2667 103.526 25.648C102.929 25.008 102.108 24.688 101.062 24.688C99.9744 24.688 99.1104 25.0187 98.4704 25.68C97.8304 26.3413 97.5104 27.2907 97.5104 28.528V38H92.0384V20.144H97.5104V23.184C97.9797 22.1813 98.6944 21.392 99.6544 20.816C100.636 20.24 101.777 19.952 103.078 19.952C104.444 19.952 105.649 20.272 106.694 20.912C107.74 21.5307 108.529 22.4267 109.062 23.6C109.681 22.4907 110.524 21.6053 111.59 20.944C112.678 20.2827 113.873 19.952 115.174 19.952ZM137.018 19.92C138.49 19.92 139.802 20.2933 140.954 21.04C142.127 21.7653 143.045 22.8213 143.706 24.208C144.389 25.5733 144.73 27.1947 144.73 29.072C144.73 30.928 144.389 32.5493 143.706 33.936C143.045 35.3227 142.127 36.3893 140.954 37.136C139.802 37.8613 138.49 38.224 137.018 38.224C135.653 38.224 134.479 37.9147 133.498 37.296C132.517 36.6773 131.802 35.8347 131.354 34.768V46.512H125.882V20.144H131.354V23.376C131.802 22.3093 132.517 21.4667 133.498 20.848C134.479 20.2293 135.653 19.92 137.018 19.92ZM135.258 24.72C134.106 24.72 133.157 25.1147 132.41 25.904C131.685 26.672 131.322 27.728 131.322 29.072C131.322 30.3947 131.685 31.4507 132.41 32.24C133.157 33.0293 134.106 33.424 135.258 33.424C136.431 33.424 137.37 33.04 138.074 32.272C138.799 31.504 139.162 30.4373 139.162 29.072C139.162 27.7067 138.799 26.64 138.074 25.872C137.37 25.104 136.431 24.72 135.258 24.72ZM155.922 19.92C157.692 19.92 159.271 20.2933 160.658 21.04C162.066 21.7653 163.164 22.8213 163.954 24.208C164.764 25.5947 165.17 27.216 165.17 29.072C165.17 30.928 164.764 32.5493 163.954 33.936C163.164 35.3227 162.066 36.3893 160.658 37.136C159.271 37.8613 157.692 38.224 155.922 38.224C154.151 38.224 152.562 37.8613 151.154 37.136C149.746 36.3893 148.636 35.3227 147.826 33.936C147.036 32.5493 146.642 30.928 146.642 29.072C146.642 27.216 147.036 25.5947 147.826 24.208C148.636 22.8213 149.746 21.7653 151.154 21.04C152.562 20.2933 154.151 19.92 155.922 19.92ZM155.922 24.656C154.876 24.656 153.991 25.04 153.266 25.808C152.562 26.5547 152.21 27.6427 152.21 29.072C152.21 30.5013 152.562 31.5893 153.266 32.336C153.991 33.0827 154.876 33.456 155.922 33.456C156.967 33.456 157.842 33.0827 158.546 32.336C159.25 31.5893 159.602 30.5013 159.602 29.072C159.602 27.6427 159.25 26.5547 158.546 25.808C157.842 25.04 156.967 24.656 155.922 24.656ZM179.335 19.952C181.383 19.952 183.004 20.6347 184.199 22C185.415 23.3653 186.023 25.2427 186.023 27.632V38H180.551V28.272C180.551 27.0773 180.231 26.1493 179.591 25.488C178.972 24.8053 178.14 24.464 177.095 24.464C175.986 24.464 175.1 24.816 174.439 25.52C173.799 26.224 173.479 27.2267 173.479 28.528V38H168.007V20.144H173.479V23.408C173.991 22.3413 174.748 21.4987 175.751 20.88C176.775 20.2613 177.97 19.952 179.335 19.952ZM206.592 28.592C206.592 29.04 206.539 29.5307 206.432 30.064H194.048C194.112 31.408 194.453 32.3787 195.072 32.976C195.691 33.552 196.48 33.84 197.44 33.84C198.251 33.84 198.923 33.6373 199.456 33.232C199.989 32.8267 200.341 32.304 200.512 31.664H206.304C206.069 32.9227 205.557 34.0533 204.768 35.056C203.979 36.0373 202.976 36.816 201.76 37.392C200.544 37.9467 199.189 38.224 197.696 38.224C195.947 38.224 194.389 37.8613 193.024 37.136C191.68 36.3893 190.624 35.3227 189.856 33.936C189.088 32.5493 188.704 30.928 188.704 29.072C188.704 27.1947 189.077 25.5733 189.824 24.208C190.592 22.8213 191.659 21.7653 193.024 21.04C194.389 20.2933 195.947 19.92 197.696 19.92C199.467 19.92 201.024 20.2827 202.368 21.008C203.712 21.7333 204.747 22.7573 205.472 24.08C206.219 25.3813 206.592 26.8853 206.592 28.592ZM201.056 27.76C201.077 26.5867 200.757 25.712 200.096 25.136C199.456 24.5387 198.656 24.24 197.696 24.24C196.693 24.24 195.861 24.5387 195.2 25.136C194.539 25.7333 194.165 26.608 194.08 27.76H201.056ZM220.613 38L216.965 32.912L213.989 38H207.973L213.893 28.688L207.749 20.144H213.893L217.509 25.168L220.485 20.144H226.501L220.453 29.232L226.757 38H220.613ZM239.956 19.92C241.428 19.92 242.74 20.2933 243.892 21.04C245.065 21.7653 245.982 22.8213 246.644 24.208C247.326 25.5733 247.668 27.1947 247.668 29.072C247.668 30.928 247.326 32.5493 246.644 33.936C245.982 35.3227 245.065 36.3893 243.892 37.136C242.74 37.8613 241.428 38.224 239.956 38.224C238.59 38.224 237.417 37.9147 236.436 37.296C235.454 36.6773 234.74 35.8347 234.292 34.768V46.512H228.82V20.144H234.292V23.376C234.74 22.3093 235.454 21.4667 236.436 20.848C237.417 20.2293 238.59 19.92 239.956 19.92ZM238.196 24.72C237.044 24.72 236.094 25.1147 235.348 25.904C234.622 26.672 234.26 27.728 234.26 29.072C234.26 30.3947 234.622 31.4507 235.348 32.24C236.094 33.0293 237.044 33.424 238.196 33.424C239.369 33.424 240.308 33.04 241.012 32.272C241.737 31.504 242.1 30.4373 242.1 29.072C242.1 27.7067 241.737 26.64 241.012 25.872C240.308 25.104 239.369 24.72 238.196 24.72ZM258.859 19.92C260.63 19.92 262.208 20.2933 263.595 21.04C265.003 21.7653 266.102 22.8213 266.891 24.208C267.702 25.5947 268.107 27.216 268.107 29.072C268.107 30.928 267.702 32.5493 266.891 33.936C266.102 35.3227 265.003 36.3893 263.595 37.136C262.208 37.8613 260.63 38.224 258.859 38.224C257.088 38.224 255.499 37.8613 254.091 37.136C252.683 36.3893 251.574 35.3227 250.763 33.936C249.974 32.5493 249.579 30.928 249.579 29.072C249.579 27.216 249.974 25.5947 250.763 24.208C251.574 22.8213 252.683 21.7653 254.091 21.04C255.499 20.2933 257.088 19.92 258.859 19.92ZM258.859 24.656C257.814 24.656 256.928 25.04 256.203 25.808C255.499 26.5547 255.147 27.6427 255.147 29.072C255.147 30.5013 255.499 31.5893 256.203 32.336C256.928 33.0827 257.814 33.456 258.859 33.456C259.904 33.456 260.779 33.0827 261.483 32.336C262.187 31.5893 262.539 30.5013 262.539 29.072C262.539 27.6427 262.187 26.5547 261.483 25.808C260.779 25.04 259.904 24.656 258.859 24.656Z" fill="#001835"/>
<path d="M281.345 15.184C284.118 15.184 286.422 15.888 288.257 17.296C290.091 18.704 291.329 20.6133 291.969 23.024H288.097C287.563 21.6587 286.71 20.5813 285.537 19.792C284.385 18.9813 282.966 18.576 281.281 18.576C279.937 18.576 278.731 18.9067 277.665 19.568C276.619 20.2293 275.787 21.1787 275.169 22.416C274.571 23.632 274.273 25.0613 274.273 26.704C274.273 28.3253 274.571 29.7547 275.169 30.992C275.787 32.208 276.619 33.1467 277.665 33.808C278.731 34.4693 279.937 34.8 281.281 34.8C282.966 34.8 284.385 34.4053 285.537 33.616C286.71 32.8053 287.563 31.728 288.097 30.384H291.969C291.329 32.7947 290.091 34.704 288.257 36.112C286.422 37.4987 284.118 38.192 281.345 38.192C279.211 38.192 277.323 37.712 275.681 36.752C274.038 35.7707 272.769 34.416 271.873 32.688C270.977 30.9387 270.529 28.944 270.529 26.704C270.529 24.464 270.977 22.48 271.873 20.752C272.769 19.0027 274.038 17.6373 275.681 16.656C277.323 15.6747 279.211 15.184 281.345 15.184ZM305.464 20.08C307.512 20.08 309.155 20.7413 310.392 22.064C311.63 23.3867 312.248 25.2747 312.248 27.728V38H308.6V28.112C308.6 26.5333 308.195 25.3173 307.384 24.464C306.574 23.5893 305.464 23.152 304.056 23.152C302.606 23.152 301.443 23.6213 300.568 24.56C299.694 25.4773 299.256 26.832 299.256 28.624V38H295.608V14.32H299.256V24.24C299.726 22.9173 300.515 21.8933 301.624 21.168C302.734 20.4427 304.014 20.08 305.464 20.08ZM323.587 20.144C325.187 20.144 326.552 20.5387 327.683 21.328C328.813 22.1173 329.613 23.1627 330.083 24.464V20.368H333.731V38H330.083V33.904C329.613 35.2053 328.813 36.2507 327.683 37.04C326.552 37.8293 325.187 38.224 323.587 38.224C322.051 38.224 320.675 37.8613 319.459 37.136C318.264 36.4107 317.325 35.3653 316.643 34C315.96 32.6347 315.619 31.024 315.619 29.168C315.619 27.3333 315.96 25.7333 316.643 24.368C317.325 23.0027 318.264 21.9573 319.459 21.232C320.675 20.5067 322.051 20.144 323.587 20.144ZM324.707 23.344C323.085 23.344 321.784 23.8667 320.803 24.912C319.843 25.936 319.363 27.3547 319.363 29.168C319.363 30.9813 319.843 32.4107 320.803 33.456C321.784 34.48 323.085 34.992 324.707 34.992C325.731 34.992 326.648 34.7573 327.459 34.288C328.269 33.7973 328.909 33.1147 329.379 32.24C329.848 31.3653 330.083 30.3413 330.083 29.168C330.083 28.016 329.848 27.0027 329.379 26.128C328.909 25.232 328.269 24.5493 327.459 24.08C326.648 23.5893 325.731 23.344 324.707 23.344ZM346.972 34.832V38H344.732C342.855 38 341.426 37.552 340.444 36.656C339.484 35.7387 339.004 34.224 339.004 32.112V23.472H336.476V20.368H339.004V15.984H342.684V20.368H346.94V23.472H342.684V32.176C342.684 33.1787 342.866 33.872 343.228 34.256C343.612 34.64 344.274 34.832 345.212 34.832H346.972Z" fill="#0F82FF"/>
</svg>
