<svg width="46" height="42" viewBox="0 0 46 42" fill="none" xmlns="http://www.w3.org/2000/svg">
<g clip-path="url(#clip0_8_29455)">
<path d="M21.924 33.1866C15.695 30.958 9.4477 28.7245 3.21872 26.4959C0.919382 25.6798 -0.215768 29.3102 2.10192 30.1312C8.13893 32.2687 14.1894 34.4296 20.2398 36.5904C22.5208 37.4015 24.2417 34.0075 21.924 33.1866Z" fill="black"/>
<path d="M27.1137 25.6096C21.1284 20.8685 15.153 16.0907 9.13947 11.3813C7.23965 9.88566 4.58645 12.5759 6.49475 14.1132C12.5203 18.9242 18.579 23.685 24.6144 28.4593C26.5276 29.9783 29.0502 27.1152 27.1187 25.5912L27.1137 25.6096Z" fill="black"/>
<path d="M32.1067 19.7119C30.1259 15.813 28.1451 11.9142 26.2059 8.00692C25.1022 5.82035 21.7412 7.63111 22.8498 9.79933C24.8441 13.7214 26.8333 17.6619 28.8043 21.5974C29.9079 23.784 33.197 21.8751 32.0884 19.7069L32.1067 19.7119Z" fill="black"/>
<path d="M42.806 19.4444C43.2191 16.7413 43.6505 14.0432 44.0587 11.3585C44.4343 8.94052 40.6903 8.22741 40.333 10.6503C39.9312 13.2383 39.5477 15.8313 39.146 18.4193C38.7802 20.8006 42.4254 21.8807 42.806 19.4444Z" fill="black"/>
</g>
<defs>
<clipPath id="clip0_8_29455">
<rect width="32.2489" height="38.311" fill="white" transform="translate(0 31.1394) rotate(-74.9273)"/>
</clipPath>
</defs>
</svg>
