<svg width="81" height="20" viewBox="0 0 81 20" fill="none" xmlns="http://www.w3.org/2000/svg">
<path d="M25.88 11.222H31.8V12.246H25.88V11.222ZM26.008 16.998H24.824V5.79805H32.504V6.82205H26.008V16.998ZM37.8518 17.078C37.0411 17.078 36.3104 16.8967 35.6598 16.534C35.0198 16.1607 34.5131 15.654 34.1398 15.014C33.7664 14.3634 33.5798 13.622 33.5798 12.79C33.5798 11.9474 33.7664 11.206 34.1398 10.566C34.5131 9.92605 35.0198 9.42471 35.6598 9.06205C36.2998 8.69938 37.0304 8.51805 37.8518 8.51805C38.6838 8.51805 39.4198 8.69938 40.0598 9.06205C40.7104 9.42471 41.2171 9.92605 41.5798 10.566C41.9531 11.206 42.1398 11.9474 42.1398 12.79C42.1398 13.622 41.9531 14.3634 41.5798 15.014C41.2171 15.654 40.7104 16.1607 40.0598 16.534C39.4091 16.8967 38.6731 17.078 37.8518 17.078ZM37.8518 16.07C38.4598 16.07 38.9984 15.9367 39.4678 15.67C39.9371 15.3927 40.3051 15.0087 40.5718 14.518C40.8491 14.0167 40.9878 13.4407 40.9878 12.79C40.9878 12.1287 40.8491 11.5527 40.5718 11.062C40.3051 10.5714 39.9371 10.1927 39.4678 9.92605C38.9984 9.64871 38.4651 9.51005 37.8678 9.51005C37.2704 9.51005 36.7371 9.64871 36.2678 9.92605C35.7984 10.1927 35.4251 10.5714 35.1478 11.062C34.8704 11.5527 34.7318 12.1287 34.7318 12.79C34.7318 13.4407 34.8704 14.0167 35.1478 14.518C35.4251 15.0087 35.7984 15.3927 36.2678 15.67C36.7371 15.9367 37.2651 16.07 37.8518 16.07ZM44.459 16.998V5.12605H45.595V16.998H44.459ZM48.7559 16.998V5.12605H49.8919V16.998H48.7559ZM56.4768 17.078C55.6661 17.078 54.9354 16.8967 54.2848 16.534C53.6448 16.1607 53.1381 15.654 52.7648 15.014C52.3914 14.3634 52.2048 13.622 52.2048 12.79C52.2048 11.9474 52.3914 11.206 52.7648 10.566C53.1381 9.92605 53.6448 9.42471 54.2848 9.06205C54.9248 8.69938 55.6554 8.51805 56.4768 8.51805C57.3088 8.51805 58.0448 8.69938 58.6848 9.06205C59.3354 9.42471 59.8421 9.92605 60.2048 10.566C60.5781 11.206 60.7648 11.9474 60.7648 12.79C60.7648 13.622 60.5781 14.3634 60.2048 15.014C59.8421 15.654 59.3354 16.1607 58.6848 16.534C58.0341 16.8967 57.2981 17.078 56.4768 17.078ZM56.4768 16.07C57.0848 16.07 57.6234 15.9367 58.0928 15.67C58.5621 15.3927 58.9301 15.0087 59.1968 14.518C59.4741 14.0167 59.6128 13.4407 59.6128 12.79C59.6128 12.1287 59.4741 11.5527 59.1968 11.062C58.9301 10.5714 58.5621 10.1927 58.0928 9.92605C57.6234 9.64871 57.0901 9.51005 56.4928 9.51005C55.8954 9.51005 55.3621 9.64871 54.8928 9.92605C54.4234 10.1927 54.0501 10.5714 53.7728 11.062C53.4954 11.5527 53.3568 12.1287 53.3568 12.79C53.3568 13.4407 53.4954 14.0167 53.7728 14.518C54.0501 15.0087 54.4234 15.3927 54.8928 15.67C55.3621 15.9367 55.8901 16.07 56.4768 16.07ZM64.5616 16.998L61.3936 8.59805H62.4816L65.3616 16.39H64.8656L67.8256 8.59805H68.8016L71.7296 16.39H71.2336L74.1616 8.59805H75.2016L72.0176 16.998H70.9456L68.1296 9.67005H68.4656L65.6336 16.998H64.5616Z" fill="#1D5DC7"/>
<path d="M11.0602 9.89814C11.7888 9.89814 12.501 9.60783 13.1068 9.06391C13.7126 8.51999 14.1848 7.7469 14.4636 6.8424C14.7424 5.93789 14.8154 4.9426 14.6732 3.98239C14.5311 3.02217 14.1803 2.14016 13.6651 1.44788C13.1499 0.755608 12.4935 0.284162 11.7789 0.093163C11.0643 -0.0978356 10.3236 0.00019122 9.65048 0.374848C8.97735 0.749506 8.40202 1.38397 7.99724 2.198C7.59246 3.01203 7.3764 3.96907 7.3764 4.94809C7.37953 6.25964 7.76864 7.51626 8.45882 8.44367C9.14899 9.37108 10.0842 9.89394 11.0602 9.89814ZM11.0602 12.374C8.61974 12.374 3.69141 14.0447 3.69141 17.324V19.7998H18.4267V17.324C18.4267 14.0447 13.4983 12.374 11.0602 12.374Z" fill="#1D5DC7"/>
<path d="M3.68381 8.24388V4.94385H2.45706V8.24388H0V9.89389H2.45706V13.1939H3.68381V9.89389H6.14087V8.24388H3.68381Z" fill="#1D5DC7"/>
</svg>
