<svg width="50" height="42" viewBox="0 0 50 42" fill="none" xmlns="http://www.w3.org/2000/svg">
<path d="M14.1042 28.966L7.86502 31.3014C7.99851 29.2905 8.13034 27.3431 8.26428 25.3526C8.69859 25.5214 9.09898 25.7522 9.44964 26.0358C9.80605 26.285 9.96622 26.2586 10.2112 25.9034C11.6206 23.8239 13.255 21.872 15.091 20.0753C19.3906 15.7087 24.9273 12.4479 31.124 10.6327C31.3072 10.5644 31.5076 10.5411 31.7042 10.5651C31.9009 10.589 32.0868 10.6594 32.2425 10.769C32.7294 11.0874 33.1903 11.4362 33.6217 11.8127C33.9563 12.1091 33.9357 12.2345 33.482 12.3731C31.7458 12.9085 30.0601 13.5659 28.441 14.3392C24.6388 16.1511 21.1705 18.47 18.1563 21.2152C16.0917 23.0909 14.2155 25.1237 12.5495 27.2906C12.2717 27.6495 12.2535 27.853 12.7113 28.0854C13.192 28.3579 13.6569 28.6518 14.1042 28.966Z" fill="white"/>
<path d="M42.518 11.5039L41.9407 17.5088C41.409 17.1578 40.959 16.8731 40.5316 16.5709C40.2819 16.3977 40.1589 16.4043 39.997 16.6774C37.5638 20.6953 34.152 24.1787 30.0114 26.8728C26.706 29.0691 23.062 30.8295 19.1919 32.0996C19.0555 32.1512 18.9065 32.1709 18.7592 32.1567C18.6119 32.1426 18.4711 32.0951 18.3503 32.0187C17.576 31.6114 16.9083 31.0617 16.3917 30.4065C17.7622 29.9181 19.1201 29.4185 20.4369 28.8357C27.4294 25.8834 33.3854 21.2903 37.6633 15.5508C38.1018 14.9508 38.0968 14.9673 37.4646 14.523C37.0936 14.2606 36.4114 14.0923 36.4609 13.7135C36.4931 13.417 37.2298 13.3608 37.6532 13.212C39.2302 12.6467 40.8239 12.0959 42.518 11.5039Z" fill="white"/>
<path d="M38.4706 21.568C38.4444 23.2563 38.0099 24.92 37.1966 26.4459C36.3833 27.9718 35.2102 29.3241 33.7573 30.4108C32.3043 31.4975 30.6055 32.2932 28.7764 32.7437C26.9473 33.1942 25.0308 33.2889 23.1573 33.0214C29.6947 31.0472 35.1606 26.9591 38.4706 21.568Z" fill="white"/>
<path d="M11.7798 20.8147C11.8255 19.1213 12.2815 17.4565 13.1166 15.9339C13.9518 14.4114 15.1463 13.067 16.6187 11.9926C18.0911 10.9183 19.8067 10.1393 21.6481 9.70881C23.4896 9.27837 25.4136 9.20664 27.2886 9.49852C20.6969 11.3892 15.1548 15.4331 11.7798 20.8147Z" fill="white"/>
</svg>
