<svg width="35" height="36" viewBox="0 0 35 36" fill="none" xmlns="http://www.w3.org/2000/svg">
<path d="M34.75 26.4717V33.249C34.7502 33.7343 34.5664 34.2015 34.2355 34.5565C33.9047 34.9116 33.4516 35.1279 32.9675 35.1618C32.1299 35.2193 31.4457 35.25 30.9167 35.25C13.9791 35.25 0.25 21.5209 0.25 4.58333C0.25 4.05433 0.27875 3.37008 0.338167 2.5325C0.372135 2.04843 0.588447 1.59527 0.943457 1.26445C1.29847 0.93363 1.76574 0.749781 2.251 0.75H9.02833C9.26607 0.74976 9.49542 0.837896 9.67181 0.997289C9.84821 1.15668 9.95906 1.37595 9.98283 1.6125C10.0269 2.05333 10.0672 2.40408 10.1055 2.6705C10.4864 5.32877 11.267 7.91418 12.4208 10.3391C12.6029 10.7224 12.4841 11.1805 12.1391 11.4258L8.00292 14.3813C10.5319 20.274 15.2279 24.97 21.1206 27.499L24.0722 23.3705C24.1929 23.2018 24.3689 23.0809 24.5696 23.0287C24.7703 22.9765 24.983 22.9964 25.1705 23.0849C27.5951 24.2366 30.1799 25.0152 32.8372 25.3945C33.1036 25.4328 33.4543 25.475 33.8913 25.5172C34.1275 25.5414 34.3463 25.6524 34.5053 25.8288C34.6643 26.0051 34.7522 26.2342 34.7519 26.4717H34.75Z" fill="#002046"/>
</svg>
