<svg width="47" height="47" viewBox="0 0 47 47" fill="none" xmlns="http://www.w3.org/2000/svg">
<path d="M31.334 7.83325C32.415 7.83325 33.2923 8.71059 33.2923 9.79159V18.0166L43.5011 10.8687C43.9437 10.5593 44.5547 10.667 44.8661 11.1115C44.9796 11.276 45.0423 11.4718 45.0423 11.6716V35.3283C45.0423 35.8688 44.6036 36.3074 44.0631 36.3074C43.8614 36.3074 43.6656 36.2448 43.5011 36.1312L33.2923 28.9833V37.2083C33.2923 38.2892 32.415 39.1666 31.334 39.1666H3.91732C2.83632 39.1666 1.95898 38.2892 1.95898 37.2083V9.79159C1.95898 8.71059 2.83632 7.83325 3.91732 7.83325H31.334ZM15.6673 15.6666V21.5416H9.79232V25.4583H15.6654L15.6673 31.3333H19.584L19.582 25.4583H25.459V21.5416H19.584V15.6666H15.6673Z" fill="#002046"/>
</svg>
