<svg width="21" height="23" viewBox="0 0 21 23" fill="none" xmlns="http://www.w3.org/2000/svg">
<path d="M17.1059 12.2476C17.1161 11.418 17.3628 10.6043 17.8227 9.88267C18.2826 9.16101 18.9407 8.55498 19.7355 8.12131C19.2301 7.48104 18.5646 6.95382 17.7915 6.58112C17.0183 6.20842 16.1586 6.00039 15.2798 5.9734C13.383 5.80249 11.5792 6.96737 10.6159 6.96737C9.65251 6.96737 8.1706 5.99869 6.59726 6.02398C5.56488 6.0496 4.5577 6.31354 3.67449 6.78992C2.79128 7.26629 2.06236 7.93875 1.55922 8.74135C-0.591826 12.0582 1.00916 16.9714 3.10259 19.6614C4.12587 20.978 5.34505 22.4567 6.94373 22.4041C8.48634 22.3494 9.06942 21.5154 10.9339 21.5154C12.7984 21.5154 13.3223 22.4041 14.9548 22.376C16.6142 22.3487 17.6659 21.0341 18.6815 19.7134C19.4085 18.7636 19.9778 17.7254 20.3716 16.6309C19.4057 16.2639 18.5817 15.6532 18.0014 14.8743C17.421 14.0953 17.1097 13.1822 17.1059 12.2476ZM14.0368 4.19258C14.9562 3.233 15.4118 1.98882 15.3044 0.731445C13.9173 0.851015 12.6341 1.43798 11.7175 2.37212C11.2599 2.82541 10.9094 3.35598 10.6869 3.93226C10.4644 4.50854 10.3744 5.11876 10.4223 5.72661C11.1167 5.73539 11.8041 5.60155 12.431 5.33549C13.0579 5.06944 13.6074 4.67834 14.0368 4.19258Z" fill="white"/>
</svg>
