<svg width="42" height="39" viewBox="0 0 42 39" fill="none" xmlns="http://www.w3.org/2000/svg">
<path d="M20.9997 0.791748C22.3677 0.791748 23.7222 1.02346 24.986 1.47366C26.2498 1.92386 27.3982 2.58373 28.3654 3.41558C29.3327 4.24744 30.1 5.235 30.6235 6.32188C31.147 7.40875 31.4164 8.57366 31.4164 9.75008V20.5001C31.4164 22.876 30.3189 25.1546 28.3654 26.8346C26.4119 28.5146 23.7624 29.4584 20.9997 29.4584C18.2371 29.4584 15.5875 28.5146 13.634 26.8346C11.6805 25.1546 10.5831 22.876 10.5831 20.5001V9.75008C10.5831 7.37418 11.6805 5.0956 13.634 3.41558C15.5875 1.73557 18.2371 0.791748 20.9997 0.791748ZM0.566406 24.0153L4.65391 23.3112C5.41305 26.5585 7.45605 29.4796 10.4358 31.5783C13.4155 33.6769 17.1483 34.8237 20.9997 34.8237C24.8512 34.8237 28.5839 33.6769 31.5637 31.5783C34.5434 29.4796 36.5864 26.5585 37.3456 23.3112L41.4331 24.0153C39.5331 32.2265 31.1039 38.4167 20.9997 38.4167C10.8956 38.4167 2.46641 32.2265 0.566406 24.0153Z" fill="#002046"/>
</svg>
