<svg width="84" height="67" viewBox="0 0 84 67" fill="none" xmlns="http://www.w3.org/2000/svg">
<path d="M51.9481 21.6092L32.4531 37.3683C32.1239 37.6253 31.8613 37.9327 31.6807 38.2725C31.5 38.6124 31.4049 38.978 31.401 39.3478C31.397 39.7177 31.4842 40.0846 31.6575 40.4269C31.8308 40.7693 32.0868 41.0803 32.4104 41.3419C32.734 41.6034 33.1188 41.8103 33.5424 41.9504C33.966 42.0904 34.4199 42.1609 34.8776 42.1577C35.3352 42.1545 35.7875 42.0776 36.208 41.9316C36.6286 41.7856 37.0089 41.5734 37.3269 41.3074L56.8253 25.5511C58.7647 23.9837 59.8542 21.8578 59.8542 19.6411C59.8542 17.4244 58.7647 15.2985 56.8253 13.7311C54.886 12.1637 52.2556 11.2831 49.513 11.2831C46.7703 11.2831 44.14 12.1637 42.2006 13.7311L22.7022 29.4902C21.0686 30.7775 19.7677 32.3142 18.8747 34.0112C17.9817 35.7081 17.5146 37.5314 17.5003 39.3754C17.486 41.2193 17.9248 43.0473 18.7914 44.7531C19.658 46.4589 20.9351 48.0087 22.5485 49.3125C24.1619 50.6163 26.0796 51.6482 28.1903 52.3484C30.301 53.0485 32.5627 53.403 34.8443 53.3911C37.1258 53.3793 39.3817 53.0015 41.4811 52.2795C43.5806 51.5576 45.4817 50.5059 47.0744 49.1855L66.5728 33.4292L71.4466 37.3683L51.9481 53.1273C49.7076 54.9382 47.0476 56.3746 44.1202 57.3547C41.1928 58.3347 38.0552 58.8391 34.8865 58.8391C31.7179 58.8391 28.5803 58.3347 25.6529 57.3547C22.7254 56.3746 20.0655 54.9382 17.825 53.1273C15.5844 51.3165 13.8071 49.1667 12.5945 46.8006C11.3819 44.4346 10.7578 41.8988 10.7578 39.3378C10.7578 36.7769 11.3819 34.241 12.5945 31.875C13.8071 29.509 15.5844 27.3592 17.825 25.5483L37.3269 9.79206C40.5772 7.25482 44.9305 5.85087 49.4492 5.88261C53.9679 5.91434 58.2904 7.37922 61.4857 9.96173C64.681 12.5442 66.4935 16.0378 66.5327 19.6898C66.572 23.3419 64.8349 26.8604 61.6956 29.4874L42.2006 45.252C41.2401 46.0281 40.0999 46.6437 38.845 47.0637C37.5901 47.4836 36.2452 47.6997 34.887 47.6996C33.5288 47.6994 32.184 47.4831 30.9292 47.0629C29.6745 46.6427 28.5345 46.0269 27.5742 45.2506C26.6139 44.4743 25.8522 43.5527 25.3326 42.5385C24.813 41.5243 24.5457 40.4373 24.5458 39.3396C24.546 38.2419 24.8136 37.155 25.3335 36.1409C25.8535 35.1267 26.6154 34.2053 27.5759 33.4292L47.0744 17.6702L51.9481 21.6092Z" fill="#A6ADB5"/>
</svg>
