<svg width="27" height="26" viewBox="0 0 27 26" fill="none" xmlns="http://www.w3.org/2000/svg">
<path fill-rule="evenodd" clip-rule="evenodd" d="M24.4374 5.08017C24.4374 5.52032 24.0806 5.87713 23.6405 5.87713L8.23251 5.87713C7.79236 5.87713 7.43555 5.52032 7.43555 5.08017C7.43555 4.64001 7.79236 4.2832 8.23251 4.2832H23.6405C24.0806 4.2832 24.4374 4.64002 24.4374 5.08017ZM24.4374 12.4598C24.4374 12.8999 24.0806 13.2568 23.6405 13.2568L8.23251 13.2568C7.79236 13.2568 7.43555 12.8999 7.43555 12.4598C7.43555 12.0196 7.79236 11.6628 8.23251 11.6628L23.6405 11.6628C24.0806 11.6628 24.4374 12.0196 24.4374 12.4598ZM23.6405 20.6364C24.0806 20.6364 24.4374 20.2796 24.4374 19.8394C24.4374 19.3993 24.0806 19.0425 23.6405 19.0425L8.23251 19.0425C7.79236 19.0425 7.43555 19.3993 7.43555 19.8394C7.43555 20.2796 7.79236 20.6364 8.23251 20.6364L23.6405 20.6364Z" fill="#1D5EC9"/>
<circle cx="4.24719" cy="5.37939" r="1.06262" fill="#1D5EC9"/>
<circle cx="4.24719" cy="12.8177" r="1.06262" fill="#1D5EC9"/>
<circle cx="4.24719" cy="20.256" r="1.06262" fill="#1D5EC9"/>
</svg>
