<svg width="25" height="24" viewBox="0 0 25 24" fill="none" xmlns="http://www.w3.org/2000/svg">
<path d="M12.1443 0.0943665C18.7126 0.100299 24.0354 4.41183 24.0427 9.7318V9.73238C23.9869 11.6822 23.3157 13.4959 22.1813 15.0629L22.2161 15.0109C21.0847 16.623 19.79 18.0142 18.3046 19.2547L18.3109 19.2495C16.6261 20.688 14.7835 21.9791 12.7952 23.1139L12.6794 23.1766L12.1443 23.4673L11.6091 23.1776C9.50496 21.9802 7.66244 20.689 5.99288 19.2636L5.97768 19.2505C4.49848 18.0149 3.20375 16.6234 2.13818 15.1121L2.0724 15.0108C0.972862 13.4959 0.301729 11.6822 0.246181 9.74523L0.24585 9.73232C0.253173 4.4118 5.57589 0.100254 12.1436 0.0942993H12.1443V0.0943665ZM12.1443 21.5699C14.286 20.2988 22.1132 15.2724 22.1132 9.73241C22.1132 5.27266 17.65 1.65733 12.1443 1.65733C6.63859 1.65733 2.17535 5.27264 2.17535 9.73241C2.17535 15.2797 10.0013 20.2998 12.1443 21.57V21.5699ZM12.1443 14.4524C8.9276 14.4494 6.32095 12.338 6.3173 9.73265V9.73238H8.24674C8.24674 11.476 9.99177 12.8895 12.1443 12.8895C14.2969 12.8895 16.0418 11.476 16.0418 9.73241C16.0418 7.98879 14.2968 6.5753 12.1443 6.5753V5.01239C15.3625 5.01239 17.9713 7.12558 17.9713 9.73238C17.9713 12.3392 15.3625 14.4524 12.1443 14.4524Z" fill="black"/>
</svg>
