<svg width="110" height="98" viewBox="0 0 110 98" fill="none" xmlns="http://www.w3.org/2000/svg">
<g filter="url(#filter0_d_1463_4371)">
<path d="M27.0751 30.5438C23.3498 29.1873 19.8734 27.8804 16.2192 26.5238C18.7028 22.7012 21.1152 18.9198 23.5594 15.1415C23.9255 16.1747 24.1994 17.2642 24.3751 18.3867C24.5174 19.1099 24.6589 19.3558 25.262 19.0644C30.2854 16.4428 35.5099 14.6059 40.8359 13.5887C50.8263 11.4845 61.0445 12.8846 70.5294 17.6573C70.748 17.76 70.9456 17.9322 71.106 18.1596C71.2663 18.387 71.3849 18.6632 71.4518 18.9653C71.8217 20.474 72.0716 22.0327 72.1972 23.6145C72.2683 24.4865 72.126 24.6321 71.5229 24.3376C67.8001 22.6046 63.9623 21.3718 60.064 20.6565C54.3581 19.6154 48.5809 19.5179 42.8579 20.3662C37.5151 21.1855 32.2413 22.6938 27.1068 24.8707C26.1844 25.2582 25.9718 25.7428 26.3267 26.9536C26.6135 28.025 26.7913 29.1387 27.0751 30.5438Z" fill="#1D5EC9"/>
<path d="M28.318 36.4467C33.1606 38.5078 38.1389 39.9193 43.1821 40.6609C53.4354 42.3294 63.8323 40.7889 73.5847 36.1563C74.19 35.866 74.3648 35.6233 74.1522 34.7038C73.8329 33.4929 73.6558 32.1849 73.372 30.6352C76.9906 32.1363 80.5025 33.5414 84.1211 34.994C81.5317 38.7723 79.0837 42.4049 76.4586 46.2307C76.1749 44.778 75.929 43.5672 75.6785 42.3047C75.5718 41.723 75.4303 41.5298 74.9339 41.8201C70.0179 44.8049 64.8054 46.78 59.4659 47.6812C54.9242 48.4962 50.3297 48.6098 45.7694 48.0201C40.683 47.3802 35.656 46.0498 30.7629 44.0486C30.2923 43.9324 29.8581 43.6255 29.5169 43.1678C29.1757 42.7101 28.9434 42.1228 28.85 41.4823C28.4651 39.857 28.2852 38.1542 28.318 36.4467Z" fill="#1D5EC9"/>
<path d="M67.4117 49.4789C65.4298 52.8443 62.9403 55.5873 60.1123 57.5214C57.2844 59.4554 54.1845 60.535 51.0236 60.6867C47.8626 60.8383 44.7149 60.0585 41.7945 58.4003C38.8741 56.7421 36.2496 54.2444 34.0996 51.0771C39.4727 53.6566 45.1522 54.8393 50.8442 54.564C56.5532 54.3219 62.1761 52.5961 67.4117 49.4789Z" fill="#1D5EC9"/>
<path d="M66.5605 9.85762C55.7701 4.52374 43.9054 4.92127 33.3196 10.9714C35.32 7.6377 37.8237 4.93259 40.6597 3.04072C43.4958 1.14885 46.5975 0.114743 49.753 0.00901671C52.9086 -0.0967096 56.0437 0.72841 58.9443 2.42807C61.8449 4.12774 64.4428 6.66193 66.5605 9.85762Z" fill="#1D5EC9"/>
<path d="M60.8338 83.4443C59.5565 84.1676 58.6696 83.8803 57.9954 82.4753C56.1861 78.9398 54.4123 75.3547 52.5675 71.8193C52.3548 71.4319 52.2481 70.6084 51.7517 70.8988C51.3613 71.1405 51.6095 71.7707 51.6095 72.2553V83.4443C51.0041 84.1221 50.2618 83.4929 49.6231 83.8803C49.3393 84.026 49.4105 83.2512 49.4105 82.9112V67.9925C49.4105 67.3633 49.446 66.7331 49.4105 66.0553C49.3393 65.2288 49.6231 65.1348 50.1558 65.0387C50.6055 64.9384 51.0669 65.0342 51.4744 65.3124C51.882 65.5906 52.2149 66.0371 52.426 66.5884C54.1997 70.221 56.0446 73.805 57.8894 77.3901C58.0665 77.7775 58.2799 78.1132 58.6696 78.7941V75.5015C58.6696 72.4981 58.7407 69.4957 58.634 66.4923C58.5985 65.1844 58.9534 64.8941 59.7691 65.0873C60.124 65.1844 60.5849 64.8455 60.8686 65.3776V71.3833C60.8338 75.4033 60.8338 79.4274 60.8338 83.4443Z" fill="#1D5EC9"/>
<path d="M10.3548 71.5281C12.8384 68.9607 14.4698 69.1518 16.3147 72.0126C16.8186 71.0899 17.5153 70.397 18.3132 70.0252C19.1111 69.6535 19.9727 69.6202 20.7846 69.9298C21.411 70.1247 21.9783 70.5776 22.4098 71.2274C22.8413 71.8771 23.1161 72.6923 23.197 73.5624C23.623 76.7104 23.3037 79.9555 23.4097 83.1521C23.4097 83.6852 23.197 83.7337 22.9133 83.7337C22.5823 83.7095 22.2506 83.7095 21.9197 83.7337C21.39 83.8309 21.2455 83.492 21.2455 82.8132C21.2808 80.3915 21.2808 77.9698 21.2455 75.5481C21.2099 73.2752 20.1104 72.0612 18.5493 72.4972C17.5201 72.7875 16.8845 73.9984 16.8467 75.7909C16.8111 78.0638 16.7755 80.344 16.8822 82.62C16.9178 83.8794 16.4214 83.7823 15.8183 83.7337C15.2886 83.6852 14.5765 84.1212 14.6477 82.6686C14.7188 80.3956 14.6832 78.1155 14.6832 75.8394C14.6832 73.708 13.9379 72.4972 12.6969 72.4486C11.3492 72.4001 10.4971 73.6109 10.4615 75.7423C10.426 78.0669 10.3904 80.3916 10.4615 82.7172C10.4971 84.0737 9.89399 83.7337 9.36202 83.7823C8.79448 83.7823 8.26251 83.9765 8.29808 82.6686C8.36921 78.9389 8.33364 75.1607 8.33364 71.431C8.33364 70.7078 8.19138 69.8812 9.07825 70.0744C9.64503 70.1715 10.6386 69.4938 10.3548 71.5281Z" fill="#1D5EC9"/>
<path d="M85.916 81.894C85.916 83.8311 85.8805 85.6237 85.916 87.4152C85.9516 88.5775 85.7034 89.0135 84.781 89.0135C83.8941 89.0135 83.717 88.5775 83.7518 87.5123C83.7874 82.1399 83.7874 76.7592 83.7518 71.3352C83.7518 70.1729 84.0356 69.9301 84.781 70.0272C85.4196 70.0758 86.1287 69.8815 85.916 71.2866C85.896 71.5136 85.9081 71.7437 85.9516 71.9644C86.4151 71.1819 87.0158 70.5719 87.698 70.1908C88.3801 69.8097 89.1217 69.67 89.854 69.7844C91.0411 69.9092 92.147 70.6555 92.9406 71.8673C93.8197 73.2927 94.2987 75.0985 94.2922 76.9619C94.2857 78.8253 93.794 80.6247 92.9051 82.0386C91.0209 84.6546 88.3633 84.6546 85.916 81.894ZM85.8805 76.7602C85.8449 79.4723 87.0511 81.3134 88.896 81.362C89.7431 81.344 90.5524 80.8799 91.1549 80.0667C91.7574 79.2534 92.1066 78.1539 92.1294 76.9975C92.1523 75.8412 91.8471 74.7175 91.2776 73.8611C90.7081 73.0046 89.9183 72.4817 89.0731 72.4014C88.6486 72.3744 88.2246 72.4687 87.8284 72.6783C87.4321 72.8878 87.0722 73.208 86.7717 73.6182C86.4712 74.0285 86.2368 74.5198 86.0833 75.0609C85.9298 75.6019 85.8608 76.1807 85.8805 76.7602Z" fill="#1D5EC9"/>
<path d="M27.704 71.8702C30.0453 69.1097 32.8126 69.1097 34.6219 71.8217C35.5251 73.2751 36.012 75.126 35.9924 77.0318C35.9727 78.9376 35.448 80.7692 34.5152 82.1873C32.6348 84.7061 29.9031 84.6576 27.6685 81.8485V87.661C27.6685 88.2426 27.704 89.2107 27.1388 88.8718C26.6091 88.5329 25.474 89.5496 25.5065 87.6124C25.5777 82.24 25.5421 76.8593 25.5065 71.4828C25.5065 70.5137 25.6132 69.9817 26.4645 70.0777C27.2447 70.1263 27.8834 70.0777 27.6707 71.5304C27.6747 71.6448 27.6859 71.7584 27.704 71.8702ZM27.6329 76.8108C27.6329 79.5228 28.8391 81.3153 30.7196 81.3639C31.5713 81.3282 32.38 80.8444 32.9765 80.0136C33.573 79.1828 33.9112 78.0693 33.9204 76.9059C33.9296 75.7426 33.609 74.6194 33.0258 73.7712C32.4425 72.923 31.6417 72.4155 30.7907 72.3548C30.3635 72.336 29.9381 72.4394 29.5419 72.6584C29.1458 72.8774 28.7875 73.2071 28.4902 73.6263C28.1929 74.0456 27.9631 74.5451 27.8156 75.0928C27.6681 75.6405 27.6061 76.2243 27.6337 76.8067L27.6329 76.8108Z" fill="#1D5EC9"/>
<path d="M68.2136 77.9746C67.2201 77.9746 66.1917 78.0718 65.1981 77.9746C64.2045 77.8775 64.3112 78.4592 64.6306 79.2826C65.4819 81.6072 68.001 82.286 69.9162 80.7352C70.2 80.4935 70.3771 79.9604 70.8387 80.541C71.4062 81.3159 71.5485 81.7519 70.8031 82.5267C69.7399 83.5862 68.4354 84.0951 67.1227 83.9626C65.81 83.8302 64.5746 83.0649 63.637 81.8035C62.7876 80.4353 62.3126 78.7068 62.2931 76.9134C62.2736 75.12 62.711 73.373 63.5303 71.971C64.3882 70.6716 65.5728 69.8605 66.8486 69.6989C68.1245 69.5374 69.3981 70.0371 70.4164 71.099C71.8708 72.6487 72.2613 74.7801 72.2257 77.2019C72.2257 77.9251 71.9064 77.9767 71.5159 77.9251C70.4482 77.9747 69.3131 77.9746 68.2136 77.9746ZM67.2556 75.7947C68.0714 75.7947 68.8523 75.7461 69.668 75.7947C70.2734 75.8433 70.3423 75.5044 70.1644 74.8256C69.9593 74.0214 69.5674 73.3306 69.0484 72.8584C68.5293 72.3862 67.9115 72.1584 67.2889 72.2096C66.6649 72.2396 66.0615 72.5229 65.5559 73.0233C65.0504 73.5236 64.6655 74.2184 64.4505 75.0188C64.309 75.648 64.486 75.8453 64.9113 75.7936L67.2556 75.7947Z" fill="#1D5EC9"/>
<path d="M42.4951 84.0298C41.4572 84.0249 40.4439 83.5987 39.5839 82.8054C38.7239 82.0122 38.0561 80.8877 37.6654 79.5749C37.2747 78.2621 37.1788 76.8204 37.3898 75.433C37.6008 74.0456 38.1093 72.7751 38.8505 71.7833C39.5917 70.7914 40.5322 70.123 41.5524 69.8628C42.5726 69.6026 43.6265 69.7625 44.5799 70.3222C45.5334 70.8818 46.3434 71.816 46.9071 73.0059C47.4707 74.1957 47.7624 75.5876 47.7452 77.0044C47.7559 77.9431 47.6266 78.875 47.3652 79.7434C47.1038 80.6118 46.7157 81.3985 46.2246 82.0557C45.7335 82.7129 45.1496 83.2267 44.5085 83.5661C43.8673 83.9055 43.1823 84.0633 42.4951 84.0298ZM42.6018 72.4585C41.9565 72.3892 41.3108 72.5859 40.7483 73.0231C40.1858 73.4604 39.7323 74.118 39.4465 74.9109C39.1607 75.7038 39.0558 76.5956 39.1452 77.4708C39.2347 78.3461 39.5144 79.1645 39.9483 79.8203C40.3821 80.4761 40.9501 80.9392 41.5788 81.1495C42.2075 81.3597 42.8679 81.3076 43.4747 80.9999C44.0814 80.6921 44.6066 80.1429 44.9822 79.4232C45.3579 78.7035 45.5667 77.8465 45.5817 76.963C45.6214 76.3944 45.574 75.8208 45.4426 75.2785C45.3112 74.7362 45.0986 74.2372 44.8184 73.8131C44.5381 73.389 44.1964 73.0491 43.8148 72.815C43.4332 72.5809 43.0201 72.4577 42.6018 72.4533V72.4585Z" fill="#1D5EC9"/>
<path d="M105.997 76.9566C105.993 78.3736 105.681 79.7571 105.1 80.9312C104.519 82.1054 103.696 83.0172 102.734 83.5506C101.773 84.084 100.717 84.215 99.7005 83.9269C98.6843 83.6387 97.7539 82.9445 97.0274 81.9326C96.3009 80.9206 95.8113 79.6365 95.6207 78.2436C95.4301 76.8506 95.5473 75.4119 95.9572 74.1101C96.3671 72.8083 97.0513 71.7023 97.9228 70.9328C98.7943 70.1633 99.8137 69.765 100.851 69.7885C101.539 69.7739 102.222 69.9505 102.858 70.3074C103.494 70.6643 104.07 71.194 104.551 71.8645C105.033 72.5351 105.409 73.3323 105.657 74.2077C105.906 75.0831 106.022 76.0183 105.997 76.9566ZM100.851 81.3155C101.272 81.3229 101.689 81.2104 102.076 80.9852C102.463 80.76 102.811 80.4271 103.098 80.0077C103.385 79.5883 103.605 79.0916 103.744 78.5495C103.882 78.0074 103.936 77.4317 103.902 76.8594C103.931 76.2892 103.872 75.7172 103.728 75.1803C103.585 74.6434 103.36 74.1537 103.069 73.7428C102.778 73.3319 102.427 73.009 102.039 72.795C101.651 72.581 101.234 72.4807 100.816 72.5006C100.395 72.4895 99.9762 72.5972 99.5868 72.8167C99.1973 73.0362 98.8452 73.3629 98.5523 73.7764C98.2594 74.19 98.0321 74.6815 97.8845 75.2203C97.7369 75.7591 97.6722 76.3336 97.6944 76.908C97.6669 77.4885 97.7293 78.0702 97.8774 78.6156C98.0254 79.161 98.2559 79.6577 98.5538 80.0734C98.8517 80.4891 99.2104 80.8146 99.6065 81.0285C100.003 81.2425 100.427 81.3403 100.853 81.3155H100.851Z" fill="#1D5EC9"/>
<path d="M77.4031 78.8931C76.6229 80.3943 75.9132 81.7023 75.2034 83.0102C74.9031 83.4536 74.5186 83.7744 74.0927 83.9369C73.6667 84.0995 73.2161 84.0974 72.7909 83.9308C72.2945 83.5919 72.5783 83.2076 72.7909 82.8656C73.7845 81.0731 74.7418 79.2816 75.7709 77.5376C75.8547 77.4332 75.9217 77.306 75.9675 77.1642C76.0133 77.0224 76.037 76.8692 76.037 76.7142C76.037 76.5592 76.0133 76.4059 75.9675 76.2641C75.9217 76.1224 75.8547 75.9952 75.7709 75.8908C74.7773 74.0983 73.8549 72.2582 72.8954 70.4656C72.8598 70.4171 72.8598 70.32 72.8242 70.1753C74.172 69.8365 75.3434 69.7879 76.0524 71.8222C76.4613 72.7738 76.9238 73.6805 77.4357 74.5342C77.8965 73.6137 78.3581 72.7902 78.7834 71.9668C79.954 69.7383 79.9896 69.7383 82.1538 70.1743C81.1247 72.0629 80.1674 73.997 79.1383 75.8412C79.0501 75.9523 78.9798 76.0872 78.9317 76.2372C78.8836 76.3873 78.8588 76.5493 78.8588 76.7131C78.8588 76.8769 78.8836 77.039 78.9317 77.189C78.9798 77.3391 79.0501 77.474 79.1383 77.5851C80.1666 79.3291 81.1247 81.1692 82.1182 82.9131C82.5443 83.6363 82.3309 83.9783 81.7633 83.9783C80.8765 84.0269 79.9896 84.2686 79.422 82.7189C78.832 81.3657 78.1565 80.0856 77.4031 78.8931Z" fill="#1D5EC9"/>
<path d="M6.20558 83.4444C5.60021 83.9776 4.92826 83.6387 4.28959 83.6862C3.93469 83.6862 4.00582 83.2502 4.00582 82.963V65.8127C4.00582 65.5223 3.97026 65.0894 4.28959 65.0894C4.92826 65.138 5.60248 64.7506 6.20558 65.3312V83.4444Z" fill="#1D5EC9"/>
</g>
<defs>
<filter id="filter0_d_1463_4371" x="0" y="0" width="110" height="97.0135" filterUnits="userSpaceOnUse" color-interpolation-filters="sRGB">
<feFlood flood-opacity="0" result="BackgroundImageFix"/>
<feColorMatrix in="SourceAlpha" type="matrix" values="0 0 0 0 0 0 0 0 0 0 0 0 0 0 0 0 0 0 127 0" result="hardAlpha"/>
<feOffset dy="4"/>
<feGaussianBlur stdDeviation="2"/>
<feComposite in2="hardAlpha" operator="out"/>
<feColorMatrix type="matrix" values="0 0 0 0 0 0 0 0 0 0 0 0 0 0 0 0 0 0 0.25 0"/>
<feBlend mode="normal" in2="BackgroundImageFix" result="effect1_dropShadow_1463_4371"/>
<feBlend mode="normal" in="SourceGraphic" in2="effect1_dropShadow_1463_4371" result="shape"/>
</filter>
</defs>
</svg>
