<svg width="12" height="11" viewBox="0 0 12 11" fill="none" xmlns="http://www.w3.org/2000/svg">
<path d="M8.33599 1C7.88986 1.00071 7.45044 1.10833 7.05473 1.3138C6.65902 1.51927 6.31861 1.81657 6.06217 2.18066C5.80572 1.81657 5.46531 1.51927 5.0696 1.3138C4.67389 1.10833 4.23447 1.00071 3.78834 1C3.03586 1.0418 2.32815 1.37 1.81116 1.91692C1.29417 2.46384 1.00733 3.18777 1.00978 3.93942C1.00978 5.4653 1.87387 7.03701 3.50828 8.48443C4.26566 9.15387 5.09641 9.73585 5.98476 10.2193C6.00869 10.2317 6.03523 10.2381 6.06217 10.2381C6.0891 10.2381 6.11564 10.2317 6.13958 10.2193C7.02769 9.7358 7.85823 9.15382 8.61542 8.48443C10.2517 7.03701 11.1145 5.4653 11.1145 3.93942C11.117 3.18777 10.8302 2.46384 10.3132 1.91692C9.79618 1.37 9.08847 1.0418 8.33599 1ZM6.06217 9.87913C5.44352 9.53642 1.34648 7.16066 1.34648 3.93942C1.34175 3.27611 1.59239 2.63628 2.04673 2.15186C2.50106 1.66743 3.12444 1.37534 3.78834 1.33581C4.22188 1.33598 4.64759 1.45102 5.0219 1.66917C5.39622 1.88732 5.7057 2.20074 5.91867 2.57735C5.93467 2.60157 5.95644 2.62144 5.98203 2.6352C6.00762 2.64895 6.03624 2.65615 6.06531 2.65615C6.09438 2.65615 6.123 2.64895 6.14859 2.6352C6.17419 2.62144 6.19596 2.60157 6.21195 2.57735C6.4244 2.20166 6.73289 1.88884 7.10601 1.67075C7.47912 1.45266 7.90352 1.33709 8.33599 1.33581C8.99989 1.37534 9.62327 1.66743 10.0776 2.15186C10.5319 2.63628 10.7826 3.27611 10.7778 3.93942C10.7778 7.16066 6.68081 9.53893 6.06217 9.87913Z" fill="#336CCC" stroke="#1D5EC9" stroke-width="0.489058"/>
</svg>
