<svg width="59" height="13" viewBox="0 0 59 13" fill="none" xmlns="http://www.w3.org/2000/svg">
<path d="M16.048 7.284H19.924V9.12H16.048V7.284ZM16.216 12H13.84V3.6H20.428V5.436H16.216V12ZM24.5546 12.108C23.8426 12.108 23.2106 11.964 22.6586 11.676C22.1066 11.388 21.6706 10.992 21.3506 10.488C21.0386 9.976 20.8826 9.392 20.8826 8.736C20.8826 8.08 21.0386 7.5 21.3506 6.996C21.6706 6.492 22.1066 6.1 22.6586 5.82C23.2106 5.532 23.8426 5.388 24.5546 5.388C25.2666 5.388 25.8986 5.532 26.4506 5.82C27.0106 6.1 27.4466 6.492 27.7586 6.996C28.0706 7.5 28.2266 8.08 28.2266 8.736C28.2266 9.392 28.0706 9.976 27.7586 10.488C27.4466 10.992 27.0106 11.388 26.4506 11.676C25.8986 11.964 25.2666 12.108 24.5546 12.108ZM24.5546 10.296C24.8186 10.296 25.0506 10.236 25.2506 10.116C25.4586 9.996 25.6226 9.82 25.7426 9.588C25.8626 9.348 25.9226 9.064 25.9226 8.736C25.9226 8.408 25.8626 8.132 25.7426 7.908C25.6226 7.676 25.4586 7.5 25.2506 7.38C25.0506 7.26 24.8186 7.2 24.5546 7.2C24.2986 7.2 24.0666 7.26 23.8586 7.38C23.6586 7.5 23.4946 7.676 23.3666 7.908C23.2466 8.132 23.1866 8.408 23.1866 8.736C23.1866 9.064 23.2466 9.348 23.3666 9.588C23.4946 9.82 23.6586 9.996 23.8586 10.116C24.0666 10.236 24.2986 10.296 24.5546 10.296ZM29.2828 12V3.096H31.5628V12H29.2828ZM33.0445 12V3.096H35.3245V12H33.0445ZM40.0702 12.108C39.3582 12.108 38.7262 11.964 38.1742 11.676C37.6222 11.388 37.1862 10.992 36.8662 10.488C36.5542 9.976 36.3982 9.392 36.3982 8.736C36.3982 8.08 36.5542 7.5 36.8662 6.996C37.1862 6.492 37.6222 6.1 38.1742 5.82C38.7262 5.532 39.3582 5.388 40.0702 5.388C40.7822 5.388 41.4142 5.532 41.9662 5.82C42.5262 6.1 42.9622 6.492 43.2742 6.996C43.5862 7.5 43.7422 8.08 43.7422 8.736C43.7422 9.392 43.5862 9.976 43.2742 10.488C42.9622 10.992 42.5262 11.388 41.9662 11.676C41.4142 11.964 40.7822 12.108 40.0702 12.108ZM40.0702 10.296C40.3342 10.296 40.5662 10.236 40.7662 10.116C40.9742 9.996 41.1382 9.82 41.2582 9.588C41.3782 9.348 41.4382 9.064 41.4382 8.736C41.4382 8.408 41.3782 8.132 41.2582 7.908C41.1382 7.676 40.9742 7.5 40.7662 7.38C40.5662 7.26 40.3342 7.2 40.0702 7.2C39.8142 7.2 39.5822 7.26 39.3742 7.38C39.1742 7.5 39.0102 7.676 38.8822 7.908C38.7622 8.132 38.7022 8.408 38.7022 8.736C38.7022 9.064 38.7622 9.348 38.8822 9.588C39.0102 9.82 39.1742 9.996 39.3742 10.116C39.5822 10.236 39.8142 10.296 40.0702 10.296ZM46.1706 12L43.8546 5.496H46.0146L47.8506 10.932H46.8186L48.7266 5.496H50.6706L52.5066 10.932H51.4986L53.3946 5.496H55.3986L53.0826 12H50.8746L49.3146 7.5H49.9866L48.3786 12H46.1706Z" fill="#1D5DC7"/>
<path d="M5.40228 8.1749C5.75818 8.1749 6.1061 8.05247 6.40202 7.8231C6.69794 7.59373 6.92859 7.26771 7.06479 6.88628C7.20099 6.50485 7.23662 6.08513 7.16719 5.68021C7.09775 5.27528 6.92637 4.90334 6.67471 4.6114C6.42304 4.31947 6.10241 4.12066 5.75334 4.04011C5.40428 3.95957 5.04246 4.0009 4.71365 4.1589C4.38483 4.31689 4.10379 4.58445 3.90606 4.92773C3.70833 5.271 3.6028 5.67459 3.6028 6.08745C3.60432 6.64053 3.7944 7.17045 4.13154 7.56154C4.46868 7.95263 4.9255 8.17313 5.40228 8.1749ZM5.40228 9.21896C4.21014 9.21896 1.80273 9.9235 1.80273 11.3064V12.3505H9.00067V11.3064C9.00067 9.9235 6.59326 9.21896 5.40228 9.21896Z" fill="#1D5DC7"/>
<path d="M1.79948 7.47729V6.08566H1.20023V7.47729H0V8.17311H1.20023V9.56474H1.79948V8.17311H2.99972V7.47729H1.79948Z" fill="#1D5DC7"/>
</svg>
