<svg width="13" height="13" viewBox="0 0 13 13" fill="none" xmlns="http://www.w3.org/2000/svg">
<path d="M8.32749 6.99813H4.85299C4.76081 6.99813 4.6724 7.03532 4.60721 7.10151C4.54203 7.16771 4.50541 7.25749 4.50541 7.3511C4.50541 7.44472 4.54203 7.5345 4.60721 7.60069C4.6724 7.66689 4.76081 7.70408 4.85299 7.70408H8.32749C8.41967 7.70408 8.50808 7.66689 8.57327 7.60069C8.63845 7.5345 8.67507 7.44472 8.67507 7.3511C8.67507 7.25749 8.63845 7.16771 8.57327 7.10151C8.50808 7.03532 8.41967 6.99813 8.32749 6.99813ZM9.02266 4.88098H4.1585C4.06631 4.88098 3.9779 4.91817 3.91272 4.98437C3.84753 5.05056 3.81091 5.14034 3.81091 5.23395C3.81091 5.32757 3.84753 5.41735 3.91272 5.48354C3.9779 5.54974 4.06631 5.58693 4.1585 5.58693H9.02266C9.11484 5.58693 9.20325 5.54974 9.26844 5.48354C9.33362 5.41735 9.37024 5.32757 9.37024 5.23395C9.37024 5.14034 9.33362 5.05056 9.26844 4.98437C9.20325 4.91817 9.11484 4.88098 9.02266 4.88098ZM6.59058 1C3.52075 1 1.03125 3.21182 1.03125 5.93956C1.04554 6.7052 1.24274 7.45587 1.6059 8.127C1.96906 8.79814 2.48731 9.36966 3.11608 9.79241V12.291L5.54816 10.7906C5.89153 10.8491 6.23904 10.8789 6.5872 10.8798C9.6577 10.8798 12.1465 8.66798 12.1465 5.94024C12.1465 3.21251 9.66108 1 6.59058 1ZM6.59058 10.1739C6.1958 10.1726 5.80224 10.1292 5.41642 10.0442L3.78017 11.0431L3.80112 9.40617C3.18833 9.06141 2.67467 8.56033 2.31084 7.9524C1.947 7.34447 1.74557 6.65069 1.72642 5.93956C1.72642 3.6015 3.90448 1.70526 6.59058 1.70526C9.27667 1.70526 11.4547 3.60081 11.4547 5.93956C11.4547 8.2783 9.27735 10.1739 6.59058 10.1739Z" fill="#1D5EC9" stroke="#1D5EC9" stroke-width="0.260831"/>
</svg>
