<svg width="8" height="11" viewBox="0 0 8 11" fill="none" xmlns="http://www.w3.org/2000/svg">
<path d="M4 3.16086e-05C6.20815 0.00282346 7.99754 2.03195 8 4.53569V4.53596C7.98123 5.45362 7.7556 6.30719 7.37424 7.04466L7.38594 7.02016C7.00559 7.77886 6.57033 8.43362 6.07098 9.01745L6.07308 9.01499C5.5067 9.69199 4.88727 10.2996 4.21882 10.8337L4.1799 10.8632L4 11L3.8201 10.8637C3.11272 10.3001 2.4933 9.69248 1.93203 9.02164L1.92692 9.01548C1.42965 8.43397 0.994385 7.77905 0.63616 7.06782L0.614049 7.02015C0.244406 6.30717 0.0187855 5.4536 0.000111496 4.54201L0 4.53593C0.00246199 2.03194 1.79185 0.00280239 3.99976 0H4V3.16086e-05ZM4 10.107C4.72 9.50881 7.35134 7.14325 7.35134 4.53597C7.35134 2.43709 5.8509 0.735606 4 0.735606C2.14911 0.735606 0.648656 2.43708 0.648656 4.53597C0.648656 7.1467 3.27958 9.50931 4 10.1071V10.107ZM4 6.75735C2.91862 6.75595 2.04232 5.76224 2.04109 4.53609V4.53596H2.68973C2.68973 5.35656 3.27637 6.02179 4.00001 6.02179C4.72365 6.02179 5.31028 5.35657 5.31028 4.53597C5.31028 3.71538 4.72365 3.05015 4 3.05015V2.31459C5.08189 2.31459 5.95891 3.30913 5.95891 4.53596C5.95891 5.7628 5.08189 6.75735 4 6.75735Z" fill="black"/>
</svg>
