<svg width="12" height="11" viewBox="0 0 12 11" fill="none" xmlns="http://www.w3.org/2000/svg">
<g opacity="0.9">
<path d="M10.0228 1.8662H5.76372L4.69306 0.470288C4.46542 0.176039 4.13276 3.05176e-05 3.77147 3.05176e-05H1.21747C0.560976 3.05176e-05 0.0205078 0.578393 0.0205078 1.27466V8.76769C0.0205078 9.46159 0.560976 10.04 1.21747 10.04H10.025C10.6815 10.04 11.222 9.46159 11.222 8.76533V3.12494C11.2198 2.42834 10.6793 1.8662 10.0228 1.8662ZM0.516182 8.76533V1.27466C0.516182 0.867236 0.833413 0.525692 1.21747 0.525692H3.77147C3.97929 0.525692 4.17756 0.630756 4.309 0.8044L5.11677 1.8662H2.48346C1.82917 1.8662 1.28429 2.42868 1.28429 3.12494V9.5143H1.21747C0.833413 9.5143 0.516182 9.17241 0.516182 8.76533ZM10.7234 8.76533C10.7234 9.17072 10.4062 9.5143 10.0221 9.5143H1.7829V3.12494C1.7829 2.71955 2.10528 2.39152 2.48639 2.39152H10.0228C10.4047 2.39152 10.7241 2.71989 10.7241 3.12494L10.7234 8.76533Z" fill="#1D5DC7"/>
<path d="M7.51424 5.96296L6.51734 7.11333V4.27664C6.51734 4.1338 6.4091 4.017 6.27737 4.017C6.14563 4.017 6.03739 4.1338 6.03739 4.27664V7.11333L5.04975 5.9633C4.95861 5.85951 4.80979 5.8515 4.71081 5.95029C4.61376 6.06808 4.60947 6.19823 4.6987 6.31738L6.10646 7.95032C6.15204 8.00238 6.21684 8.03341 6.28164 8.03341C6.34643 8.03341 6.41123 8.00238 6.45681 7.95032L7.86458 6.31738C7.95557 6.1983 7.9505 6.06774 7.85033 5.95029C7.75349 5.85384 7.60253 5.85651 7.51424 5.96296Z" fill="#1D5DC7"/>
</g>
</svg>
