<svg width="132" height="24" viewBox="0 0 132 24" fill="none" xmlns="http://www.w3.org/2000/svg">
<path d="M11.9717 16.8835L17.9441 20.4882L16.3592 13.6943L21.6357 9.12325L14.6873 8.53374L11.9717 2.12646L9.25608 8.53374L2.30762 9.12325L7.5842 13.6943L5.99929 20.4882L11.9717 16.8835Z" fill="#EDD146"/>
<path d="M39.0312 16.8835L45.0036 20.4882L43.4187 13.6943L48.6953 9.12325L41.7469 8.53374L39.0312 2.12646L36.3156 8.53374L29.3672 9.12325L34.6438 13.6943L33.0589 20.4882L39.0312 16.8835Z" fill="#EDD146"/>
<path d="M66.0908 16.8835L72.0632 20.4882L70.4783 13.6943L75.7549 9.12325L68.8064 8.53374L66.0908 2.12646L63.3752 8.53374L56.4268 9.12325L61.7033 13.6943L60.1184 20.4882L66.0908 16.8835Z" fill="#EDD146"/>
<path d="M93.1494 16.8835L99.1218 20.4882L97.5369 13.6943L102.813 9.12325L95.865 8.53374L93.1494 2.12646L90.4338 8.53374L83.4854 9.12325L88.7619 13.6943L87.177 20.4882L93.1494 16.8835Z" fill="#EDD146"/>
<path d="M129.873 9.12325L122.925 8.52407L120.209 2.12646L117.493 8.53374L110.545 9.12325L115.821 13.6943L114.237 20.4882L120.209 16.8835L126.181 20.4882L124.606 13.6943L129.873 9.12325ZM120.209 15.0763L116.575 17.2701L117.542 13.1338L114.333 10.3506L118.566 9.98335L120.209 6.08873L121.862 9.99301L126.094 10.3602L122.886 13.1435L123.852 17.2797L120.209 15.0763Z" fill="#EDD146"/>
</svg>
