<svg width="8" height="5" viewBox="0 0 8 5" fill="none" xmlns="http://www.w3.org/2000/svg">
<path d="M5.8791 0.193665C5.5575 0.193986 5.24072 0.242521 4.95546 0.335184C4.67021 0.427846 4.42481 0.561922 4.23995 0.72612C4.05508 0.561922 3.80969 0.427846 3.52443 0.335184C3.23917 0.242521 2.9224 0.193986 2.60079 0.193665C2.05834 0.212515 1.54817 0.360527 1.17549 0.607176C0.802799 0.853826 0.596019 1.1803 0.59779 1.51928C0.59779 2.20743 1.22069 2.91623 2.39891 3.56899C2.94488 3.8709 3.54376 4.13336 4.18414 4.3514C4.20139 4.35696 4.22053 4.35986 4.23995 4.35986C4.25936 4.35986 4.2785 4.35696 4.29575 4.3514C4.93597 4.13334 5.53469 3.87088 6.08053 3.56899C7.26011 2.91623 7.8821 2.20743 7.8821 1.51928C7.88387 1.1803 7.67709 0.853826 7.30441 0.607176C6.93172 0.360527 6.42155 0.212515 5.8791 0.193665ZM4.23995 4.19798C3.79398 4.04342 0.840509 2.972 0.840509 1.51928C0.837101 1.22015 1.01778 0.931596 1.3453 0.71313C1.67282 0.494663 2.1222 0.362935 2.60079 0.345107C2.91332 0.345183 3.22021 0.397066 3.49004 0.495447C3.75988 0.593827 3.98298 0.735174 4.13651 0.90502C4.14803 0.915941 4.16373 0.924904 4.18218 0.931106C4.20063 0.937308 4.22126 0.940555 4.24221 0.940555C4.26317 0.940555 4.2838 0.937308 4.30225 0.931106C4.3207 0.924904 4.33639 0.915941 4.34792 0.90502C4.50107 0.735591 4.72346 0.594514 4.99243 0.496159C5.2614 0.397803 5.56734 0.345683 5.8791 0.345107C6.35769 0.362935 6.80707 0.494663 7.13459 0.71313C7.46211 0.931596 7.64279 1.22015 7.63938 1.51928C7.63938 2.972 4.68592 4.04455 4.23995 4.19798Z" fill="#336CCC" stroke="#336CCC" stroke-width="0.197632"/>
</svg>
