<svg width="8" height="8" viewBox="0 0 8 8" fill="none" xmlns="http://www.w3.org/2000/svg">
<path d="M6.70563 1.93773H4.21289L3.58627 1.03989C3.45304 0.850634 3.25834 0.737427 3.04689 0.737427H1.55211C1.16788 0.737427 0.851562 1.10943 0.851562 1.55726V6.37673C0.851562 6.82304 1.16788 7.19504 1.55211 7.19504H6.70692C7.09115 7.19504 7.40747 6.82304 7.40747 6.3752V2.74735C7.40618 2.2993 7.08986 1.93773 6.70563 1.93773ZM1.14167 6.3752V1.55726C1.14167 1.29521 1.32733 1.07553 1.55211 1.07553H3.04689C3.16852 1.07553 3.28456 1.14311 3.36149 1.25479L3.83425 1.93773H2.29305C1.91012 1.93773 1.59122 2.29952 1.59122 2.74735V6.85693H1.55211C1.32733 6.85693 1.14167 6.63704 1.14167 6.3752ZM7.11564 6.3752C7.11564 6.63595 6.92998 6.85693 6.7052 6.85693H1.88304V2.74735C1.88304 2.4866 2.07172 2.27561 2.29477 2.27561H6.70563C6.92912 2.27561 7.11607 2.48682 7.11607 2.74735L7.11564 6.3752Z" fill="#2B67CB"/>
</svg>
