<svg width="8" height="5" viewBox="0 0 8 5" fill="none" xmlns="http://www.w3.org/2000/svg">
<path d="M4.87786 2.63497H2.60087C2.54046 2.63497 2.48252 2.64869 2.4398 2.67311C2.39708 2.69754 2.37308 2.73067 2.37308 2.76521C2.37308 2.79975 2.39708 2.83288 2.4398 2.8573C2.48252 2.88173 2.54046 2.89545 2.60087 2.89545H4.87786C4.93828 2.89545 4.99622 2.88173 5.03893 2.8573C5.08165 2.83288 5.10565 2.79975 5.10565 2.76521C5.10565 2.73067 5.08165 2.69754 5.03893 2.67311C4.99622 2.64869 4.93828 2.63497 4.87786 2.63497ZM5.33344 1.85377H2.14574C2.08533 1.85377 2.02739 1.86749 1.98467 1.89192C1.94195 1.91634 1.91795 1.94947 1.91795 1.98401C1.91795 2.01856 1.94195 2.05168 1.98467 2.07611C2.02739 2.10053 2.08533 2.11426 2.14574 2.11426H5.33344C5.39385 2.11426 5.45179 2.10053 5.49451 2.07611C5.53723 2.05168 5.56123 2.01856 5.56123 1.98401C5.56123 1.94947 5.53723 1.91634 5.49451 1.89192C5.45179 1.86749 5.39385 1.85377 5.33344 1.85377ZM3.73959 0.421753C1.7278 0.421753 0.0963135 1.23788 0.0963135 2.24437C0.105678 2.52688 0.234915 2.80387 0.47291 3.0515C0.710905 3.29914 1.05054 3.51002 1.4626 3.66601V4.58795L3.05645 4.03433C3.28147 4.05591 3.50921 4.06692 3.73738 4.06724C5.74961 4.06724 7.38065 3.25111 7.38065 2.24462C7.38065 1.23813 5.75182 0.421753 3.73959 0.421753ZM3.73959 3.80676C3.48087 3.8063 3.22296 3.79026 2.97011 3.75891L1.89781 4.12749L1.91153 3.52349C1.50995 3.39628 1.17332 3.21139 0.934884 2.98708C0.696446 2.76276 0.564438 2.50677 0.551889 2.24437C0.551889 1.38166 1.97927 0.681982 3.73959 0.681982C5.49991 0.681982 6.92729 1.38141 6.92729 2.24437C6.92729 3.10733 5.50035 3.80676 3.73959 3.80676Z" fill="#336CCC" stroke="#336CCC" stroke-width="0.105404"/>
</svg>
