<svg width="115" height="18" viewBox="0 0 115 18" fill="none" xmlns="http://www.w3.org/2000/svg">
<path d="M44.1609 10.0527H49.9749V12.8067H44.1609V10.0527ZM44.4129 17.1267H40.8489V4.52671H50.7309V7.28071H44.4129V17.1267ZM56.9208 17.2887C55.8528 17.2887 54.9048 17.0727 54.0768 16.6407C53.2488 16.2087 52.5948 15.6147 52.1148 14.8587C51.6468 14.0907 51.4128 13.2147 51.4128 12.2307C51.4128 11.2467 51.6468 10.3767 52.1148 9.62071C52.5948 8.86471 53.2488 8.27671 54.0768 7.85671C54.9048 7.42471 55.8528 7.20871 56.9208 7.20871C57.9888 7.20871 58.9368 7.42471 59.7648 7.85671C60.6048 8.27671 61.2588 8.86471 61.7268 9.62071C62.1948 10.3767 62.4288 11.2467 62.4288 12.2307C62.4288 13.2147 62.1948 14.0907 61.7268 14.8587C61.2588 15.6147 60.6048 16.2087 59.7648 16.6407C58.9368 17.0727 57.9888 17.2887 56.9208 17.2887ZM56.9208 14.5707C57.3168 14.5707 57.6648 14.4807 57.9648 14.3007C58.2768 14.1207 58.5228 13.8567 58.7028 13.5087C58.8828 13.1487 58.9728 12.7227 58.9728 12.2307C58.9728 11.7387 58.8828 11.3247 58.7028 10.9887C58.5228 10.6407 58.2768 10.3767 57.9648 10.1967C57.6648 10.0167 57.3168 9.92671 56.9208 9.92671C56.5368 9.92671 56.1888 10.0167 55.8768 10.1967C55.5768 10.3767 55.3308 10.6407 55.1388 10.9887C54.9588 11.3247 54.8688 11.7387 54.8688 12.2307C54.8688 12.7227 54.9588 13.1487 55.1388 13.5087C55.3308 13.8567 55.5768 14.1207 55.8768 14.3007C56.1888 14.4807 56.5368 14.5707 56.9208 14.5707ZM64.013 17.1267V3.77071H67.433V17.1267H64.013ZM69.6556 17.1267V3.77071H73.0756V17.1267H69.6556ZM80.1942 17.2887C79.1262 17.2887 78.1782 17.0727 77.3502 16.6407C76.5222 16.2087 75.8682 15.6147 75.3882 14.8587C74.9202 14.0907 74.6862 13.2147 74.6862 12.2307C74.6862 11.2467 74.9202 10.3767 75.3882 9.62071C75.8682 8.86471 76.5222 8.27671 77.3502 7.85671C78.1782 7.42471 79.1262 7.20871 80.1942 7.20871C81.2622 7.20871 82.2102 7.42471 83.0382 7.85671C83.8782 8.27671 84.5322 8.86471 85.0002 9.62071C85.4682 10.3767 85.7022 11.2467 85.7022 12.2307C85.7022 13.2147 85.4682 14.0907 85.0002 14.8587C84.5322 15.6147 83.8782 16.2087 83.0382 16.6407C82.2102 17.0727 81.2622 17.2887 80.1942 17.2887ZM80.1942 14.5707C80.5902 14.5707 80.9382 14.4807 81.2382 14.3007C81.5502 14.1207 81.7962 13.8567 81.9762 13.5087C82.1562 13.1487 82.2462 12.7227 82.2462 12.2307C82.2462 11.7387 82.1562 11.3247 81.9762 10.9887C81.7962 10.6407 81.5502 10.3767 81.2382 10.1967C80.9382 10.0167 80.5902 9.92671 80.1942 9.92671C79.8102 9.92671 79.4622 10.0167 79.1502 10.1967C78.8502 10.3767 78.6042 10.6407 78.4122 10.9887C78.2322 11.3247 78.1422 11.7387 78.1422 12.2307C78.1422 12.7227 78.2322 13.1487 78.4122 13.5087C78.6042 13.8567 78.8502 14.1207 79.1502 14.3007C79.4622 14.4807 79.8102 14.5707 80.1942 14.5707ZM89.3448 17.1267L85.8708 7.37071H89.1108L91.8648 15.5247H90.3168L93.1788 7.37071H96.0948L98.8488 15.5247H97.3368L100.181 7.37071H103.187L99.7128 17.1267H96.4008L94.0608 10.3767H95.0688L92.6568 17.1267H89.3448Z" fill="#1D5DC7"/>
<path d="M19.0386 9.78019C19.8943 9.78019 20.7308 9.55671 21.4424 9.138C22.1539 8.7193 22.7084 8.12418 23.0359 7.4279C23.3634 6.73162 23.4491 5.96546 23.2821 5.22629C23.1152 4.48713 22.7031 3.80816 22.098 3.27525C21.4929 2.74234 20.722 2.37943 19.8827 2.2324C19.0434 2.08537 18.1734 2.16083 17.3828 2.44924C16.5922 2.73765 15.9165 3.22605 15.4411 3.85268C14.9656 4.47932 14.7119 5.21604 14.7119 5.96969C14.7155 6.9793 15.1726 7.94664 15.9832 8.66055C16.7938 9.37446 17.8922 9.77696 19.0386 9.78019ZM19.0386 11.6861C16.1722 11.6861 10.3838 12.9721 10.3838 15.4966V17.4024H27.6906V15.4966C27.6906 12.9721 21.9022 11.6861 19.0386 11.6861Z" fill="#1D5DC7"/>
<path d="M6.48835 9.06941V6.224H4.54359V9.06941H0.648438V10.4921H4.54359V13.3375H6.48835V10.4921H10.3835V9.06941H6.48835Z" fill="#1D5DC7"/>
</svg>
