<svg width="37" height="31" viewBox="0 0 37 31" fill="none" xmlns="http://www.w3.org/2000/svg">
<path fill-rule="evenodd" clip-rule="evenodd" d="M15.5559 1.17791H15.7609C15.8711 1.1795 15.9799 1.20415 16.0805 1.25038C16.1812 1.2966 16.2718 1.36343 16.3467 1.44682L28.7625 15.3578C29.0404 15.6654 29.2554 16.0276 29.3947 16.4228C29.5339 16.818 29.5946 17.2381 29.573 17.658C29.5514 18.0779 29.448 18.4891 29.269 18.8668C29.09 19.2446 28.839 19.5813 28.5311 19.8569L17.6442 29.8822L17.6208 29.9034C17.3259 30.1901 16.9769 30.4112 16.5957 30.553C16.0182 30.7622 15.393 30.7877 14.8013 30.6261C14.2096 30.4645 13.6786 30.1232 13.2772 29.6465L1.61701 16.1646C1.54618 16.0827 1.49184 15.9871 1.45714 15.8834C1.42244 15.7796 1.40809 15.6698 1.41491 15.5603L1.43834 15.2249L0.486431 1.15978C0.478202 1.0412 0.494734 0.92218 0.534911 0.81076C0.575087 0.69934 0.637972 0.59811 0.71932 0.5139C0.800667 0.429698 0.898582 0.364481 1.00645 0.322655C1.11433 0.28083 1.22964 0.26337 1.34461 0.271455L15.2981 1.17791H15.3509C15.4187 1.16698 15.4872 1.16092 15.5559 1.15978V1.17791ZM24.5038 30.3596C24.3438 30.5071 24.1336 30.5829 23.9193 30.5704C23.7051 30.558 23.5045 30.4582 23.3615 30.2931C23.2186 30.1281 23.1451 29.9112 23.1572 29.6902C23.1693 29.4692 23.2659 29.2622 23.426 29.1147L34.3539 19.0501C34.5025 18.9225 34.6233 18.764 34.7083 18.5848C34.8648 18.2274 34.8888 17.8231 34.7756 17.4487C34.7122 17.2618 34.6126 17.0901 34.4827 16.9441V16.926L22.0669 3.00592C21.9217 2.84284 21.8452 2.62692 21.8542 2.40564C21.8633 2.18437 21.9572 1.97587 22.1153 1.82602C22.2733 1.67617 22.4827 1.59723 22.6971 1.60658C22.9116 1.61593 23.1138 1.7128 23.259 1.87587L35.666 15.7959L35.6953 15.8292C35.9674 16.1375 36.1769 16.4988 36.3115 16.8919C36.4461 17.285 36.5031 17.702 36.479 18.1181C36.455 18.5343 36.3505 18.9413 36.1716 19.3152C35.9928 19.689 35.7432 20.0222 35.4376 20.295L24.5038 30.3596ZM7.20251 4.19941C9.51345 4.26286 10.1315 6.91877 9.51052 7.92493C9.30044 8.39757 8.96204 8.79726 8.5363 9.07558C8.11055 9.3539 7.61572 9.49892 7.11171 9.49309C4.29407 9.49309 3.59698 5.41406 6.23303 4.35653C6.54262 4.23728 6.87239 4.18384 7.20251 4.19941ZM10.6528 9.7983C10.9662 9.47496 11.388 10.1004 11.8976 10.6382C13.5525 9.5475 15.3333 9.8164 16.7099 11.2425C16.7392 11.2708 16.7625 11.305 16.7784 11.3429C16.7944 11.3808 16.8026 11.4218 16.8026 11.4631C16.8026 11.5045 16.7944 11.5454 16.7784 11.5833C16.7625 11.6213 16.7392 11.6554 16.7099 11.6837L14.7651 13.6869C14.3316 14.1371 13.7722 12.5901 13.0077 13.3848C12.5391 13.8682 12.9521 14.8955 14.1471 14.542C16.0099 14.0102 17.9928 12.6596 19.9669 14.6871C21.3347 16.0951 21.2439 17.8415 20.169 19.4157C21.4811 20.7693 21.4899 20.3735 20.169 21.7272C19.8761 22.0293 18.9974 20.9567 18.8246 20.7814C17.0379 22.12 15.1312 22.0263 13.5408 20.3705C13.5115 20.3422 13.4882 20.3081 13.4722 20.2701C13.4563 20.2322 13.4481 20.1913 13.4481 20.1499C13.4481 20.1086 13.4563 20.0677 13.4722 20.0297C13.4882 19.9918 13.5115 19.9576 13.5408 19.9294L15.4856 17.9231C15.9161 17.4759 16.4551 19.0139 17.4392 18.2766C18.3589 17.5877 17.4392 16.6964 16.7392 16.8112C15.304 17.0499 12.911 19.1136 10.6645 16.7961C9.30257 15.3911 9.44316 13.4724 10.5327 11.9617C9.36114 10.7531 9.36114 11.1277 10.6528 9.7862V9.7983Z" fill="#212121"/>
</svg>
