<svg width="37" height="36" viewBox="0 0 37 36" fill="none" xmlns="http://www.w3.org/2000/svg">
<path fill-rule="evenodd" clip-rule="evenodd" d="M18.5 0C20.9375 0 23.2607 0.486328 25.3848 1.36523L25.417 1.37988C27.6055 2.29102 29.5771 3.62402 31.2266 5.27637C32.8848 6.93164 34.2207 8.91504 35.1348 11.1211C36.0166 13.2422 36.5 15.5684 36.5 18.0029C36.5 20.4404 36.0137 22.7637 35.1348 24.8877L35.1201 24.9199C34.2061 27.1084 32.876 29.0801 31.2236 30.7295C29.5684 32.3877 27.585 33.7236 25.3789 34.6377C23.2578 35.5195 20.9316 36.0029 18.4971 36.0029C16.0625 36.0029 13.7363 35.5166 11.6123 34.6377L11.5801 34.623C9.3916 33.7119 7.41992 32.3789 5.77051 30.7295L5.77344 30.7236C4.11523 29.0654 2.7793 27.085 1.86523 24.8848C0.986328 22.7607 0.5 20.4375 0.5 18C0.5 15.5625 0.986328 13.2393 1.86523 11.1152L1.87988 11.083C2.79102 8.89453 4.12402 6.92285 5.77344 5.27344H5.77637C7.43457 3.61523 9.41504 2.2793 11.6182 1.36523C13.7393 0.486328 16.0625 0 18.5 0ZM5.47754 27.6768L5.54785 27.6357C7.27637 26.6719 11.7764 26.3525 13.6455 25.0488C13.7832 24.8438 13.9297 24.5449 14.0732 24.2197C14.2871 23.7305 14.4834 23.1943 14.6064 22.8311C14.085 22.2158 13.6367 21.5215 13.209 20.8389L11.7939 18.5859C11.2783 17.8125 11.0088 17.1094 10.9912 16.5293C10.9824 16.2568 11.0293 16.0107 11.1318 15.791C11.2373 15.5625 11.3984 15.3721 11.6182 15.2256C11.7207 15.1553 11.835 15.0967 11.9609 15.0527C11.8672 13.8311 11.835 12.293 11.8936 11.0039C11.9229 10.6992 11.9844 10.3916 12.0664 10.0869C12.4297 8.79492 13.335 7.75488 14.457 7.04004C15.0752 6.64453 15.7549 6.34863 16.4609 6.14941C16.9121 6.02051 16.0771 4.58496 16.543 4.53516C18.79 4.30371 22.4258 6.35742 23.9961 8.05371C24.7812 8.90332 25.2764 10.0313 25.3818 11.5225L25.2939 15.1963C25.6865 15.3164 25.9385 15.5654 26.0381 15.9668C26.1523 16.415 26.0293 17.042 25.6484 17.9004C25.6426 17.915 25.6338 17.9326 25.625 17.9473L24.0107 20.6045C23.4189 21.5801 22.8154 22.5615 22.0332 23.332C22.1064 23.4375 22.1797 23.54 22.25 23.6426C22.5693 24.1113 22.8916 24.5801 23.3047 24.999C23.3193 25.0137 23.3311 25.0283 23.3398 25.043C25.1973 26.3555 29.7178 26.6748 31.4521 27.6416L31.5225 27.6826C33.5352 24.9814 34.7246 21.6328 34.7246 18.0059C34.7246 13.5264 32.9082 9.46875 29.9727 6.53613C27.043 3.59766 22.9854 1.78125 18.5059 1.78125C14.0264 1.78125 9.96875 3.59766 7.03613 6.5332C4.09473 9.46289 2.27832 13.5205 2.27832 18C2.27832 21.627 3.46777 24.9756 5.47754 27.6768Z" fill="#212121"/>
</svg>
