<svg width="37" height="36" viewBox="0 0 37 36" fill="none" xmlns="http://www.w3.org/2000/svg">
<path fill-rule="evenodd" clip-rule="evenodd" d="M18.4844 0L22.4453 3.21973L27.4844 2.41113L29.3037 7.18066L34.0733 9L33.2647 14.0391L36.4844 18L33.2647 21.9609L34.0733 27L29.3037 28.8193L27.4844 33.5889L22.4453 32.7803L18.4844 36L14.5235 32.7803L9.48438 33.5889L7.66503 28.8193L2.8955 27L3.7041 21.9609L0.484375 18L3.7041 14.0391L2.8955 9L7.66503 7.18066L9.48438 2.41113L14.5235 3.21973L18.4844 0ZM18.4844 11.584L20.3418 16.1221L25.2315 16.4854L21.4903 19.6553L22.6563 24.4189L18.4873 21.8379L14.3184 24.4189L15.4844 19.6553L11.7373 16.4854L16.627 16.1221L18.4844 11.584ZM18.4844 7.82519C24.1035 7.82519 28.6592 12.3809 28.6592 18C28.6592 23.6191 24.1035 28.1748 18.4844 28.1748C12.8653 28.1748 8.30957 23.6191 8.30957 18C8.30957 12.3809 12.8653 7.82519 18.4844 7.82519Z" fill="#212121"/>
</svg>
