<svg width="36" height="36" viewBox="0 0 36 36" fill="none" xmlns="http://www.w3.org/2000/svg">
<path fill-rule="evenodd" clip-rule="evenodd" d="M6.50809 0H29.784C30.3302 0 30.7741 0.448242 30.7741 0.996094C30.7741 1.54395 30.3273 1.99219 29.784 1.99219H6.50809C5.9619 1.99219 5.51794 1.54395 5.51794 0.996094C5.51502 0.448242 5.9619 0 6.50809 0ZM35.1349 12.6475V13.8486C35.1466 13.9629 35.1524 14.0771 35.1524 14.1914C35.1524 16.207 33.2743 17.8418 30.9581 17.8418C28.6419 17.8418 26.7639 16.207 26.7639 14.1914C26.7639 14.1064 26.7668 14.0186 26.7726 13.9336H26.6061C26.612 14.0186 26.6149 14.1035 26.6149 14.1914C26.6149 16.207 24.7368 17.8418 22.4206 17.8418C20.1044 17.8418 18.2264 16.207 18.2264 14.1914C18.2264 14.1064 18.2293 14.0186 18.2351 13.9336H18.0686C18.0745 14.0186 18.0774 14.1035 18.0774 14.1914C18.0774 16.207 16.1993 17.8418 13.8831 17.8418C11.5669 17.8418 9.68885 16.207 9.68885 14.1914C9.68885 14.1064 9.69177 14.0186 9.69761 13.9336H9.59246C9.5983 14.0186 9.60123 14.1035 9.60123 14.1914C9.60123 16.207 7.72315 17.8418 5.40695 17.8418C3.09075 17.8418 1.21268 16.207 1.21268 14.1914C1.21268 14.0918 1.21852 13.9951 1.22728 13.8984V12.6475H35.1349ZM5.41863 3.05859H31.0166L34.2791 10.0459H2.03634L5.41863 3.05859ZM1.49015 31.6436H5.03017V20.4229C5.08858 20.4258 5.147 20.4287 5.20542 20.4287H5.22002H5.2872H5.29888H5.30764H5.35438H5.36314H5.40403V20.4375H5.40695V20.4287C7.00755 20.4287 8.4884 19.916 9.64212 19.0664L9.65088 19.0723L9.65964 19.0781L9.6684 19.084L9.67717 19.0898L9.68593 19.0957L9.69469 19.1016L9.69761 19.1045L9.70345 19.1074L9.71222 19.1133L9.72098 19.1191L9.72974 19.125H9.73266L9.76187 19.1455L9.77063 19.1514L9.77355 19.1543L9.78816 19.1631L9.79692 19.1689L9.80568 19.1748L9.8086 19.1777L9.81444 19.1807L9.82321 19.1865L9.83197 19.1924L9.84073 19.1982L9.84657 19.2158L9.85534 19.2217L9.86118 19.2275L9.86994 19.2334L9.8787 19.2393L9.88746 19.2451L9.89623 19.251L9.90499 19.2568L9.91375 19.2627H9.91667L9.98385 19.3066L9.99261 19.3125L10.0014 19.3184L10.054 19.3535L10.0627 19.3594L10.127 19.3975L10.1386 19.4004L10.1474 19.4062L10.1562 19.4121L10.1649 19.418L10.1737 19.4238L10.1825 19.4297L10.1912 19.4355L10.2 19.4414V26.7949H25.7912V19.6084C26.0424 19.4766 26.2878 19.3271 26.5185 19.166L26.5244 19.1602H26.5273L26.574 19.1279L26.5769 19.125L26.5915 19.1162L26.6061 19.1074L26.6295 19.0898H26.6324L26.6354 19.0869L26.685 19.0518C27.8446 19.916 29.3371 20.4375 30.9523 20.4375V20.4463H30.9552V20.4375H30.964V31.6494H34.504C35.0502 31.6494 35.4971 32.6279 35.4971 33.8262C35.4971 35.0244 35.0502 36.0029 34.504 36.0029H1.49015C0.946883 36.0029 0.5 35.0244 0.5 33.8262C0.5 32.625 0.946883 31.6436 1.49015 31.6436Z" fill="#212121"/>
</svg>
