<svg width="38" height="55" viewBox="0 0 38 55" fill="none" xmlns="http://www.w3.org/2000/svg">
<g clip-path="url(#clip0_8_30621)">
<path d="M-9.5 0H47.5153V55H-9.5V0Z" fill="#C8102E"/>
<mask id="mask0_8_30621" style="mask-type:luminance" maskUnits="userSpaceOnUse" x="-10" y="0" width="58" height="55">
<path d="M-9.5 0H47.5153V55H-9.5V0Z" fill="white"/>
</mask>
<g mask="url(#mask0_8_30621)">
<path d="M-12.3496 -2.75V57.75L50.3672 -2.75V57.75L-12.3496 -2.75Z" fill="#43B02A" stroke="white" stroke-width="5.06032"/>
</g>
<path d="M18.9327 43.1423C24.8789 43.1423 29.6993 36.1654 29.6993 27.5589C29.6993 18.9525 24.8789 11.9756 18.9327 11.9756C12.9864 11.9756 8.16602 18.9525 8.16602 27.5589C8.16602 36.1654 12.9864 43.1423 18.9327 43.1423Z" fill="white"/>
<path d="M18.9904 16.5991L19.656 18.2675H20.9867L20.3217 19.9358L20.9867 21.6041H19.656L18.9904 23.2725L18.3248 21.6041H16.9941L17.6591 19.9358L16.9941 18.2675H18.3248L18.9904 16.5991Z" fill="#C8102E" stroke="#43B02A" stroke-width="0.24"/>
<path d="M25.8134 33.7039L24.4823 33.7041L23.817 35.372L23.1513 33.7042L21.8205 33.7036L22.4859 32.0357L21.8204 30.3672L23.1515 30.3671L23.8168 28.6992L24.4825 30.3669L25.8133 30.3675L25.148 32.0354L25.8134 33.7039Z" fill="#C8102E" stroke="#43B02A" stroke-width="0.24"/>
<path d="M12.1659 33.7038L12.8314 32.0353L12.166 30.3674L13.4968 30.3668L14.1625 28.6991L14.8278 30.367L16.1589 30.3672L15.4935 32.0357L16.1588 33.7036L14.828 33.7042L14.1623 35.3719L13.497 33.704L12.1659 33.7038Z" fill="#C8102E" stroke="#43B02A" stroke-width="0.24"/>
</g>
<defs>
<clipPath id="clip0_8_30621">
<rect width="38" height="55" rx="19" fill="white"/>
</clipPath>
</defs>
</svg>
