<svg width="37" height="57" viewBox="0 0 37 57" fill="none" xmlns="http://www.w3.org/2000/svg">
<g clip-path="url(#clip0_8_30931)">
<rect width="37" height="57" rx="18.5" fill="#003893"/>
<path d="M-4.625 4.2749H42.55V52.7249H-4.625V4.2749Z" fill="#003893"/>
<path d="M-4.625 28.5H42.55V40.6125H-4.625V28.5Z" fill="white"/>
<path d="M-4.625 32.5381H42.5578V36.5756H-4.625V32.5381Z" fill="#CF2027"/>
<path d="M15.4287 20.0195L14.9428 22.3235L15.6905 22.6978" fill="#F7D116"/>
<path d="M15.4287 20.0195L15.9146 22.3235L15.1669 22.6978" fill="#F7D116"/>
<path d="M16.9229 21.6938L15.4177 21.9169L15.3504 22.9051" fill="#F7D116"/>
<path d="M16.9229 21.5664L15.5866 23.1178L15.1885 22.2654" fill="#F7D116"/>
<path d="M16.3525 24.3359L15.929 22.0989L15.1188 22.5401" fill="#F7D116"/>
<path d="M16.3096 24.4028L15.0803 23.0552L15.5853 21.999" fill="#F7D116"/>
<path d="M14.5469 24.4023L15.7762 23.0547L15.2711 21.9985" fill="#F7D116"/>
<path d="M14.5049 24.3354L14.9284 22.0984L15.7386 22.5396" fill="#F7D116"/>
<path d="M13.9307 21.5669L15.2669 23.1183L15.665 22.2659" fill="#F7D116"/>
<path d="M13.9307 21.6943L15.4358 21.9174L15.5032 22.9056" fill="#F7D116"/>
<path d="M15.4287 44.2446L14.9428 46.5486L15.6905 46.9229" fill="#F7D116"/>
<path d="M15.4287 44.2446L15.9146 46.5486L15.1669 46.9229" fill="#F7D116"/>
<path d="M16.9229 45.9189L15.4177 46.142L15.3504 47.1302" fill="#F7D116"/>
<path d="M16.9229 45.7915L15.5866 47.3429L15.1885 46.4905" fill="#F7D116"/>
<path d="M16.3525 48.561L15.929 46.324L15.1188 46.7652" fill="#F7D116"/>
<path d="M16.3096 48.6279L15.0803 47.2803L15.5853 46.2241" fill="#F7D116"/>
<path d="M14.5469 48.6274L15.7762 47.2798L15.2711 46.2236" fill="#F7D116"/>
<path d="M14.5049 48.5605L14.9284 46.3235L15.7386 46.7647" fill="#F7D116"/>
<path d="M13.9307 45.792L15.2669 47.3434L15.665 46.491" fill="#F7D116"/>
<path d="M13.9307 45.9194L15.4358 46.1425L15.5032 47.1307" fill="#F7D116"/>
<path d="M24.3994 30.063L22.9223 30.396L22.8269 31.2742" fill="#F7D116"/>
<path d="M24.3994 29.8589L23.0344 31.4871L22.6651 30.7115" fill="#F7D116"/>
<path d="M23.8252 32.5698L23.5006 30.4684L22.5915 31.0453" fill="#F7D116"/>
<path d="M23.7207 32.7725L22.5538 31.5924L23.1212 30.3686" fill="#F7D116"/>
<path d="M21.9258 32.7715L23.2513 31.2088L22.8425 30.3677" fill="#F7D116"/>
<path d="M21.9795 32.9019L22.5373 30.4675L23.2132 30.7114" fill="#F7D116"/>
<path d="M21.4072 30.1851L22.6689 31.487L23.1416 30.3851" fill="#F7D116"/>
<path d="M21.4199 30.2603L22.9805 30.0627L22.9685 31.0763" fill="#F7D116"/>
<path d="M23 28.3882L22.4194 30.9013L23.0724 31.0664" fill="#F7D116"/>
<path d="M23.0166 28.3882L23.3914 30.4813L22.5325 31.0664" fill="#F7D116"/>
<path d="M9.44141 37.5483L7.96431 37.8813L7.86891 38.7596" fill="#F7D116"/>
<path d="M9.44141 37.3442L8.0764 38.9725L7.70708 38.1969" fill="#F7D116"/>
<path d="M8.86914 40.0542L8.54459 37.9528L7.63544 38.5297" fill="#F7D116"/>
<path d="M8.76465 40.2568L7.59771 39.0767L8.1651 37.853" fill="#F7D116"/>
<path d="M6.96973 40.2573L8.29524 38.6946L7.88643 37.8535" fill="#F7D116"/>
<path d="M7.02344 40.3877L7.58127 37.9534L8.25713 38.1972" fill="#F7D116"/>
<path d="M6.45215 37.6704L7.71379 38.9724L8.18647 37.8705" fill="#F7D116"/>
<path d="M6.46484 37.7456L8.02538 37.548L8.01342 38.5617" fill="#F7D116"/>
<path d="M8.04395 35.874L7.46331 38.3872L8.11637 38.5523" fill="#F7D116"/>
<path d="M8.06055 35.874L8.43534 37.9672L7.57644 38.5523" fill="#F7D116"/>
<path d="M20.9727 46.2451L20.5524 44.0115L19.739 44.4562" fill="#F7D116"/>
<path d="M20.9277 46.3154L19.7006 44.9719L20.2079 43.9116" fill="#F7D116"/>
<path d="M19.085 46.3145L20.3965 44.8217L19.9737 43.9106" fill="#F7D116"/>
<path d="M19.124 46.3779L19.6636 44.0108L20.3577 44.3219" fill="#F7D116"/>
<path d="M18.5508 43.6636L19.7947 45.0307L20.2851 43.994" fill="#F7D116"/>
<path d="M18.5811 43.709L20.1236 43.6067L20.0936 44.7156" fill="#F7D116"/>
<path d="M20.1064 41.9326L19.5628 44.3083L20.2529 44.6108" fill="#F7D116"/>
<path d="M20.1123 41.9326L20.5348 44.1642L19.7235 44.6108" fill="#F7D116"/>
<path d="M21.5449 43.6074L20.0125 43.7234L19.9724 44.8187" fill="#F7D116"/>
<path d="M21.5449 43.5449L20.2354 45.031L19.8106 44.1133" fill="#F7D116"/>
<path d="M11.7314 26.6475L11.3112 24.4139L10.4977 24.8585" fill="#F7D116"/>
<path d="M11.6865 26.7178L10.4594 25.3742L10.9667 24.3139" fill="#F7D116"/>
<path d="M9.8418 26.7163L11.1533 25.2235L10.7306 24.3125" fill="#F7D116"/>
<path d="M9.88086 26.7798L10.4205 24.4127L11.1146 24.7238" fill="#F7D116"/>
<path d="M9.30957 24.0596L10.5534 25.4267L11.0439 24.39" fill="#F7D116"/>
<path d="M9.33984 24.105L10.8824 24.0026L10.8524 25.1116" fill="#F7D116"/>
<path d="M10.8652 22.3354L10.3216 24.7111L11.0117 25.0137" fill="#F7D116"/>
<path d="M10.8711 22.3354L11.2936 24.567L10.4823 25.0137" fill="#F7D116"/>
<path d="M12.3047 24.0098L10.7722 24.1257L10.7322 25.221" fill="#F7D116"/>
<path d="M12.3047 23.9473L10.9952 25.4334L10.5704 24.5157" fill="#F7D116"/>
<path d="M9.92969 46.3154L11.1568 44.9719L10.6496 43.9116" fill="#F7D116"/>
<path d="M9.88477 46.2451L10.305 44.0115L11.1185 44.4562" fill="#F7D116"/>
<path d="M9.31055 43.5376L10.6201 45.0237L11.0449 44.106" fill="#F7D116"/>
<path d="M9.31055 43.6001L10.843 43.7161L10.883 44.8113" fill="#F7D116"/>
<path d="M10.7451 41.9331L10.3226 44.1647L11.1339 44.6113" fill="#F7D116"/>
<path d="M10.751 41.9331L11.2946 44.3088L10.6045 44.6113" fill="#F7D116"/>
<path d="M12.2744 43.709L10.7319 43.6067L10.7619 44.7156" fill="#F7D116"/>
<path d="M12.3047 43.6636L11.0608 45.0307L10.5704 43.994" fill="#F7D116"/>
<path d="M11.7344 46.3794L11.1948 44.0123L10.5007 44.3234" fill="#F7D116"/>
<path d="M11.7744 46.3159L10.4629 44.8231L10.8856 43.9121" fill="#F7D116"/>
<path d="M19.1748 26.7104L20.4019 25.3669L19.8947 24.3066" fill="#F7D116"/>
<path d="M19.1299 26.6401L19.5501 24.4066L20.3636 24.8512" fill="#F7D116"/>
<path d="M18.5557 23.9395L19.8652 25.4256L20.29 24.5079" fill="#F7D116"/>
<path d="M18.5557 24.002L20.0881 24.1179L20.1282 25.2132" fill="#F7D116"/>
<path d="M19.9883 22.3296L19.5658 24.5612L20.377 25.0078" fill="#F7D116"/>
<path d="M19.9941 22.3296L20.5378 24.7052L19.8477 25.0078" fill="#F7D116"/>
<path d="M21.5166 24.1104L19.9741 24.008L20.0041 25.1169" fill="#F7D116"/>
<path d="M21.5469 24.0649L20.303 25.4321L19.8125 24.3954" fill="#F7D116"/>
<path d="M20.9775 26.7749L20.4379 24.4078L19.7438 24.7189" fill="#F7D116"/>
<path d="M21.0176 26.7114L19.706 25.2186L20.1288 24.3076" fill="#F7D116"/>
<path d="M6.45215 29.8638L7.81715 31.492L8.18647 30.7164" fill="#F7D116"/>
<path d="M6.45215 30.0684L7.92924 30.4014L8.02465 31.2796" fill="#F7D116"/>
<path d="M7.83984 28.3945L7.46505 30.4877L8.32395 31.0728" fill="#F7D116"/>
<path d="M7.85645 28.3945L8.43708 30.9077L7.78402 31.0728" fill="#F7D116"/>
<path d="M9.42969 30.2666L7.86915 30.069L7.88111 31.0827" fill="#F7D116"/>
<path d="M9.44141 30.1909L8.17977 31.4929L7.70708 30.391" fill="#F7D116"/>
<path d="M8.86914 32.9067L8.31131 30.4724L7.63544 30.7163" fill="#F7D116"/>
<path d="M8.92188 32.7764L7.59636 31.2136L8.00517 30.3725" fill="#F7D116"/>
<path d="M7.12988 32.7759L8.29682 31.5958L7.72943 30.372" fill="#F7D116"/>
<path d="M7.02441 32.5732L7.34897 30.4719L8.25811 31.0487" fill="#F7D116"/>
<path d="M21.4062 37.3506L22.7713 38.9788L23.1406 38.2032" fill="#F7D116"/>
<path d="M21.4062 37.5552L22.8833 37.8882L22.9787 38.7664" fill="#F7D116"/>
<path d="M22.792 35.8809L22.4172 37.974L23.2761 38.5591" fill="#F7D116"/>
<path d="M22.8086 35.8809L23.3892 38.394L22.7362 38.5591" fill="#F7D116"/>
<path d="M24.3857 37.7524L22.8252 37.5549L22.8372 38.5685" fill="#F7D116"/>
<path d="M24.3975 37.6768L23.1358 38.9787L22.6631 37.8768" fill="#F7D116"/>
<path d="M23.8252 40.3945L23.2674 37.9602L22.5915 38.2041" fill="#F7D116"/>
<path d="M23.8779 40.2642L22.5524 38.7014L22.9612 37.8603" fill="#F7D116"/>
<path d="M22.084 40.2627L23.2509 39.0826L22.6835 37.8589" fill="#F7D116"/>
<path d="M21.9785 40.0601L22.3031 37.9587L23.2122 38.5355" fill="#F7D116"/>
</g>
<defs>
<clipPath id="clip0_8_30931">
<rect width="37" height="57" rx="18.5" fill="white"/>
</clipPath>
</defs>
</svg>
