<svg width="38" height="55" viewBox="0 0 38 55" fill="none" xmlns="http://www.w3.org/2000/svg">
<g clip-path="url(#clip0_8_30750)">
<rect width="38" height="55" rx="19" fill="#3E5EB9"/>
<path d="M-0.950195 8.25H38.9498V46.75H-0.950195V8.25Z" fill="#3E5EB9"/>
<path d="M-0.950195 15.4688H38.9498V39.5312H-0.950195V15.4688Z" fill="#FFD900"/>
<path d="M-0.950195 17.875H38.9498V37.125H-0.950195V17.875Z" fill="#B10C0C"/>
<path d="M31.8239 23.0996L30.209 23.9246L31.8239 24.7495L33.4389 23.9246L31.8239 23.0996Z" fill="white" stroke="black" stroke-width="0.07056"/>
<path d="M30.7623 23.6499H7.42628C7.3122 23.6499 7.21973 23.773 7.21973 23.9249C7.21973 24.0768 7.3122 24.1999 7.42628 24.1999H30.7623C30.8764 24.1999 30.9689 24.0768 30.9689 23.9249C30.9689 23.773 30.8764 23.6499 30.7623 23.6499Z" fill="#FFD900" stroke="black" stroke-width="0.07056"/>
<path d="M30.4019 24.2004C30.4968 24.2004 30.592 24.0628 30.592 23.9254C30.592 23.7879 30.4968 23.6504 30.4019 23.6504M30.2117 24.2004C30.3066 24.2004 30.4018 24.0628 30.4018 23.9254C30.4018 23.7879 30.3066 23.6504 30.2117 23.6504M30.0215 24.2004C30.1164 24.2004 30.2116 24.0628 30.2116 23.9254C30.2116 23.7879 30.1164 23.6504 30.0216 23.6504" fill="#FFD900"/>
<path d="M30.4019 24.2004C30.4968 24.2004 30.592 24.0628 30.592 23.9254C30.592 23.7879 30.4968 23.6504 30.4019 23.6504M30.2117 24.2004C30.3066 24.2004 30.4018 24.0628 30.4018 23.9254C30.4018 23.7879 30.3066 23.6504 30.2117 23.6504M30.0215 24.2004C30.1164 24.2004 30.2116 24.0628 30.2116 23.9254C30.2116 23.7879 30.1164 23.6504 30.0216 23.6504" stroke="black" stroke-width="0.07056"/>
<path d="M30.2761 24.7505L28.6611 25.5754L30.2761 26.4004L31.891 25.5754L30.2761 24.7505Z" fill="white" stroke="black" stroke-width="0.07056"/>
<path d="M29.2145 25.3018H5.87842C5.76435 25.3018 5.67188 25.4249 5.67188 25.5767C5.67188 25.7286 5.76435 25.8517 5.87842 25.8517H29.2145C29.3285 25.8517 29.421 25.7286 29.421 25.5767C29.421 25.4249 29.3285 25.3018 29.2145 25.3018Z" fill="#FFD900" stroke="black" stroke-width="0.07056"/>
<path d="M28.854 25.8508C28.9489 25.8508 29.0441 25.7132 29.0441 25.5758C29.0441 25.4383 28.949 25.3008 28.8541 25.3008M28.6638 25.8508C28.7587 25.8508 28.8539 25.7132 28.8539 25.5758C28.8539 25.4383 28.7588 25.3008 28.6639 25.3008M28.4736 25.8508C28.5685 25.8508 28.6638 25.7132 28.6638 25.5758C28.6638 25.4383 28.5686 25.3008 28.4737 25.3008" fill="#FFD900"/>
<path d="M28.854 25.8508C28.9489 25.8508 29.0441 25.7132 29.0441 25.5758C29.0441 25.4383 28.949 25.3008 28.8541 25.3008M28.6638 25.8508C28.7587 25.8508 28.8539 25.7132 28.8539 25.5758C28.8539 25.4383 28.7588 25.3008 28.6639 25.3008M28.4736 25.8508C28.5685 25.8508 28.6638 25.7132 28.6638 25.5758C28.6638 25.4383 28.5686 25.3008 28.4737 25.3008" stroke="black" stroke-width="0.07056"/>
<path d="M35.0465 27.0884H3.30922C3.15408 27.0884 3.02832 27.2731 3.02832 27.5009C3.02832 27.7287 3.15408 27.9133 3.30922 27.9133H35.0465C35.2016 27.9133 35.3274 27.7287 35.3274 27.5009C35.3274 27.2731 35.2016 27.0884 35.0465 27.0884Z" fill="#FFD900" stroke="black" stroke-width="0.0756"/>
<path d="M28.5004 27.5002C26.6004 30.2499 24.067 35.7498 19.0002 35.7498C14.5668 35.7498 11.4006 30.25 9.5 27.5002C11.4 24.7499 14.5665 19.25 19.0002 19.25C24.0667 19.25 26.5998 24.7499 28.5004 27.5002Z" fill="white" stroke="black" stroke-width="0.07056"/>
<path d="M18.3365 22.1198C18.842 22.9426 18.4199 23.2744 18.9549 23.3284C19.5192 23.3884 19.1993 24.1979 19.6739 24.2261C20.0058 24.2471 19.6408 26.1656 19.9602 26.7987C20.2856 27.4587 20.5581 26.9921 20.5638 27.4689C20.5695 27.9621 19.6782 27.9123 19.6626 29.4314C19.6365 30.3069 18.9105 30.3629 18.8758 30.9263C18.8327 31.4561 20.3061 31.7535 20.2864 32.2279C20.2662 32.7008 18.6956 32.6267 18.6272 33.166C18.5922 33.6505 20.7849 34.0475 20.9612 35.4485C20.6341 35.6033 19.7031 35.7491 18.9995 35.7498C14.5669 35.7545 11.3999 30.2495 9.5 27.4997C11.4 24.7495 14.5665 19.2495 19.0002 19.2495C19.0002 19.2495 17.6842 20.9899 18.3371 22.1192L18.3365 22.1198Z" fill="black"/>
<path d="M13.2725 26.7669V24.5669V26.7669ZM14.1935 24.5669V26.7669V24.5669ZM15.1152 24.5669V26.7669V24.5669Z" fill="black"/>
<path d="M13.2725 26.7669V24.5669M14.1935 24.5669V26.7669M15.1152 24.5669V26.7669" stroke="white" stroke-width="0.48489"/>
<path d="M13.2725 30.4339V28.2339V30.4339ZM14.1935 28.2339V30.4339V28.2339ZM15.1152 28.2339V30.4339V28.2339Z" fill="black"/>
<path d="M13.2725 30.4339V28.2339M14.1935 28.2339V30.4339M15.1152 28.2339V30.4339" stroke="white" stroke-width="0.48489"/>
<path d="M16.0371 26.7669V24.5669V26.7669ZM16.9581 24.5669V26.7669V24.5669ZM17.8798 24.5669V26.7669V24.5669Z" fill="black"/>
<path d="M16.0371 26.7669V24.5669M16.9581 24.5669V26.7669M17.8798 24.5669V26.7669" stroke="white" stroke-width="0.48489"/>
<path d="M16.0371 30.4344V28.2344V30.4344ZM16.9581 28.2344V30.4344V28.2344ZM17.8798 28.2344V30.4344V28.2344Z" fill="black"/>
<path d="M16.0371 30.4344V28.2344M16.9581 28.2344V30.4344M17.8798 28.2344V30.4344" stroke="white" stroke-width="0.48489"/>
<path d="M20.2432 26.7659V24.5659V26.7659ZM21.1642 24.5659V26.7659V24.5659ZM22.0859 24.5659V26.7659V24.5659Z" fill="black"/>
<path d="M20.2432 26.7659V24.5659M21.1642 24.5659V26.7659M22.0859 24.5659V26.7659" stroke="black" stroke-width="0.48489"/>
<path d="M20.2432 30.4329V28.2329V30.4329ZM21.1642 28.2329V30.4329V28.2329ZM22.0859 28.2329V30.4329V28.2329Z" fill="black"/>
<path d="M20.2432 30.4329V28.2329M21.1642 28.2329V30.4329M22.0859 28.2329V30.4329" stroke="black" stroke-width="0.48489"/>
<path d="M23.0059 26.7659V24.5659V26.7659ZM23.9269 24.5659V26.7659V24.5659ZM24.8486 24.5659V26.7659V24.5659Z" fill="black"/>
<path d="M23.0059 26.7659V24.5659M23.9269 24.5659V26.7659M24.8486 24.5659V26.7659" stroke="black" stroke-width="0.48489"/>
<path d="M23.0059 30.4329V28.2329V30.4329ZM23.9269 28.2329V30.4329V28.2329ZM24.8486 28.2329V30.4329V28.2329Z" fill="black"/>
<path d="M23.0059 30.4329V28.2329M23.9269 28.2329V30.4329M24.8486 28.2329V30.4329" stroke="black" stroke-width="0.48489"/>
<path d="M33.0564 27.1729C32.7686 27.8943 33.2772 26.9329 34.5184 28.1407C34.7484 28.3651 34.9494 28.9578 34.9494 29.3688C34.891 29.3123 34.8476 29.1865 34.7833 29.1048C34.6933 29.2354 34.8693 29.8341 34.8951 30.117C34.701 29.9599 34.7197 29.8854 34.6552 29.6923C34.6681 29.9258 34.6219 30.5688 34.6991 30.8165C34.5461 30.7532 34.5563 30.5751 34.4765 30.5393C34.5308 30.8196 34.4292 31.1246 34.4561 31.4397C34.3668 31.3117 34.2715 31.2114 34.23 31.1597C34.223 31.3097 34.0581 31.7041 34.0544 31.846C33.9786 31.7797 33.958 31.6763 33.9453 31.6067C33.8511 31.7781 33.5162 32.4112 33.4947 32.6042C33.2366 32.2743 32.5754 31.4709 32.4894 31.0444C32.4133 31.2864 32.3032 31.3682 32.0855 31.5449C31.9996 30.869 31.6779 30.1094 31.8499 29.53C31.728 29.6346 31.6277 29.7393 31.5059 29.868C31.6213 28.8891 32.2099 27.7413 33.0566 27.1729H33.0564Z" fill="#3D5DA7" stroke="black" stroke-width="0.05985"/>
<path d="M31.9834 30.7457C32.1029 30.4 32.213 30.2904 32.2902 30.0677C32.4266 29.6765 32.446 29.3652 32.5649 29.4108C32.6837 29.4564 32.6836 29.6167 32.5296 30.0014C32.3757 30.3861 32.3025 30.4683 31.9834 30.7457ZM32.7914 31.5696C32.776 31.3064 32.8287 31.1964 32.8192 31.027C32.8028 30.7287 32.7185 30.524 32.8281 30.5094C32.9377 30.4949 32.9889 30.5967 32.9892 30.8972C32.9895 31.1979 32.9574 31.2768 32.7915 31.5697L32.7914 31.5696ZM33.4045 32.0855C33.3566 31.7181 33.3925 31.5551 33.3618 31.3183C33.3085 30.9017 33.203 30.6275 33.3045 30.5894C33.406 30.5513 33.4674 30.6861 33.5058 31.1085C33.5442 31.5309 33.5239 31.647 33.4045 32.0855ZM34.0422 29.5108C33.8925 29.3463 33.8051 29.3353 33.7085 29.2296C33.5384 29.0442 33.4524 28.8456 33.3976 28.9441C33.3429 29.0427 33.3818 29.1505 33.56 29.3216C33.7382 29.4928 33.7986 29.5062 34.0422 29.5108ZM33.9365 30.7303C33.8576 30.4931 33.7745 30.4329 33.7234 30.2803C33.6332 30.0121 33.6331 29.78 33.5352 29.8394C33.4373 29.8989 33.4295 30.0204 33.5341 30.2801C33.6388 30.5397 33.6936 30.5867 33.9365 30.7303Z" fill="#B3B3B3"/>
<path d="M4.42358 27.8674C4.40749 27.6573 4.43857 27.6322 4.34924 27.4738C4.47926 27.5525 4.48419 27.7617 4.64228 27.6133C4.70031 27.5697 4.72563 27.5683 4.65509 27.335C4.81992 27.3461 5.35972 27.614 5.44618 27.6201C5.67316 27.6353 6.0875 27.275 6.37509 27.718C6.65115 28.1218 6.55899 28.541 6.55899 29.1003C6.44806 29.0234 6.50153 28.9855 6.38382 28.7854C6.47205 29.2743 6.37913 30.1558 6.37913 30.6743C6.33382 30.5493 6.34047 30.6035 6.29618 30.4741C6.17847 30.9473 6.0374 31.0447 6.0374 31.604C5.99493 31.3847 6.03594 31.431 5.98868 31.3157C5.8743 31.675 5.10689 31.982 5.4026 32.3442C5.13571 32.1177 5.01867 32.1415 4.89764 31.9378C4.84546 31.9865 4.80405 32.0787 4.75555 32.205C4.28628 31.8925 4.45408 31.2185 4.08643 30.7682C4.02281 30.957 4.0518 30.9296 3.98304 31.2369C3.90861 30.8101 3.88826 30.5389 3.80456 30.2252C3.73234 30.399 3.73876 30.3324 3.60763 30.5953C3.55336 30.0754 3.46505 29.9527 3.49999 29.6087C3.3606 29.751 3.45184 29.6934 3.3125 29.8686C3.44452 28.5365 4.01461 27.5521 4.42372 27.8674L4.42358 27.8674Z" fill="#3D5DA7" stroke="black" stroke-width="0.07469"/>
<path d="M3.84668 30.0425C3.96762 29.6136 4.07659 29.4789 4.15475 29.2028C4.29272 28.7175 4.31519 28.3295 4.43108 28.3887C4.54701 28.4479 4.54515 28.6478 4.39007 29.1245C4.235 29.6015 4.16242 29.7025 3.84668 30.0424V30.0425ZM4.30447 31.1157C4.35297 30.7312 4.42944 30.5911 4.46087 30.3435C4.51669 29.9081 4.48557 29.5838 4.5933 29.6009C4.70103 29.618 4.72537 29.7824 4.65368 30.2155C4.58199 30.6487 4.53256 30.7512 4.30447 31.1157ZM4.85203 31.8616C4.86568 31.4888 4.92606 31.3433 4.93511 31.1032C4.95147 30.6808 4.8953 30.3785 4.99802 30.3768C5.10074 30.3751 5.13736 30.527 5.10588 30.9497C5.0744 31.3726 5.03641 31.4781 4.85203 31.8616ZM6.02784 29.4236C5.80302 29.0994 5.66709 29.0389 5.52204 28.8304C5.26654 28.4643 5.14312 28.1204 5.05215 28.2423C4.96117 28.3642 5.01593 28.5468 5.2849 28.8953C5.55391 29.2437 5.64746 29.2945 6.02784 29.4236ZM5.89084 30.6768C5.74441 30.3513 5.63695 30.2669 5.54238 30.0575C5.37569 29.6895 5.31832 29.3732 5.22385 29.4515C5.12929 29.5299 5.15043 29.6951 5.33114 30.0519C5.51179 30.4086 5.58446 30.4743 5.89084 30.6769V30.6768Z" fill="#B3B3B3"/>
<path d="M15.9298 20.7144C15.6666 21.4511 16.3906 20.4693 17.5256 21.7028C17.736 21.9319 18.0375 22.8372 18.0375 23.2569C17.7958 23.1825 17.3679 22.8372 17.3679 22.8372C17.3679 22.8372 17.8701 23.5653 17.8701 24.4046C17.6927 24.244 17.6039 24.2681 17.5449 24.071C17.5449 24.3427 17.7027 24.5158 17.7027 24.9355C17.5948 24.81 17.4794 24.6985 17.3578 24.6025C17.5252 25.0221 17.0528 25.8362 17.2892 26.1079C16.8757 26.0214 16.4527 25.639 16.2853 25.2194C16.1966 25.3059 16.1869 25.4418 16.1835 25.5866C16.1965 25.6023 15.554 24.8964 15.6131 24.6253C15.5269 24.8002 15.5148 24.8964 15.4951 25.0937C15.2591 24.7568 15.0428 24.4199 14.9641 23.9844C14.8592 24.1815 14.8526 24.1815 14.7477 24.3788C14.6691 23.6885 14.6691 23.7132 14.8264 23.1216C14.7149 23.2285 14.6232 23.3353 14.5117 23.4668C14.6172 22.4673 15.1556 21.2951 15.9299 20.7146L15.9298 20.7144Z" fill="#3D5DA7" stroke="black" stroke-width="0.05782"/>
<path d="M15.2803 24.3142C15.3224 23.8065 15.4141 23.6152 15.4415 23.2883C15.4904 22.7133 15.4323 22.293 15.5731 22.3037C15.7139 22.3143 15.7545 22.5263 15.6849 23.1002C15.6153 23.6739 15.5566 23.8133 15.2803 24.3142ZM16.0151 25.244C15.9866 24.8157 16.0413 24.6333 16.0231 24.3573C15.9918 23.8718 15.8882 23.543 16.0109 23.5128C16.1336 23.4825 16.1957 23.6454 16.2089 24.1356C16.2221 24.6258 16.1893 24.7564 16.0151 25.244H16.0151ZM17.1622 26.0024C17.0375 25.6317 16.9303 25.5212 16.8498 25.2827C16.7075 24.8634 16.6777 24.521 16.5681 24.583C16.4583 24.6451 16.4644 24.8222 16.6229 25.2326C16.7813 25.643 16.853 25.7268 17.1622 26.0024ZM17.5592 22.6828C17.2415 22.4407 17.0783 22.4376 16.8736 22.282C16.513 22.0093 16.3031 21.7012 16.2287 21.8708C16.1541 22.0404 16.2536 22.209 16.6253 22.457C16.997 22.7049 17.1112 22.7166 17.5593 22.6828H17.5592ZM17.6756 24.0697C17.4443 23.7912 17.3075 23.7502 17.1582 23.571C16.8953 23.2565 16.7646 22.9476 16.6767 23.0729C16.5889 23.1981 16.6476 23.3634 16.9235 23.6597C17.1994 23.956 17.2938 23.9927 17.6756 24.0697Z" fill="#B3B3B3"/>
</g>
<defs>
<clipPath id="clip0_8_30750">
<rect width="38" height="55" rx="19" fill="white"/>
</clipPath>
</defs>
</svg>
