<svg width="37" height="55" viewBox="0 0 37 55" fill="none" xmlns="http://www.w3.org/2000/svg">
<g clip-path="url(#clip0_8_30872)">
<path d="M0 0H55.5V55H0V0Z" fill="#006400"/>
<path d="M0 7.85742H55.5076V47.1431H0V7.85742Z" fill="#FFD200"/>
<path d="M0 15.7144H55.5076V39.2858H0V15.7144Z" fill="#D40000"/>
<path d="M0 23.5718H55.5057V31.4289H0V23.5718Z" fill="black"/>
<mask id="mask0_8_30872" style="mask-type:luminance" maskUnits="userSpaceOnUse" x="0" y="0" width="74" height="55">
<path d="M0 0H74V55H0V0Z" fill="white"/>
</mask>
<g mask="url(#mask0_8_30872)">
<path d="M0 0V55L24.6667 27.5L0 0Z" fill="black" stroke="black" stroke-width="1.90476"/>
</g>
<path d="M0 0V55L24.6667 27.5L0 0Z" fill="white"/>
<path d="M9.38268 13.6733L14.2684 36.025L1.47754 22.2109H17.2879L4.49703 36.025L9.38268 13.6733Z" fill="#D40000"/>
<path fill-rule="evenodd" clip-rule="evenodd" d="M8.95815 18.8446C8.78347 18.5472 8.52488 18.3894 8.26 18.4185C7.99515 18.4475 7.75496 18.6602 7.61157 18.9924C7.45948 18.9869 7.3074 19.0035 7.1575 19.0418C7.01728 19.0777 6.89564 19.2063 6.82687 19.3915C6.75803 19.5766 6.74961 19.7982 6.80385 19.9936L7.31622 19.9485C7.52614 20.1246 7.65865 20.4512 7.66553 20.8094L7.72326 23.8359C7.62426 24.1399 7.57426 24.474 7.57711 24.8118C7.58063 25.2184 7.60232 25.6241 7.6422 26.0265C7.68219 26.4305 7.59282 26.839 7.40061 27.1308C7.1027 27.583 6.84366 28.0885 6.62944 28.6354C6.46498 29.0556 6.49394 29.5835 6.70204 29.9584L7.28584 33.3162H11.6675L11.9107 30.4672C12.0139 29.2577 12.4778 28.1817 13.174 27.5371L13.3464 27.6099C13.4623 27.6587 13.5851 27.5789 13.6397 27.4193C13.6942 27.2597 13.6651 27.065 13.5703 26.9547L9.42534 22.1368L9.3164 20.1089C9.29126 19.6412 9.16566 19.198 8.95815 18.8446Z" fill="#FFD200"/>
<path d="M8.9164 18.8996L8.91296 18.8939L8.99692 18.7835L9.00036 18.7893L8.9164 18.8996ZM8.91296 18.8939C8.89032 18.8558 8.86563 18.8195 8.83966 18.7858L8.91354 18.6603C8.94257 18.698 8.97057 18.7392 8.99692 18.7835L8.91296 18.8939ZM8.91363 18.66V18.6603L8.87671 18.7231L8.91363 18.66ZM8.83975 18.7861C8.81374 18.7525 8.78655 18.7216 8.75881 18.6943L8.8208 18.5551C8.85348 18.5873 8.88454 18.6224 8.91363 18.66L8.83975 18.7861ZM8.75881 18.6943C8.61482 18.552 8.44114 18.4826 8.2643 18.502L8.25638 18.3347C8.45765 18.3126 8.65598 18.3922 8.8208 18.5551L8.75881 18.6943ZM8.2643 18.502L8.25912 18.5027L8.25123 18.3354L8.25638 18.3347L8.2643 18.502ZM8.25077 18.3352H8.25124L8.2552 18.4189L8.25077 18.3352ZM8.25957 18.5025C8.22372 18.5067 8.18961 18.5141 8.15763 18.5242L8.13429 18.3609C8.17372 18.3484 8.21276 18.3397 8.25077 18.3352L8.25957 18.5025ZM8.15763 18.5242C8.12428 18.5348 8.09142 18.5487 8.05953 18.5655L8.02215 18.4081C8.05856 18.3889 8.09615 18.3731 8.13429 18.3609L8.15763 18.5242ZM8.05953 18.5655C7.89642 18.6513 7.75473 18.816 7.65916 19.0373L7.56464 18.9473C7.67379 18.6944 7.83568 18.5061 8.02215 18.4081L8.05953 18.5655ZM7.65916 19.0373L7.61055 19.0759L7.6119 18.9923L7.65916 19.0373ZM7.61055 19.0759C7.60508 19.0758 7.59939 19.0756 7.59552 19.0756L7.59687 18.9083C7.60351 18.9084 7.60855 18.9087 7.61334 18.9087L7.61064 19.076L7.61055 19.0759ZM7.59552 19.0756H7.59528L7.59618 18.992L7.59552 19.0756ZM7.59528 19.0756C7.57462 19.0752 7.55383 19.0749 7.53342 19.0752L7.53252 18.908C7.55408 18.9077 7.57584 18.9078 7.59708 18.9083L7.59528 19.0756ZM7.53342 19.0752C7.51389 19.0754 7.49309 19.0762 7.47178 19.0773L7.46784 18.91C7.4885 18.909 7.51013 18.908 7.53252 18.908L7.53342 19.0752ZM7.47178 19.0773C7.36927 19.0827 7.26733 19.0985 7.16732 19.124L7.14842 18.9594C7.25457 18.9323 7.36142 18.9157 7.46784 18.91L7.47178 19.0773ZM7.16732 19.124L7.16507 19.1247L7.14619 18.9601L7.14842 18.9594L7.16732 19.124ZM7.14594 18.96H7.14618L7.15563 19.0423L7.14594 18.96ZM7.16534 19.1246C7.14772 19.1291 7.13068 19.1354 7.11455 19.1428L7.08165 18.9833C7.10294 18.9735 7.12456 18.9656 7.14594 18.96L7.16534 19.1246ZM7.11455 19.1428C7.09866 19.1501 7.08246 19.1595 7.06646 19.1702L7.02028 19.0179C7.03965 19.0049 7.06013 18.9932 7.08165 18.9833L7.11455 19.1428ZM7.02008 19.0179H7.02028L7.04334 19.094L7.02008 19.0179ZM7.06664 19.1702C6.98684 19.2241 6.91962 19.3153 6.87648 19.4315L6.778 19.3511C6.83304 19.2026 6.91858 19.0864 7.02008 19.0179L7.06664 19.1702ZM6.77779 19.3518L6.778 19.3511L6.82721 19.3913L6.77779 19.3518ZM6.87668 19.4309L6.87362 19.4393L6.77474 19.3602L6.77779 19.3518L6.87668 19.4309ZM6.77473 19.3606L6.77474 19.3602L6.82418 19.3998L6.77473 19.3606ZM6.87362 19.4389C6.86583 19.4606 6.85856 19.4843 6.85217 19.5093L6.74719 19.4497C6.75457 19.4207 6.76395 19.3907 6.77473 19.3606L6.87362 19.4389ZM6.74719 19.4501V19.4497L6.79967 19.4795L6.74719 19.4501ZM6.85217 19.5089C6.84605 19.5331 6.84083 19.5577 6.83673 19.5823L6.72779 19.5425C6.73294 19.5112 6.73952 19.4802 6.74719 19.4501L6.85217 19.5089ZM6.72779 19.5428V19.5425L6.78227 19.5624L6.72779 19.5428ZM6.83673 19.582C6.81614 19.707 6.8224 19.8402 6.85606 19.9618L6.75234 20.0251C6.70954 19.8707 6.70164 19.7016 6.72779 19.5428L6.83673 19.582ZM6.80752 20.0771L6.75234 20.0251L6.80421 19.9935L6.80752 20.0771ZM6.80088 19.9098L7.31326 19.8647L7.3199 20.032L6.80752 20.0771L6.80088 19.9098ZM7.31326 19.8647L7.34382 19.8755L7.31659 19.9483L7.31326 19.8647ZM7.34382 19.8755C7.35147 19.8818 7.3548 19.8847 7.35676 19.8864L7.29949 20.0301C7.29379 20.0252 7.2892 20.0211 7.2892 20.0211L7.34369 19.8755L7.34382 19.8755ZM7.35676 19.8864C7.3877 19.9135 7.41732 19.9442 7.44511 19.9774L7.37483 20.1075C7.3514 20.0795 7.32622 20.0535 7.29962 20.0302L7.35676 19.8864ZM7.44511 19.9774C7.47281 20.0106 7.49896 20.0468 7.52295 20.0853L7.44079 20.1989C7.42049 20.1663 7.39837 20.1357 7.37483 20.1075L7.44511 19.9774ZM7.52295 20.0853C7.64441 20.2792 7.71694 20.5349 7.72216 20.807L7.60964 20.8115C7.60523 20.5802 7.54375 20.3632 7.44079 20.1989L7.52295 20.0853ZM7.72216 20.807L7.77991 23.8335L7.66736 23.8381L7.60964 20.8115L7.72216 20.807ZM7.77991 23.8335L7.77417 23.872L7.72362 23.8358L7.77991 23.8335ZM7.77417 23.872C7.7709 23.8821 7.76631 23.8966 7.76172 23.9115L7.65978 23.8415C7.66347 23.8294 7.66763 23.8163 7.6731 23.7996L7.77417 23.872ZM7.65978 23.8418V23.8415L7.71075 23.8765L7.65978 23.8418ZM7.76172 23.9111C7.74935 23.9512 7.7376 23.9929 7.72664 24.0352L7.62202 23.9751C7.63343 23.931 7.64608 23.8863 7.65978 23.8418L7.76172 23.9111ZM7.62182 23.9754L7.62202 23.9751L7.67429 24.0051L7.62182 23.9754ZM7.72682 24.0349C7.71604 24.0767 7.70616 24.1191 7.69723 24.1616L7.58993 24.1119C7.59956 24.0661 7.6102 24.0204 7.62182 23.9754L7.72682 24.0349ZM7.69723 24.1616C7.65346 24.3706 7.6319 24.5898 7.63374 24.8107L7.52122 24.8127C7.5192 24.5749 7.54253 24.3382 7.58993 24.112L7.69723 24.1617V24.1616ZM7.63374 24.8107C7.6338 24.8248 7.63398 24.8392 7.63421 24.8547L7.52169 24.8574C7.52157 24.8434 7.52146 24.8279 7.52122 24.8126L7.63374 24.8106V24.8107ZM7.63421 24.8547C7.63489 24.9089 7.63579 24.9649 7.63727 25.0219L7.52475 25.0278C7.5234 24.9726 7.52232 24.9156 7.52169 24.8574L7.63421 24.8547ZM7.63727 25.0219C7.63839 25.0752 7.64029 25.1311 7.64245 25.1891L7.52993 25.1982C7.5279 25.144 7.52614 25.087 7.52475 25.0278L7.63727 25.0219ZM7.64245 25.1891C7.65266 25.4666 7.67127 25.742 7.69819 26.0143L7.58695 26.0384C7.55927 25.7584 7.54019 25.4779 7.52993 25.1982L7.64245 25.1891ZM7.69819 26.0143L7.69866 26.0182L7.58742 26.0423L7.58695 26.0384L7.69819 26.0143ZM7.69866 26.0182V26.0184L7.64305 26.0302L7.69866 26.0182ZM7.69866 26.0184C7.70453 26.079 7.70773 26.1394 7.70825 26.1987L7.5957 26.2007C7.59523 26.1476 7.59246 26.0944 7.58742 26.0421L7.69866 26.0185V26.0184ZM7.70825 26.1987C7.70872 26.2578 7.70667 26.3176 7.70199 26.3771L7.59035 26.3581C7.5943 26.3068 7.59615 26.2539 7.5957 26.2006L7.70825 26.1986V26.1987ZM7.70199 26.3771C7.67825 26.6798 7.5878 26.9664 7.44108 27.1892L7.3611 27.0722C7.49 26.8764 7.56948 26.6244 7.59035 26.3581L7.70199 26.3771ZM7.44108 27.1892L7.4409 27.1899L7.40109 27.1307L7.44108 27.1892ZM7.4409 27.1899C7.43933 27.1922 7.4504 27.1712 7.4474 27.1779L7.35376 27.0852C7.357 27.0779 7.35923 27.0746 7.36128 27.0715L7.4409 27.1899ZM7.4474 27.1779L7.44056 27.19L7.40057 27.1315L7.4474 27.1779ZM7.44056 27.19C7.40199 27.2486 7.36148 27.3125 7.31931 27.381L7.23625 27.268C7.27432 27.2061 7.3158 27.141 7.36058 27.073L7.44056 27.19ZM7.23625 27.2683V27.268L7.27777 27.3245L7.23625 27.2683ZM7.31931 27.3808C7.27867 27.4469 7.23951 27.5129 7.20224 27.5778L7.11702 27.4693C7.1569 27.3998 7.19675 27.3326 7.23625 27.2683L7.31931 27.3808ZM7.11677 27.4693H7.11702L7.15963 27.5236L7.11677 27.4693ZM7.20251 27.5778C7.00603 27.921 6.83047 28.289 6.67846 28.6771L6.58137 28.5935C6.73753 28.1947 6.91684 27.8185 7.11677 27.4693L7.20251 27.5778ZM6.5811 28.5935H6.58137L6.62988 28.6353L6.5811 28.5935ZM6.6787 28.6771L6.67645 28.6827L6.57885 28.5991L6.5811 28.5935L6.6787 28.6771ZM6.67645 28.6827C6.65496 28.7383 6.63727 28.795 6.62343 28.8515L6.51794 28.7946C6.53452 28.7267 6.55486 28.6611 6.57885 28.5991L6.67645 28.6827ZM6.62343 28.8515C6.60928 28.9095 6.5985 28.9689 6.59137 29.0281L6.48101 28.9987C6.48935 28.9294 6.50173 28.861 6.51794 28.7946L6.62343 28.8515ZM6.59137 29.0281C6.5543 29.3341 6.60737 29.6562 6.74572 29.9054L6.6591 30.0112C6.4995 29.7237 6.43825 29.3518 6.48101 28.9987L6.59137 29.0281ZM6.74572 29.9054L6.75671 29.9373L6.70242 29.9583L6.74572 29.9054ZM6.75671 29.9373L7.34053 33.2951L7.23195 33.337L6.64812 29.9793L6.75671 29.9373ZM7.28623 33.3997L7.23195 33.337L7.28623 33.316V33.3997ZM7.28623 33.2324H11.6679V33.3997H7.28623V33.2324ZM11.7235 33.3265L11.6679 33.3997V33.316L11.7235 33.3265ZM11.6123 33.3056L11.8554 30.4567L11.9667 30.4776L11.7235 33.3265L11.6123 33.3056ZM11.9669 30.4773L11.9667 30.4776L11.9111 30.4671L11.9669 30.4773ZM11.8552 30.457C11.8561 30.4468 11.8537 30.4774 11.8559 30.4519L11.9672 30.4735C11.9651 30.4961 11.9681 30.4641 11.967 30.4773L11.8554 30.457H11.8552ZM11.9671 30.4731V30.4735L11.9114 30.4627L11.9671 30.4731ZM11.8558 30.4522C11.8707 30.2783 11.8929 30.1081 11.9215 29.9431L12.0305 29.9843C12.0025 30.1452 11.9812 30.3087 11.9671 30.4731L11.8558 30.4522ZM11.9215 29.9431C11.9505 29.7762 11.9863 29.6129 12.0285 29.4546L12.1331 29.516C12.0925 29.6686 12.0581 29.8251 12.0305 29.9843L11.9215 29.9431ZM12.0285 29.4546C12.2455 28.6396 12.6339 27.9391 13.1447 27.4661L13.204 27.608C12.714 28.0617 12.3414 28.7339 12.1331 29.516L12.0285 29.4546ZM13.1447 27.4661L13.1896 27.4566L13.1744 27.537L13.1447 27.4661ZM13.1896 27.4566L13.362 27.5293L13.3316 27.6902L13.1592 27.6174L13.1896 27.4566ZM13.362 27.5293H13.3622L13.3468 27.6098L13.362 27.5293ZM13.3622 27.5293L13.3635 27.53L13.3328 27.6909L13.3314 27.6902L13.3622 27.5293ZM13.3332 27.6907H13.3327L13.3481 27.6103L13.3332 27.6907ZM13.363 27.5299C13.3747 27.5347 13.3875 27.5379 13.4011 27.5393L13.3928 27.7066C13.374 27.7046 13.3539 27.6992 13.3332 27.6907L13.363 27.5299ZM13.4011 27.5393C13.4144 27.5406 13.4271 27.5403 13.4387 27.5383L13.4518 27.7042C13.4318 27.7077 13.4119 27.7086 13.3928 27.7066L13.4011 27.5393ZM13.4387 27.5383C13.502 27.5271 13.5597 27.4701 13.5899 27.3815L13.6902 27.4566C13.6424 27.5966 13.5515 27.6865 13.4518 27.7042L13.4387 27.5383ZM13.6904 27.4564L13.6902 27.4566L13.64 27.4191L13.6904 27.4564ZM13.5897 27.3818L13.5904 27.3798L13.691 27.4543L13.6904 27.4564L13.5897 27.3818ZM13.5904 27.3798C13.5964 27.3619 13.6011 27.3438 13.6044 27.3261L13.7126 27.3705C13.7072 27.3994 13.7 27.4278 13.691 27.4543L13.5904 27.3798ZM13.7127 27.3702L13.7126 27.3705L13.6585 27.3483L13.7127 27.3702ZM13.6041 27.3264C13.6073 27.3091 13.6095 27.2905 13.6104 27.2712L13.7229 27.2835C13.7216 27.3118 13.718 27.341 13.7127 27.3702L13.6041 27.3264ZM13.7229 27.2833V27.2835L13.6667 27.2774L13.7229 27.2833ZM13.6104 27.2715C13.6151 27.1766 13.5886 27.0814 13.5361 27.0203L13.6051 26.8889C13.6882 26.9855 13.7303 27.135 13.7229 27.2833L13.6104 27.2715ZM13.5361 27.0203L9.39118 22.2024L9.4602 22.0709L13.6051 26.8889L13.5361 27.0203ZM9.39118 22.2024L9.36942 22.1432L9.42568 22.1367L9.39118 22.2024ZM9.36942 22.1432L9.26048 20.1153L9.373 20.1023L9.48196 22.1301L9.36942 22.1432ZM9.26048 20.1153L9.26001 20.1082L9.37253 20.0951L9.373 20.1023L9.26048 20.1153ZM9.37261 20.0949V20.0951L9.31635 20.1017L9.37261 20.0949ZM9.26009 20.1085C9.25645 20.0427 9.25109 19.9801 9.2442 19.9213L9.35495 19.8932C9.36305 19.9626 9.36904 20.0302 9.37261 20.0949L9.26009 20.1085ZM9.2442 19.9213C9.23705 19.8601 9.22787 19.7989 9.21698 19.7384L9.32554 19.6954C9.33728 19.7601 9.34709 19.8263 9.35495 19.8932L9.2442 19.9213ZM9.21698 19.7384C9.16135 19.4298 9.05882 19.1422 8.91625 18.8994L9.00071 18.7896C9.15477 19.0521 9.26552 19.3624 9.32554 19.6954" fill="black"/>
<path d="M8.94801 24.3468C8.94754 24.3484 8.9489 24.3432 8.94733 24.3501L8.83965 24.3017C8.84012 24.2994 8.84055 24.2981 8.84201 24.292L8.94791 24.3468L8.94801 24.3468ZM8.94733 24.3501L8.94686 24.3521L8.89348 24.3259L8.94733 24.3501ZM8.94686 24.3521C8.93678 24.3971 8.92863 24.4418 8.92249 24.4854L8.81264 24.4515C8.81998 24.3993 8.82916 24.3486 8.84008 24.2998L8.94686 24.3521ZM8.92249 24.4854C8.91612 24.5307 8.91146 24.5762 8.90865 24.6207L8.79703 24.6057C8.80027 24.5536 8.80558 24.5019 8.81264 24.4515L8.92249 24.4854ZM8.90865 24.6207C8.89397 24.8525 8.9246 25.088 8.9988 25.2977L8.8994 25.3754C8.81508 25.1372 8.78037 24.8694 8.79703 24.6057L8.90865 24.6207ZM8.9988 25.2977L8.99948 25.2994L8.9001 25.3771L8.8994 25.3754L8.9988 25.2977ZM8.99948 25.2994C9.01401 25.3404 9.03017 25.3801 9.04757 25.4178L8.95483 25.5119C8.93498 25.4688 8.91661 25.4237 8.9001 25.3771L8.99948 25.2994ZM9.04757 25.4178C9.06512 25.4559 9.08407 25.4924 9.10385 25.5265L9.01899 25.6355C8.99603 25.596 8.97441 25.5544 8.95483 25.5119L9.04757 25.4178ZM9.10385 25.5265C9.20681 25.7034 9.34325 25.834 9.49736 25.8988L9.467 26.0597C9.29171 25.9859 9.13637 25.8372 9.01899 25.6355" fill="black"/>
<path d="M9.45716 22.2052L7.75566 23.9336L7.69238 23.7958L9.3939 22.0674" fill="black"/>
<path d="M8.46603 19.4644V19.4637H8.57855V19.4644H8.46603ZM8.46603 19.4637C8.46597 19.3953 8.44729 19.3332 8.41724 19.2886L8.49635 19.1703C8.54698 19.2455 8.57844 19.3493 8.57855 19.4637H8.46603ZM8.41724 19.2886C8.38725 19.2442 8.34559 19.2163 8.29979 19.2161L8.30026 19.0488C8.37669 19.0492 8.44609 19.0957 8.49643 19.1703L8.41733 19.2886H8.41724ZM8.29997 19.0488H8.30015L8.29997 19.1325V19.0488ZM8.29997 19.2161H8.29908V19.0488H8.29997V19.2161ZM8.29908 19.2161H8.29861V19.0488H8.29908V19.2161ZM8.29861 19.2161C8.25261 19.2162 8.21084 19.244 8.18084 19.2886L8.10124 19.1711C8.15183 19.0958 8.22169 19.049 8.29861 19.0488V19.2161ZM8.18084 19.2886C8.15093 19.3332 8.13219 19.3951 8.13205 19.4632L8.01953 19.4625C8.01977 19.3489 8.05104 19.2457 8.10124 19.171L8.18084 19.2886V19.2886ZM8.01953 19.4629V19.4627L8.07579 19.4629H8.01953ZM8.13205 19.4629V19.4643H8.01953V19.4629H8.13205ZM8.13205 19.4643V19.465H8.01953V19.4643H8.13205ZM8.13205 19.465C8.13211 19.5334 8.1508 19.5955 8.18084 19.64L8.10174 19.7584C8.0511 19.6832 8.01964 19.5792 8.01953 19.465H8.13205ZM8.18084 19.64C8.21084 19.6845 8.2525 19.7124 8.29829 19.7126L8.29782 19.8798C8.22133 19.8795 8.15193 19.833 8.10165 19.7584L8.18075 19.64H8.18084ZM8.29809 19.8798H8.29791L8.29809 19.7962V19.8798ZM8.29809 19.7126H8.29899V19.8798H8.29809V19.7126ZM8.29899 19.7126H8.29946V19.8798H8.29899V19.7126ZM8.29946 19.7126C8.3455 19.7125 8.38722 19.6847 8.41722 19.64L8.49682 19.7576C8.44623 19.8329 8.37633 19.8796 8.29946 19.8798V19.7126ZM8.41722 19.64C8.44713 19.5955 8.46588 19.5335 8.46601 19.4655L8.57853 19.4662C8.5783 19.5797 8.54703 19.6829 8.49682 19.7577L8.41722 19.6402V19.64ZM8.57853 19.4657V19.466L8.52227 19.4657H8.57853ZM8.46601 19.4657L8.46603 19.4644H8.57855L8.57853 19.4657" fill="black"/>
<path d="M8.07031 27.3862L8.07427 27.3832L8.12441 27.5328L8.12045 27.5358L8.07031 27.3862ZM8.12459 27.5326L8.12441 27.5328L8.09935 27.4581L8.12459 27.5326ZM8.07407 27.3836C8.12014 27.349 8.16364 27.3091 8.20383 27.2649L8.27067 27.3988C8.22501 27.449 8.17608 27.494 8.12459 27.5326L8.07407 27.3836ZM8.20383 27.2649C8.24414 27.2205 8.28183 27.1711 8.31628 27.1178L8.39716 27.2335C8.35864 27.293 8.31628 27.3486 8.27067 27.3988L8.20383 27.2649ZM8.31628 27.1178C8.49242 26.8455 8.58624 26.4679 8.56336 26.0764L8.67588 26.062C8.70165 26.5016 8.59583 26.9264 8.39716 27.2335" fill="black"/>
<path d="M8.84208 25.6208L8.83814 25.6238L8.788 25.4742L8.79194 25.4712L8.84208 25.6208ZM8.78756 25.4744L8.788 25.4742L8.8131 25.549L8.78756 25.4744ZM8.8386 25.6235C8.82257 25.6357 8.8079 25.6492 8.79507 25.6635L8.72785 25.5302C8.74705 25.5087 8.76708 25.49 8.78756 25.4744L8.8386 25.6235ZM8.79507 25.6635C8.78168 25.6784 8.76899 25.6953 8.75745 25.7133L8.67618 25.5983C8.6918 25.574 8.70922 25.5509 8.72785 25.5302L8.79507 25.6635ZM8.75745 25.7133C8.699 25.8045 8.66795 25.9311 8.6756 26.0623L8.56308 26.0767C8.55261 25.8977 8.59555 25.7243 8.67618 25.5983" fill="black"/>
<path d="M9.47464 28.0754L9.47375 28.0761L9.43202 27.9211L9.43292 27.9204L9.47464 28.0754ZM9.47375 28.0761C9.41577 28.1107 9.35555 28.1474 9.29398 28.1854L9.25086 28.0312C9.30924 27.9953 9.36964 27.9585 9.43202 27.9211L9.47375 28.0761ZM9.29398 28.1854C9.23396 28.2224 9.17412 28.2599 9.11474 28.2975L9.07072 28.1439C9.13074 28.1058 9.19096 28.0681 9.25086 28.0312L9.29398 28.1854ZM9.11474 28.2975C8.80897 28.4915 8.50604 28.6977 8.20647 28.9159L8.15723 28.7657C8.4575 28.547 8.76216 28.3396 9.07072 28.1439" fill="black"/>
<path d="M9.43262 27.9199L9.43464 27.9189L9.47508 28.0744L9.47306 28.0754L9.43262 27.9199ZM9.47594 28.074L9.47504 28.0743L9.45483 27.9966L9.47594 28.074ZM9.4337 27.9191C9.4977 27.8806 9.55887 27.8359 9.61659 27.7859L9.67287 27.9303C9.60964 27.985 9.54374 28.0332 9.47594 28.074L9.4337 27.9191ZM9.61659 27.7859C9.67368 27.7366 9.7292 27.6802 9.78245 27.6177L9.85237 27.7491C9.79674 27.8144 9.73672 27.8751 9.67287 27.9303L9.61659 27.7859ZM9.78245 27.6177C10.0517 27.3019 10.2394 26.8477 10.3027 26.334L10.413 26.364C10.3447 26.919 10.1424 27.4089 9.85237 27.7491" fill="black"/>
<path d="M8.87988 28.2734H12.5363V28.4407H8.87988" fill="black"/>
<path d="M9.66622 29.3766V29.3759H9.77874V29.3766H9.66622ZM9.66622 29.3759C9.66616 29.2253 9.62482 29.0885 9.55836 28.9898L9.63796 28.8714C9.72471 29.0004 9.77863 29.1789 9.77874 29.3759H9.66622ZM9.63771 28.8714H9.63796L9.59816 28.9306L9.63771 28.8714ZM9.55861 28.9898C9.49227 28.8913 9.40061 28.8302 9.29949 28.8299V28.6626C9.43148 28.6629 9.55109 28.7428 9.63771 28.8714L9.55861 28.9898ZM9.29949 28.8299H9.2986V28.6626H9.29949V28.8299ZM9.2986 28.8299H9.29813V28.6626H9.2986V28.8299ZM9.29813 28.8299C9.19663 28.8299 9.10473 28.8911 9.03845 28.9898L8.95883 28.8722C9.04572 28.7429 9.16582 28.6628 9.29813 28.6626V28.8299ZM9.03845 28.9898C8.97222 29.0884 8.93108 29.2247 8.93088 29.3751H8.81836C8.81859 29.1788 8.87232 29.001 8.95883 28.8722L9.03845 28.9898ZM8.93088 29.3751V29.3765H8.81836V29.3751H8.93088ZM8.93088 29.3765V29.3772H8.81836V29.3765H8.93088ZM8.93088 29.3772C8.93094 29.5279 8.97215 29.6647 9.0385 29.7632L8.95939 29.8815C8.87239 29.7523 8.81849 29.5737 8.81836 29.3772H8.93088ZM9.0385 29.7632C9.10479 29.8616 9.19652 29.9228 9.29763 29.9231V30.0903C9.16564 30.09 9.04597 30.0101 8.95939 29.8815L9.0385 29.7632ZM9.29763 29.9231H9.29853V30.0903H9.29763V29.9231ZM9.29853 29.9231H9.299V30.0903H9.29853V29.9231ZM9.299 29.9231C9.40025 29.923 9.49222 29.8615 9.5587 29.7627L9.63832 29.8811C9.55154 30.01 9.43144 30.0902 9.299 30.0903V29.9231ZM9.63832 29.8807V29.8811L9.59851 29.8219L9.63832 29.8807ZM9.5587 29.7631C9.62491 29.6645 9.66607 29.5282 9.66625 29.3779H9.77877C9.77853 29.5741 9.7248 29.7519 9.63832 29.8807L9.5587 29.7631ZM9.66625 29.3779L9.66622 29.3766H9.77874L9.77877 29.3779" fill="black"/>
<path d="M11.3519 29.3771V29.3764H11.4644V29.3771H11.3519ZM11.3519 29.3764C11.3518 29.2258 11.3105 29.089 11.244 28.9902L11.3236 28.8719C11.4103 29.0009 11.4642 29.1794 11.4644 29.3764H11.3519ZM11.3233 28.8719H11.3236L11.2838 28.9311L11.3233 28.8719ZM11.2442 28.9902C11.1779 28.8918 11.0862 28.8307 10.9851 28.8303V28.6631C11.1171 28.6634 11.2367 28.7433 11.3233 28.8719L11.2442 28.9902ZM10.9851 28.8303H10.9842V28.6631H10.9851V28.8303ZM10.9842 28.8303H10.9837V28.6631H10.9842V28.8303ZM10.9837 28.8303C10.8822 28.8304 10.7903 28.8917 10.724 28.9903L10.6444 28.8727C10.7313 28.7434 10.8514 28.6633 10.9837 28.6631V28.8303ZM10.724 28.9903C10.6578 29.0889 10.6166 29.2252 10.6164 29.3756H10.5039C10.5041 29.1793 10.5579 29.0015 10.6444 28.8727L10.724 28.9903ZM10.6164 29.3756V29.377H10.5039V29.3756H10.6164ZM10.6164 29.377V29.3777H10.5039V29.377H10.6164ZM10.6164 29.3777C10.6165 29.5284 10.6577 29.6652 10.724 29.7637L10.6449 29.882C10.5579 29.7528 10.504 29.5742 10.5039 29.3777H10.6164ZM10.724 29.7637C10.7904 29.8621 10.882 29.9233 10.9832 29.9236V30.0908C10.8512 30.0905 10.7316 30.0106 10.6449 29.882L10.724 29.7637ZM10.9832 29.9236H10.9841V30.0908H10.9832V29.9236ZM10.9841 29.9236H10.9846V30.0908H10.9841V29.9236ZM10.9846 29.9236C11.0858 29.9235 11.1778 29.862 11.2443 29.7632L11.3239 29.8815C11.2371 30.0105 11.117 30.0907 10.9846 30.0908V29.9236ZM11.3239 29.8812V29.8815L11.2841 29.8223L11.3239 29.8812ZM11.2443 29.7636C11.3105 29.665 11.3516 29.5287 11.3518 29.3784H11.4644C11.4641 29.5746 11.4104 29.7524 11.3239 29.8812L11.2443 29.7636ZM11.3518 29.3784L11.3519 29.3771H11.4644L11.4644 29.3784" fill="black"/>
<path d="M10.1239 27.1489C10.1438 27.1577 10.1636 27.1661 10.1833 27.1739L10.1543 27.3353C10.1334 27.327 10.1123 27.3181 10.0918 27.309L10.1239 27.1489ZM10.1833 27.1739C10.2145 27.1864 10.2445 27.1976 10.2731 27.2071L10.2484 27.3698C10.2157 27.3588 10.1842 27.3473 10.1543 27.3353L10.1833 27.1739ZM10.2731 27.2071C10.3033 27.2172 10.3336 27.2265 10.3637 27.2347L10.3435 27.3988C10.3116 27.39 10.2798 27.3803 10.2484 27.3698L10.2731 27.2071ZM10.3637 27.2347C10.5047 27.2732 10.6489 27.2921 10.7939 27.2909L10.7944 27.4581C10.6437 27.4595 10.4927 27.4395 10.3436 27.3988" fill="black"/>
<path d="M10.7931 27.2913C10.813 27.2912 10.832 27.2896 10.8496 27.287L10.861 27.4529C10.8377 27.4564 10.8151 27.4584 10.7934 27.4585L10.793 27.2913L10.7931 27.2913ZM10.8496 27.287H10.8498L10.8553 27.37L10.8496 27.287ZM10.8498 27.287C10.8815 27.2824 10.9131 27.2736 10.9439 27.2616L10.9725 27.423C10.9364 27.4371 10.899 27.4472 10.8608 27.4529L10.8498 27.287ZM10.9439 27.2616C10.9742 27.2497 11.0042 27.234 11.033 27.2151L11.0783 27.368C11.0445 27.3902 11.009 27.4086 10.9725 27.423L10.9439 27.2616ZM11.033 27.2151C11.169 27.126 11.2812 26.9635 11.3431 26.7534L11.4459 26.82C11.3725 27.0695 11.2394 27.2623 11.0783 27.368" fill="black"/>
<path d="M13.1596 27.6171L9.4668 26.0598L9.49715 25.8989L13.19 27.4563" fill="black"/>
<path d="M6.77637 30.3018H11.9182V30.469H6.77637" fill="black"/>
<path d="M7.96387 31.9629H11.7764V32.1302H7.96387" fill="black"/>
<path d="M9.74604 31.3968L9.29063 32.0625L9.21191 31.9436L9.66732 31.2778" fill="black"/>
<path d="M8.9127 31.2778L9.36818 31.9436L9.28946 32.0625L8.83398 31.3968" fill="black"/>
<path d="M8.99317 31.3968L8.5377 32.0625L8.45898 31.9437L8.91445 31.2778" fill="black"/>
<path d="M8.15977 31.2778L8.61525 31.9437L8.53654 32.0625L8.08105 31.3968" fill="black"/>
<path d="M10.5 31.3968L10.0445 32.0625L9.96582 31.9437L10.4213 31.2778" fill="black"/>
<path d="M9.66661 31.2778L10.1221 31.9437L10.0434 32.0625L9.58789 31.3968" fill="black"/>
<path d="M11.2529 31.3968L10.7975 32.0625L10.7188 31.9437L11.1742 31.2778" fill="black"/>
<path d="M10.4195 31.2778L10.875 31.9437L10.7963 32.0626L10.3408 31.3968" fill="black"/>
<path d="M11.8578 31.6145L11.5514 32.0624L11.4727 31.9435L11.7791 31.4956" fill="black"/>
<path d="M11.1754 31.2778L11.6309 31.9437L11.5521 32.0625L11.0967 31.3968" fill="black"/>
<path d="M9.74602 30.5481L9.29063 31.2139L9.21191 31.095L9.6673 30.4292" fill="black"/>
<path d="M8.9127 30.4292L9.36819 31.095L9.28947 31.2139L8.83398 30.5481" fill="black"/>
<path d="M8.99316 30.5481L8.5377 31.2139L8.45898 31.095L8.91444 30.4292" fill="black"/>
<path d="M8.16173 30.4287L8.61657 31.0955L8.53785 31.2144L8.08301 30.5476" fill="black"/>
<path d="M10.5 30.5481L10.0445 31.2139L9.96582 31.095L10.4213 30.4292" fill="black"/>
<path d="M9.66661 30.4292L10.1221 31.095L10.0434 31.2139L9.58789 30.5481" fill="black"/>
<path d="M11.2529 30.5481L10.7975 31.2139L10.7188 31.095L11.1742 30.4292" fill="black"/>
<path d="M10.4195 30.4292L10.875 31.095L10.7963 31.2139L10.3408 30.5481" fill="black"/>
<path d="M11.9406 30.6453L11.5514 31.2142L11.4727 31.0953L11.8619 30.5264" fill="black"/>
<path d="M11.1754 30.4292L11.6309 31.095L11.5521 31.2139L11.0967 30.5481" fill="black"/>
<path d="M7.81257 19.9881L7.32011 20.0315L7.31348 19.8642L7.80596 19.8208" fill="black"/>
<path d="M8.11961 27.5367L8.11804 27.5377L8.0697 27.3867L8.07127 27.3857L8.11961 27.5367ZM8.06878 27.3875L8.06967 27.3869L8.09384 27.4623L8.06878 27.3875ZM8.11891 27.5372C8.02329 27.6082 7.93404 27.6915 7.85208 27.7847L7.78394 27.6521C7.87204 27.552 7.96728 27.4629 8.06878 27.3875L8.11891 27.5372ZM7.85208 27.7847C7.77003 27.878 7.69451 27.9822 7.62625 28.0951L7.54269 27.9834C7.61516 27.8635 7.6959 27.7522 7.78394 27.6521L7.85208 27.7847ZM7.62625 28.0951C7.27629 28.6742 7.1216 29.4824 7.23936 30.2781L7.12952 30.3139C7.00376 29.4646 7.16906 28.6018 7.54269 27.9834" fill="black"/>
<path d="M8.20512 28.9153L8.19823 28.9204L8.149 28.7702L8.15588 28.7651L8.20512 28.9153ZM8.14855 28.7705L8.149 28.7702L8.17363 28.8453L8.14855 28.7705ZM8.19868 28.9201C8.15071 28.9557 8.10536 28.9968 8.06319 29.0423L7.99723 28.9071C8.04455 28.856 8.09521 28.8101 8.14855 28.7705L8.19868 28.9201ZM8.06319 29.0423C8.0207 29.0882 7.98116 29.1388 7.94511 29.1931L7.86513 29.0761C7.90588 29.0146 7.95015 28.9579 7.99723 28.9071L8.06319 29.0423ZM7.94511 29.1931C7.75954 29.4722 7.65588 29.8598 7.66954 30.2665L7.557 30.2743C7.54176 29.8207 7.65766 29.3881 7.86513 29.0761" fill="black"/>
<path d="M6.886 29.4957C6.89392 29.5359 6.90321 29.576 6.91361 29.6156L6.80901 29.6763C6.79765 29.633 6.78928 29.5294 6.78027 29.4839L6.886 29.4957ZM6.91361 29.6156C6.92396 29.6552 6.93551 29.6938 6.94788 29.7311L6.84722 29.8049C6.83325 29.7627 6.82035 29.7196 6.80901 29.6763L6.91361 29.6156ZM6.94788 29.7311C7.01198 29.9243 7.10449 30.0954 7.21913 30.2308L7.14921 30.3615C7.02168 30.2107 6.91865 30.0202 6.84722 29.8049" fill="black"/>
<path d="M6.88402 29.5505L6.75517 29.9913L6.65234 29.9247L6.7812 29.4839" fill="black"/>
<path d="M7.23453 30.333L7.13477 30.2558L7.14933 30.3615L7.23453 30.333ZM7.13477 30.2558C7.14867 30.2163 7.16182 30.1777 7.17419 30.1404L7.27524 30.2136C7.26164 30.2547 7.24801 30.2949 7.23453 30.333L7.13477 30.2558ZM7.17419 30.1404C7.18887 30.0959 7.20156 30.0566 7.21175 30.0236L7.3137 30.0928C7.29941 30.1391 7.28653 30.1794 7.27524 30.2136L7.17419 30.1404ZM7.21175 30.0236C7.27377 29.823 7.32704 29.6156 7.37106 29.4033L7.47834 29.4522C7.43313 29.6705 7.37806 29.8846 7.3137 30.0928" fill="black"/>
<path d="M7.37344 29.4613L7.37109 29.4033L7.47626 29.394L7.37344 29.4613ZM7.5588 30.287L7.66826 30.2491L7.67029 30.2666L7.5588 30.287ZM7.5588 30.287C7.55192 30.2433 7.54521 30.2032 7.53909 30.1681L7.64767 30.1262C7.65557 30.1712 7.66248 30.2122 7.66826 30.2491L7.5588 30.287ZM7.53909 30.1681C7.53324 30.1348 7.52584 30.0954 7.51708 30.05L7.62528 30.0043C7.63192 30.0386 7.63944 30.0794 7.64767 30.1262L7.53909 30.1681ZM7.62503 30.0039L7.62528 30.0043L7.57117 30.0272L7.62503 30.0039ZM7.51735 30.0504C7.47844 29.8505 7.43026 29.6536 7.37344 29.4613L7.47626 29.394C7.53463 29.5914 7.58439 29.7953 7.62503 30.0039" fill="black"/>
<path d="M7.9082 33.316V32.0469H8.02072V33.316" fill="black"/>
<path d="M7.91069 32.0737L7.52832 30.4125L7.63472 30.3589L8.01709 32.02" fill="black"/>
<path d="M8.23779 31.3968L7.93907 31.8334L7.86035 31.7145L8.15907 31.2778" fill="black"/>
<path d="M8.24005 30.5471L7.79454 31.1985L7.71582 31.0796L8.16133 30.4282" fill="black"/>
</g>
<defs>
<clipPath id="clip0_8_30872">
<rect width="37" height="55" rx="18.5" fill="white"/>
</clipPath>
</defs>
</svg>
