<svg width="39" height="55" viewBox="0 0 39 55" fill="none" xmlns="http://www.w3.org/2000/svg">
<g clip-path="url(#clip0_8_30851)">
<path d="M29.2508 17.6782H15.3223V54.9996H29.2508V17.6782Z" fill="#DE2010"/>
<path d="M39.0008 17.6782H25.0723V54.9996H39.0008V17.6782Z" fill="#EF7D00"/>
<path d="M32.0366 17.6782H25.0723V54.9996H32.0366V17.6782Z" fill="black"/>
<path d="M-19.5 0H39V19.6429H18.1071V55H-19.5V0Z" fill="#198A00"/>
<path d="M29.2756 10.2629C29.2756 10.2629 31.0718 9.27014 31.2459 9.06543C31.325 9.18825 30.5258 10.4369 28.9749 10.8975C30.3834 10.4676 31.5861 9.1166 31.8314 9.15754C31.9027 9.17802 31.8868 10.4779 28.6584 11.6038C30.8898 10.8463 32.1875 9.45436 32.1717 9.60789C32.1875 9.63859 31.9501 10.7031 29.9957 11.5321C30.5417 11.3683 32.0214 10.2015 32.0055 10.4267C32.053 10.5188 30.5733 12.9752 27.8988 12.1769C30.0352 12.8934 31.42 11.1636 31.6178 11.1943C31.6574 11.2046 31.2221 12.7091 28.5318 12.8013C29.8216 12.6273 29.4497 12.791 29.4497 12.791C29.4497 12.791 28.69 13.5586 27.7721 13.0367C28.4922 13.2926 28.5713 13.3028 28.5871 13.3847C28.5397 13.487 27.9462 13.6406 27.3765 13.2414C27.8354 13.487 28.2469 13.528 28.2548 13.6201C28.2469 13.6508 27.9541 13.8657 27.693 13.7122C27.4319 13.5586 25.0264 11.6447 25.0264 11.6447L29.1253 10.1913L29.2756 10.2629Z" fill="#EF7D00" stroke="black" stroke-width="0.0481989" stroke-linecap="round" stroke-linejoin="round"/>
<path d="M24.4556 15.44C24.095 15.44 24.0851 15.855 24.0851 15.855C24.0851 15.855 24.0553 15.885 24.0752 16.0861C24.1347 15.9491 24.1645 15.9063 24.1645 15.9063C24.2042 15.9149 24.3696 15.9791 24.6309 15.7138C24.3927 16.0347 24.535 16.1545 24.535 16.1545C24.535 16.1545 24.4787 16.4069 24.6606 16.4583C24.6044 16.3556 24.6375 16.2657 24.6375 16.2657C24.6375 16.2657 24.8922 16.2315 24.8756 15.8294C24.8856 16.193 25.0377 16.2828 25.0377 16.2828C25.0377 16.2828 25.0377 16.4839 25.2031 16.5011C25.1138 16.3984 25.1336 16.2401 25.1336 16.2401C25.1336 16.2401 25.3486 16.039 25.1667 15.6967C25.2759 15.6154 25.3652 15.3887 25.3652 15.3887C25.3652 15.3887 25.2164 15.3073 25.1469 15.2389C25.1138 15.149 25.1436 14.657 25.1436 14.657L25.0543 14.0195L24.7995 15.0122C24.8095 14.871 24.8161 15.44 24.4556 15.44Z" fill="#EF7D00" stroke="black" stroke-width="0.0481989" stroke-linecap="round" stroke-linejoin="round"/>
<path d="M26.2369 14.0086C26.2448 14.0189 26.506 14.3977 26.7593 14.3772C26.8542 14.2748 26.5614 14.0496 26.5614 13.9984C26.6643 14.1213 27.0996 14.6024 27.3767 14.4284C27.4874 14.2236 27.1788 14.2544 26.8384 13.7015C27.0758 13.9063 27.6695 14.3567 27.9465 14.1827C28.0653 14.0189 27.3291 13.507 27.0838 13.1077L26.4506 12.688L25.5879 13.5992L26.2369 14.0086Z" fill="#EF7D00" stroke="black" stroke-width="0.0481989" stroke-linecap="round" stroke-linejoin="round"/>
<path d="M25.2637 10.8971C25.2637 10.8971 25.5564 10.6719 26.7275 10.7845C26.8542 10.805 27.5267 10.4877 27.7404 10.3956C28.0806 10.3137 29.1647 10.0066 29.4575 9.72005C29.6632 9.68935 29.4021 10.2113 29.141 10.3342C28.864 10.4979 27.8591 10.9483 27.503 10.8869C27.9303 10.8971 27.6929 11.3474 26.9807 11.1325C27.321 11.3781 27.1944 11.4191 27.1944 11.4191C27.1944 11.4191 26.593 11.46 26.4348 11.286C26.8383 11.4805 26.6721 11.5521 26.6721 11.5521C26.6721 11.5521 26.2607 11.6033 26.0708 11.4907C26.3635 11.6033 26.2132 11.675 26.2132 11.675C26.2132 11.675 25.9758 11.7261 25.778 11.634C25.5802 11.5419 25.2795 10.8971 25.2637 10.8971Z" fill="#EF7D00" stroke="black" stroke-width="0.0481989" stroke-linecap="round" stroke-linejoin="round"/>
<path d="M25.7322 14.2199L25.7752 15.221C25.7752 15.221 25.7521 15.2724 25.7322 15.3023C25.7124 15.3323 25.1831 15.1954 25.2559 15.7173C25.2559 15.9313 25.2592 15.9869 25.3717 16.1067C25.3419 15.9655 25.3518 15.8671 25.3518 15.8671C25.3518 15.8671 25.5007 15.9826 25.6462 15.666C25.547 15.9783 25.6164 16.0896 25.6396 16.0981C25.6627 16.1538 25.5999 16.4062 25.7984 16.4019C25.7223 16.3078 25.7587 16.1708 25.7587 16.1708C25.7587 16.1708 25.9671 16.1281 25.8943 15.6403C25.9704 15.5419 26.0001 15.6361 26.0001 15.6361C26.0001 15.6361 26.0233 15.927 26.2052 15.8671C26.2879 15.927 26.192 16.0853 26.192 16.0853C26.192 16.0853 26.3243 16.0896 26.364 15.9441C26.4037 15.7986 26.45 15.5376 26.2317 15.4307C26.2052 15.328 26.3177 15.3194 26.3177 15.3194C26.3177 15.3194 26.4566 15.3793 26.4963 15.4692C26.536 15.559 26.5228 15.2339 26.3508 15.1996C26.1391 15.1911 26.1258 15.1355 26.1258 15.1227C26.1258 15.1098 26.0895 14.3953 26.0729 14.1899L25.7322 14.2199Z" fill="#EF7D00" stroke="black" stroke-width="0.0481989" stroke-linecap="round" stroke-linejoin="round"/>
<path d="M26.4687 15.0733C26.4713 15.0275 26.1077 14.3942 26.1999 14.3123C26.2921 14.3368 26.4434 14.6249 26.5659 14.5314C26.5288 14.4191 26.4193 14.4823 26.295 14.1949C26.1708 13.87 26.1526 13.3822 25.7174 12.8501C25.9992 13.4131 26.6383 13.7432 26.6654 13.579C26.6925 13.4148 26.1026 12.794 26.1328 12.6443C26.2501 12.9516 26.8424 13.6363 27.2788 13.5796C27.3087 13.4478 26.9214 13.1817 26.8218 12.9333C26.543 12.6911 25.797 11.8593 25.7821 11.6664C25.5106 11.1543 25.3411 10.9994 25.2622 10.9404C25.2317 10.8939 25.2241 10.8495 25.2181 10.8212C25.0496 10.3074 25.2728 10.1405 25.4034 10.1158C25.5109 10.1004 25.5422 10.1212 25.6195 10.0727C25.5279 10.0264 25.4363 9.98303 25.3448 9.93667C25.4642 10.05 25.7693 9.95022 25.7031 10.2766C25.8369 10.2108 26.1215 9.77282 25.3806 9.67398C25.1395 9.31619 24.1481 9.11056 23.9 10.6721C23.9198 10.694 23.9302 10.712 23.9932 10.7729C23.6802 10.5767 22.8357 10.4253 22.5314 10.3617C21.7092 10.0549 20.8554 9.31548 20.7733 9.40641C20.6635 9.46944 21.27 10.1993 21.2385 10.2155C20.7126 9.81884 20.2322 9.53784 19.7851 9.28213C19.4706 9.13007 19.1556 8.77604 19.1209 8.84338C19.0052 9.15352 19.6251 9.9331 19.7404 10.0248C19.8558 10.1125 20.7628 10.6567 20.7494 10.6635C19.3833 9.86149 19.1543 9.71609 19.0857 9.62362C18.9653 9.58854 18.672 9.07631 18.5903 9.10925C18.5455 9.16611 18.6353 9.97548 19.2872 10.3388C19.3934 10.439 20.6844 11.038 20.6718 11.085C20.6686 11.0967 19.1931 10.2973 19.1358 10.2687C18.8513 10.1244 18.5022 9.61859 18.437 9.67547C18.3747 9.72708 18.5979 10.2745 18.8853 10.4462C19.036 10.5322 19.614 10.9025 20.1347 11.1382C20.168 11.1537 19.1987 10.6628 18.7327 10.4109C18.5214 10.2592 18.4219 10.0701 18.3898 10.1108C18.3422 10.1515 18.4667 10.9602 19.9642 11.4165C20.0036 11.4383 20.4913 11.2671 20.4672 11.2898C20.4611 11.2955 19.9829 11.4302 19.9364 11.4255C19.8949 11.4174 19.6329 11.4657 19.6282 11.4832C19.6124 11.5379 19.7231 11.8275 20.4963 11.7671C20.5951 11.7594 21.1316 11.5144 21.0865 11.5671C21.064 11.5935 20.356 11.891 20.3021 11.8969C20.2553 11.9055 20.0066 11.9391 19.9974 11.9733C19.9862 12.02 20.1815 12.2261 20.5967 12.2591C20.9644 12.2844 21.6629 11.9685 21.6489 11.989C21.6349 12.0095 20.9755 12.3018 20.9582 12.3196C20.9344 12.337 20.6929 12.354 20.6844 12.378C20.6647 12.4376 21.0327 12.8828 22.1211 12.4077C22.0118 12.5987 21.4842 12.7294 21.485 12.7638C21.4825 12.7888 21.6012 12.9371 21.7856 12.9901C21.8778 13.0167 22.0041 13.0113 22.1194 12.9877C22.3266 12.9341 22.5449 12.8281 22.8223 12.4965C22.8554 12.6005 22.1294 13.0758 22.1635 13.1211C22.3209 13.3099 22.8439 13.0968 22.8781 13.072C22.9124 13.0472 23.8851 12.3377 23.8818 12.2556C23.8969 12.3608 22.6277 13.2529 22.6414 13.2895C22.7228 13.4576 23.1564 13.2806 23.1771 13.2652C23.1978 13.2498 23.7305 12.8776 23.7451 12.8666C23.7596 12.8556 23.1191 13.3515 23.1761 13.427C23.1485 13.7491 24.1765 13.2048 24.2571 13.137C24.2974 13.1031 23.7633 13.4407 23.7618 13.6012C23.9338 13.9773 24.4846 13.858 24.5695 13.7752C24.612 13.7338 24.5195 14.0547 24.5493 14.0255C24.5597 14.0195 24.6691 13.8521 24.7112 13.731C24.6977 13.8361 24.6374 14.0017 24.6021 14.1916C24.5669 14.3816 24.5568 14.5959 24.5084 14.8237C24.4973 14.9237 24.8477 14.6281 24.7968 13.9215C24.8268 14.289 24.6861 14.9763 24.723 15.012C24.7966 15.0835 25.0001 14.6697 25.0207 14.39C25.0811 14.5313 25.208 14.8263 25.3171 14.8942C25.3053 14.6804 25.3192 14.6902 25.2701 14.48C25.2984 14.2011 25.3024 13.815 25.3092 13.379C25.6058 14.1139 25.7241 14.4242 25.6412 14.9869C25.7294 15.0345 25.8703 14.5941 25.8589 14.3675C25.9722 14.9972 26.4609 15.0917 26.4687 15.0733Z" fill="#EF7D00" stroke="black" stroke-width="0.0481989" stroke-linecap="round" stroke-linejoin="round"/>
<path d="M21.5293 10.4082C21.5293 10.4082 21.3274 10.6055 21.0762 10.5939C21.139 10.9189 21.6594 10.6694 21.6594 10.6694C21.6594 10.6694 21.4082 11.0292 21.2287 11.0872C21.3364 11.2033 21.7895 11.1626 21.8658 11.1046C21.9421 11.0466 22.0767 10.8202 22.0767 10.8202C22.0767 10.8202 21.6101 11.5166 21.5428 11.5108C21.5338 11.5921 22.0318 11.5631 22.135 11.4412C22.2382 11.3193 22.4984 11.1394 22.4984 11.1394C22.4984 11.1394 21.8165 11.7546 21.785 11.7546C22.0408 11.8416 22.5523 11.6501 22.8798 11.389C22.3952 11.8068 22.3504 11.8823 22.1036 12.0215C22.3235 12.0854 22.4356 12.2769 23.1804 11.859C23.6066 11.5979 23.8489 11.122 23.8489 11.122C23.5842 11.5805 23.1669 11.9693 22.7048 12.3523C22.6779 12.422 23.1983 12.7063 23.8623 11.8126" fill="#EF7D00"/>
<path d="M21.5293 10.4082C21.5293 10.4082 21.3274 10.6055 21.0762 10.5939C21.139 10.9189 21.6594 10.6694 21.6594 10.6694C21.6594 10.6694 21.4082 11.0292 21.2287 11.0872C21.3364 11.2033 21.7895 11.1626 21.8658 11.1046C21.9421 11.0466 22.0767 10.8202 22.0767 10.8202C22.0767 10.8202 21.6101 11.5166 21.5428 11.5108C21.5338 11.5921 22.0318 11.5631 22.135 11.4412C22.2382 11.3193 22.4984 11.1394 22.4984 11.1394C22.4984 11.1394 21.8165 11.7546 21.785 11.7546C22.0408 11.8416 22.5523 11.6501 22.8798 11.389C22.3952 11.8068 22.3504 11.8823 22.1036 12.0215C22.3235 12.0854 22.4356 12.2769 23.1804 11.859C23.6066 11.5979 23.8489 11.122 23.8489 11.122C23.5842 11.5805 23.1669 11.9693 22.7048 12.3523C22.6779 12.422 23.1983 12.7063 23.8623 11.8126" stroke="black" stroke-width="0.0481989" stroke-linecap="round" stroke-linejoin="round"/>
<path d="M25.1367 12.3457C25.1367 12.3457 25.1816 12.6185 25.361 12.8274C25.5405 13.0363 25.554 13.2394 25.554 13.2394" fill="#EF7D00"/>
<path d="M25.1367 12.3457C25.1367 12.3457 25.1816 12.6185 25.361 12.8274C25.5405 13.0363 25.554 13.2394 25.554 13.2394" stroke="black" stroke-width="0.0481989" stroke-linecap="round" stroke-linejoin="round"/>
<path d="M25.0449 10.5703C25.0449 10.5703 25.1077 10.814 25.2917 10.9707C25.4801 11.1274 25.7628 11.6207 25.7852 11.7078C25.8069 11.8131 25.9153 12.5725 25.9064 12.6537" fill="#EF7D00"/>
<path d="M25.0449 10.5703C25.0449 10.5703 25.1077 10.814 25.2917 10.9707C25.4801 11.1274 25.7628 11.6207 25.7852 11.7078C25.8069 11.8131 25.9153 12.5725 25.9064 12.6537" stroke="black" stroke-width="0.0481989" stroke-linecap="round" stroke-linejoin="round"/>
<path d="M23.9027 10.9478C23.9161 11.0406 23.6379 11.5107 24.0193 12.062C23.6738 12.6075 23.6738 12.6772 23.6738 12.6772C23.6738 12.6772 23.8667 12.8164 24.2122 12.4334C24.782 13.3388 24.5921 13.7531 24.5921 13.7531" fill="#EF7D00"/>
<path d="M23.9027 10.9478C23.9161 11.0406 23.6379 11.5107 24.0193 12.062C23.6738 12.6075 23.6738 12.6772 23.6738 12.6772C23.6738 12.6772 23.8667 12.8164 24.2122 12.4334C24.782 13.3388 24.5921 13.7531 24.5921 13.7531" stroke="black" stroke-width="0.0481989" stroke-linecap="round" stroke-linejoin="round"/>
<path d="M24.5459 13.1132C24.5459 13.1132 24.4934 13.016 24.587 12.6528C24.6713 12.7841 24.765 12.8122 24.806 12.8653C24.8471 12.9184 25.2773 12.999 25.3047 13.3709" fill="#EF7D00"/>
<path d="M24.5459 13.1132C24.5459 13.1132 24.4934 13.016 24.587 12.6528C24.6713 12.7841 24.765 12.8122 24.806 12.8653C24.8471 12.9184 25.2773 12.999 25.3047 13.3709" stroke="black" stroke-width="0.0481989" stroke-linecap="round" stroke-linejoin="round"/>
<path d="M25.0514 9.70525C25.0514 9.67793 24.9648 9.43749 24.6416 9.73804C24.8148 9.75169 24.9859 9.88011 25.0514 9.70525Z" fill="#EF7D00" stroke="black" stroke-width="0.0481989" stroke-linecap="round" stroke-linejoin="round"/>
<path d="M28.1355 10.8047C28.1513 10.8149 29.1011 11.0811 29.4177 10.948C29.014 11.6442 28.2067 11.1732 28.2067 11.1732C28.6024 11.3268 28.6183 11.3166 28.7449 11.4599C28.7845 11.593 28.0168 11.5316 27.7635 11.3473C28.4679 11.6339 28.4837 11.6135 28.5075 11.7261C28.5392 11.8796 27.3519 11.6851 27.249 11.4804C27.5656 11.7977 27.7398 11.8592 27.9139 12.0025C27.7002 12.1254 27.3044 12.2482 26.5763 11.5828C27.5339 12.7089 28.3967 12.6372 28.5312 12.842C28.1988 13.4767 26.9087 12.4632 26.3151 11.9513C25.7215 11.4394 27.6131 13.1901 27.7873 13.1594C27.7002 13.3334 27.0749 13.1798 27.0353 13.0979" fill="#EF7D00"/>
<path d="M28.1355 10.8047C28.1513 10.8149 29.1011 11.0811 29.4177 10.948C29.014 11.6442 28.2067 11.1732 28.2067 11.1732C28.6024 11.3268 28.6183 11.3166 28.7449 11.4599C28.7845 11.593 28.0168 11.5316 27.7635 11.3473C28.4679 11.6339 28.4837 11.6135 28.5075 11.7261C28.5392 11.8796 27.3519 11.6851 27.249 11.4804C27.5656 11.7977 27.7398 11.8592 27.9139 12.0025C27.7002 12.1254 27.3044 12.2482 26.5763 11.5828C27.5339 12.7089 28.3967 12.6372 28.5312 12.842C28.1988 13.4767 26.9087 12.4632 26.3151 11.9513C25.7215 11.4394 27.6131 13.1901 27.7873 13.1594C27.7002 13.3334 27.0749 13.1798 27.0353 13.0979" stroke="black" stroke-width="0.0481989" stroke-linecap="round" stroke-linejoin="round"/>
<path d="M28.3803 11.9814C28.2695 12.0014 27.9371 12.0014 27.8896 11.9914L28.3803 11.9814Z" fill="#EF7D00"/>
<path d="M28.3803 11.9814C28.2695 12.0014 27.9371 12.0014 27.8896 11.9914" stroke="black" stroke-width="0.0481989" stroke-linecap="round" stroke-linejoin="round"/>
<path d="M21.252 10.2222C21.252 10.2222 21.9743 10.7155 22.2794 10.6806C22.1986 10.7793 22.0775 10.8199 22.0775 10.8199C22.1538 10.8605 22.3646 11.0056 22.6832 10.9128C22.6069 11.0114 22.5082 11.1217 22.5082 11.1217C22.5082 11.1217 22.7819 11.2552 23.0915 11.0462C22.9973 11.1971 22.9434 11.3074 22.9434 11.3074L23.1588 11.3248" fill="#EF7D00"/>
<path d="M21.252 10.2222C21.252 10.2222 21.9743 10.7155 22.2794 10.6806C22.1986 10.7793 22.0775 10.8199 22.0775 10.8199C22.1538 10.8605 22.3646 11.0056 22.6832 10.9128C22.6069 11.0114 22.5082 11.1217 22.5082 11.1217C22.5082 11.1217 22.7819 11.2552 23.0915 11.0462C22.9973 11.1971 22.9434 11.3074 22.9434 11.3074L23.1588 11.3248" stroke="black" stroke-width="0.0481989" stroke-linecap="round" stroke-linejoin="round"/>
</g>
<defs>
<clipPath id="clip0_8_30851">
<rect width="39" height="55" rx="19.5" fill="white"/>
</clipPath>
</defs>
</svg>
