<svg width="37" height="55" viewBox="0 0 37 55" fill="none" xmlns="http://www.w3.org/2000/svg">
<g clip-path="url(#clip0_8_31427)">
<path d="M-9.25 0H46.25V55H-9.25V0Z" fill="#E70013"/>
<path d="M18.5 41.25C23.6086 41.25 27.75 35.0939 27.75 27.5C27.75 19.9061 23.6086 13.75 18.5 13.75C13.3914 13.75 9.25 19.9061 9.25 27.5C9.25 35.0939 13.3914 41.25 18.5 41.25Z" fill="white"/>
<path d="M18.5 37.8125C22.3315 37.8125 25.4375 33.1954 25.4375 27.5C25.4375 21.8046 22.3315 17.1875 18.5 17.1875C14.6685 17.1875 11.5625 21.8046 11.5625 27.5C11.5625 33.1954 14.6685 37.8125 18.5 37.8125Z" fill="#E70013"/>
<path d="M20.3498 35.75C23.415 35.75 25.8998 32.0563 25.8998 27.5C25.8998 22.9437 23.415 19.25 20.3498 19.25C17.2846 19.25 14.7998 22.9437 14.7998 27.5C14.7998 32.0563 17.2846 35.75 20.3498 35.75Z" fill="white"/>
<path d="M16.1875 27.4997L23.7175 23.8629L19.0643 33.3847V21.6147L23.717 31.1366L16.1875 27.4997Z" fill="#E70013"/>
</g>
<defs>
<clipPath id="clip0_8_31427">
<rect width="37" height="55" rx="18.5" fill="white"/>
</clipPath>
</defs>
</svg>
