<svg width="38" height="55" viewBox="0 0 38 55" fill="none" xmlns="http://www.w3.org/2000/svg">
<g clip-path="url(#clip0_8_30744)">
<path fill-rule="evenodd" clip-rule="evenodd" d="M0 0V55H57V0H0Z" fill="#3C8BDC"/>
<path d="M0 0H57V27.5H0V0Z" fill="#0BAC24"/>
<path d="M0 15V42L38 28.5L0 15Z" fill="#EB0433"/>
<path d="M8.1268 19.2501C8.04056 19.2518 7.93226 19.2711 7.80764 19.3124C7.39461 19.4492 7.0056 19.9779 6.75043 20.6057C6.67207 20.7378 6.45714 20.8562 6.35729 20.8721C6.34778 20.7894 6.38182 20.5561 6.44662 20.3795C6.50152 20.2299 6.73195 19.9227 6.99337 19.661L7.25182 19.4024L6.91567 19.4533C6.26202 19.552 5.70534 20.0606 5.43834 20.8079C5.36905 21.0019 5.29617 21.3747 5.26456 21.6916C5.23541 21.9839 5.20333 22.1789 5.16927 22.2839C5.15103 22.3401 5.13949 22.3501 5.13949 22.3501C5.13625 22.35 5.10461 22.3065 5.06831 22.1561C5.01216 21.9234 5.03331 21.6652 5.16291 21.159C5.21053 20.9731 5.2584 20.7512 5.17291 20.7512C5.13563 20.7512 5.01093 20.8535 4.88593 20.9677C4.43039 21.3841 4.15436 22.1816 4.11694 23.1631C4.09894 23.6352 4.11023 23.8367 4.17246 24.0401C4.24261 24.2694 4.2561 24.4991 4.23271 24.5595C4.08201 24.4713 3.9076 23.4575 3.98597 22.9154L4.05692 22.4242L3.82949 22.7221C3.6226 22.9932 3.42895 23.4418 3.31283 23.9139C3.22639 24.2653 3.2121 24.4461 3.22963 24.9581C3.24831 25.5039 3.27245 25.6405 3.42984 26.088C3.52727 26.365 3.69062 26.7169 3.7939 26.8701C3.95646 27.1113 3.99161 27.2941 3.94449 27.3488C3.83906 27.2932 3.48995 26.7943 3.38456 26.5159C3.32716 26.3643 3.24559 26.0714 3.20357 25.8651L3.09245 25.3194L2.96691 25.7975C2.91343 26.0013 2.87299 26.3947 2.85812 26.8415C2.83801 27.4458 2.8499 27.6349 2.93334 28.0106C3.10499 28.7835 3.55043 29.5566 4.08096 30.0045C4.2937 30.1841 4.37653 30.3068 4.38237 30.4029C4.35913 30.4006 4.32179 30.387 4.25217 30.3534C3.85543 30.1619 3.45658 29.7471 3.11928 29.1711L2.89519 28.7886L2.92558 29.3055C3.02714 31.0318 3.96466 32.5559 5.16446 32.9427C5.3307 32.9963 5.51846 33.0415 5.58761 33.042C5.67648 33.0428 5.83725 33.2113 5.86598 33.2998C5.85883 33.3014 5.85494 33.3032 5.84396 33.3043C5.67175 33.3214 5.18971 33.2435 4.81645 33.1236C4.60559 33.0559 4.27808 32.9023 4.08841 32.7824C3.93271 32.6841 3.80203 32.6173 3.75947 32.6208C3.75229 32.6214 3.73453 32.6267 3.72404 32.6437C3.70547 32.674 3.71437 32.701 3.72086 32.7162C4.20223 33.8437 5.07494 34.7808 6.06767 35.2387C6.68964 35.5255 7.12849 35.6082 8.15518 35.6343C8.70566 35.6483 9.17614 35.6595 9.21542 35.6589C9.18979 35.6929 9.14742 35.7345 9.07995 35.7871C8.98179 35.8638 8.77112 36.0611 8.61074 36.2259L8.28832 36.5573L8.41192 36.7859C8.46501 36.8841 8.50332 36.9891 8.60438 36.9264C8.68069 36.879 8.80239 36.7303 9.06428 36.4262C9.2147 36.2515 9.34106 36.1334 9.36104 36.1205C9.36878 36.2029 9.33455 36.4206 9.26202 36.6195C9.22725 36.7148 9.19849 36.8082 9.19882 36.8443C9.1989 36.8525 9.19931 36.8743 9.21534 36.8914C9.23442 36.9118 9.36699 36.9339 9.51333 36.9564L9.82908 37.0051L9.80047 36.6338C9.78792 36.4707 9.79569 36.2581 9.81598 36.1623L9.83769 36.0598L10.2189 36.5537L10.2304 36.5688H10.2314C10.437 36.8345 10.6227 37.0607 10.6806 37.1095C10.6872 37.1151 10.6996 37.125 10.7135 37.125C10.7543 37.125 10.8264 37.0408 10.8843 36.9566L11.0159 36.7649L10.7435 36.4299C10.6087 36.2642 10.36 36.0155 10.1909 35.877C10.081 35.787 10.0144 35.7303 9.97983 35.6926C9.98257 35.6916 9.9851 35.6905 9.9882 35.6895C10.0393 35.672 10.5643 35.643 11.1413 35.6311C12.078 35.6119 12.2513 35.5909 12.7006 35.4428C13.3198 35.2387 13.8308 34.9568 14.2599 34.5811C14.645 34.2439 15.07 33.6739 15.2265 33.281L15.3974 32.8521L15.0567 33.0845C14.7724 33.2783 14.5122 33.3636 14.0525 33.4099C13.8471 33.4306 13.579 33.4621 13.4566 33.4798C13.2841 33.5047 13.2796 33.488 13.2796 33.4701C13.2796 33.3871 13.4585 33.2586 13.7494 33.2078C14.0827 33.1496 14.5475 32.9142 14.8446 32.6535C15.5236 32.0577 16.028 30.8035 16.0304 29.7053L16.0314 29.2114L15.8779 29.5143C15.6699 29.9251 14.9531 30.637 14.7677 30.637C14.7197 30.637 14.7182 30.6213 14.7424 30.5657C14.7654 30.5126 14.812 30.4454 14.884 30.372C15.4202 29.8259 15.8661 29.0329 16.057 28.2827C16.1824 27.79 16.1797 26.6723 16.0534 26.0855L15.9261 25.494L15.8084 26.036C15.6985 26.542 15.3069 27.4413 15.1418 27.6139C15.1246 27.6319 15.1167 27.6354 15.1145 27.6355C15.0702 27.6385 15.1024 27.3892 15.2767 27.0752C15.6487 26.4047 15.7825 25.8081 15.7341 25.0261C15.6995 24.4655 15.5051 23.7834 15.2363 23.2757L14.9923 22.8149L14.9566 23.6234C14.929 24.2471 14.8584 24.7032 14.7867 24.8427C14.7717 24.872 14.7629 24.8747 14.7629 24.8747C14.7629 24.8747 14.7594 24.8737 14.753 24.865C14.7119 24.8088 14.7091 24.6015 14.7763 24.0197C14.9048 22.9064 14.6021 21.8372 13.9618 21.1437C13.8679 21.042 13.7776 20.9576 13.7429 20.9502C13.7356 20.9487 13.7167 20.9474 13.7025 20.9679C13.6919 20.9832 13.6901 21.0072 13.69 21.0146C13.6891 21.0719 13.7217 21.2842 13.7663 21.5214C13.8492 21.9621 13.8601 22.3546 13.8149 22.4795C13.8063 22.5032 13.7989 22.505 13.7989 22.505C13.7989 22.505 13.8031 22.5081 13.7975 22.5003C13.7657 22.4565 13.7212 22.2942 13.6618 21.9726C13.603 21.6551 13.5034 21.2486 13.4394 21.0681C13.2151 20.4357 12.719 19.8682 12.2241 19.6778C12.0237 19.6007 11.9165 19.5593 11.8784 19.5645C11.8648 19.5664 11.8372 19.5793 11.8333 19.6197C11.828 19.6753 11.8868 19.7316 11.955 19.8061C12.3153 20.2 12.604 20.7455 12.5673 20.8766C12.5585 20.9077 12.5376 20.9256 12.4381 20.8999C12.3791 20.8846 12.3367 20.8646 12.299 20.8392C12.2944 20.816 12.2876 20.7928 12.2786 20.7697C12.0256 20.1178 11.5971 19.6159 11.1733 19.4755C10.6748 19.3103 10.4366 19.4986 10.8326 19.7449C11.0365 19.8716 11.1673 20.0614 11.1673 20.2302C11.1673 20.3233 11.1222 20.2958 10.9893 20.1216C10.5963 19.6068 9.71728 19.4562 9.95602 19.9446C10.0853 20.2092 10.3016 20.3457 10.7355 20.4364C11.1502 20.5232 11.2474 20.5818 11.0351 20.617C10.733 20.6671 10.6005 20.6533 10.4692 20.5579C10.2127 20.3713 10.1995 20.4854 10.4383 20.8234C10.7508 21.2657 11.0462 21.4332 11.4425 21.3928C11.772 21.359 11.9899 21.2892 12.1246 21.2004C12.2002 21.2042 12.2663 21.2386 12.402 21.3235C12.5631 21.4244 12.6395 21.5165 12.6395 21.542C12.6395 21.5693 12.6243 21.589 12.2266 21.5661C11.9769 21.5518 11.739 21.5157 11.7004 21.492C11.6675 21.4718 11.6318 21.4484 11.6047 21.4687C11.5536 21.5069 11.5927 21.596 11.6334 21.7036C11.7485 22.0079 12.0455 22.3687 12.3355 22.564C12.5691 22.7214 12.6609 22.7429 13.1093 22.7455C13.5683 22.7481 13.6032 22.7609 13.6999 22.8851C13.7618 22.9647 13.8054 23.0702 13.8054 23.1139C13.8054 23.1611 13.8165 23.1715 13.5816 23.1382C13.3479 23.105 12.9785 22.9837 12.7939 22.8799C12.7742 22.8689 12.7427 22.8607 12.7216 22.8962C12.707 22.9206 12.7084 22.9557 12.7116 22.977C12.7365 23.1387 13.0069 23.665 13.2067 23.9169C13.473 24.2524 14.0445 24.6682 14.332 24.732C14.4519 24.7586 14.4804 24.7902 14.5555 25.0225C14.6063 25.1794 14.6448 25.3373 14.6448 25.3746C14.6448 25.4114 14.5798 25.4221 14.5593 25.3768C14.5339 25.3205 14.4072 25.2748 14.2847 25.2496C14.0402 25.1995 13.8048 25.0494 13.5965 24.8098L13.4488 24.64L13.3856 24.7022L13.4788 25.0253C13.6741 25.7031 13.7244 25.8379 13.9274 26.2269C14.143 26.6401 14.5225 27.1471 14.764 27.3422C14.8626 27.4219 14.8779 27.4588 14.8773 27.66C14.877 27.7847 14.8672 27.8781 14.851 27.9411C14.8308 28.0196 14.8129 28.0269 14.7857 28.0003C14.7495 27.965 14.5967 27.8175 14.4459 27.6723C14.1404 27.3782 14.0152 27.2028 13.9121 26.9353L13.8382 26.7439L13.7625 26.7693L13.761 27.1838C13.7579 28.0304 13.9527 29.071 14.2286 29.6754C14.5147 30.3024 14.5139 30.3184 14.39 30.7015C14.3442 30.8431 14.305 30.9302 14.2712 30.9751C14.2555 30.9959 14.2458 30.9987 14.2458 30.9987C14.244 30.9982 14.2291 30.9814 14.2176 30.8998C14.2058 30.817 14.1329 30.636 14.0563 30.4837C13.8482 30.0701 13.7394 29.6823 13.7029 29.2283L13.6526 28.6044L13.4927 29.0894C13.289 29.7077 13.226 30.3165 13.2198 31.6778L13.2141 32.9307L13.0479 33.1921C12.9217 33.3905 12.8172 33.5192 12.7427 33.5809C12.7014 33.6151 12.6826 33.6151 12.681 33.6151C12.6803 33.6105 12.6797 33.6039 12.6803 33.5925C12.6822 33.5589 12.6921 33.5089 12.7141 33.4375C12.7535 33.3098 12.7959 32.8862 12.8151 32.4813C12.8359 32.041 12.8874 31.5927 12.9443 31.3492C12.9921 31.1449 13.0272 30.9573 13.0254 30.9022C13.0252 30.8936 13.0253 30.8742 13.012 30.856C12.9876 30.8228 12.9552 30.8408 12.9388 30.8526C12.8128 30.9438 12.3606 31.5978 12.1046 32.0621C11.9387 32.3628 11.6773 32.9453 11.5234 33.3566C11.2191 34.17 11.0907 34.407 10.8678 34.5955C10.7501 34.6949 10.034 35.1143 9.94291 35.1468C9.93359 35.0056 9.91868 34.6303 9.90546 34.1816C9.87848 33.2659 9.84688 32.8726 9.75836 32.3603C9.74612 32.2894 9.74974 32.2745 9.82582 32.2484C9.90461 32.2214 10.1071 31.9953 10.2822 31.7525L10.5821 31.3366L10.7853 31.4229C11.2742 31.6305 11.9312 31.4168 12.2472 30.9422C12.373 30.7533 12.5304 30.4538 12.5566 30.3606C12.5598 30.3493 12.5644 30.3243 12.5609 30.3065C12.5503 30.2519 12.5119 30.259 12.4953 30.2698C12.4714 30.2854 12.3356 30.375 12.1929 30.4694C11.942 30.6353 11.7645 30.6973 11.6984 30.6837C11.6968 30.6834 11.697 30.683 11.6958 30.6826C11.7072 30.6435 11.7612 30.5669 11.8896 30.4508C12.1298 30.2338 12.3919 29.7877 12.4752 29.4499C12.5035 29.3351 12.5472 29.17 12.4731 29.17C12.4521 29.17 12.3672 29.2174 12.275 29.27C12.1874 29.3201 12.0256 29.3614 11.9147 29.3614C11.6354 29.3614 11.4468 29.4565 11.3124 29.6797C11.256 29.7733 11.2002 29.799 11.1721 29.7918C11.154 29.7871 11.1324 29.7604 11.1503 29.669C11.1668 29.5851 11.1798 29.4184 11.1802 29.2977C11.1806 29.1499 11.2116 29.0683 11.3414 28.9058L11.5152 28.6883L11.4748 28.5959L11.3211 28.6691C11.0009 28.8217 10.7208 29.1412 10.5791 29.5188C10.4585 29.8403 10.445 29.9418 10.4631 30.3761C10.4763 30.693 10.4629 30.892 10.426 30.9907C10.3492 31.1964 10.0465 31.5669 9.82032 31.7246C9.64591 31.8463 9.66834 31.8303 9.64019 31.7584C9.47244 31.3297 9.21951 29.6871 9.22681 29.0664C9.23383 28.4694 9.25726 28.4272 9.49146 28.3455C9.6202 28.3006 9.81824 28.1729 9.9309 28.0623C10.1448 27.8522 10.4172 27.8162 10.6078 27.9651C10.9205 28.2096 11.5381 27.9931 11.8432 27.5488C11.9202 27.4368 11.9813 27.3524 11.9528 27.2932C11.9217 27.2285 11.8427 27.2887 11.7453 27.3582C11.5983 27.4631 11.3573 27.4748 11.1609 27.3811C11.0774 27.3413 11.0469 27.3019 11.0448 27.2913C11.0448 27.2913 11.0846 27.2408 11.2276 27.2146C11.4996 27.165 11.8046 26.9048 12.0086 26.5538C12.0873 26.4185 12.1602 26.293 12.1602 26.258C12.1602 26.1898 12.1299 26.2025 12.1202 26.2017C12.0946 26.1995 12.0209 26.2309 11.936 26.2708C11.8025 26.3336 11.7428 26.3324 11.5425 26.2545C11.3013 26.1607 11.2662 26.1628 11.0762 26.2982C10.9856 26.3628 10.9326 26.3999 10.9018 26.414C10.9016 26.4141 10.9015 26.414 10.9013 26.4141C10.9011 26.4062 10.9009 26.3979 10.9009 26.3869C10.9009 26.3204 10.9486 26.2284 11.1823 25.8988L11.3502 25.6623H11.1194C10.8993 25.6623 10.5696 25.9097 10.4558 26.1614C10.4018 26.2811 10.304 26.5766 10.2371 26.8202C10.076 27.4067 9.93704 27.6359 9.64739 27.811C9.50951 27.8944 9.37855 27.9583 9.36708 27.9583C9.35424 27.9583 9.36321 27.8245 9.58854 27.2528C9.85145 26.5859 10.0597 25.9187 10.1521 25.4443C10.2231 25.0801 10.2787 24.9804 10.5759 24.7055C10.7843 24.5127 10.8033 24.5061 11.0684 24.54C11.5201 24.5977 11.7662 24.5263 12.0001 24.2525C12.0808 24.158 12.1405 24.073 12.1736 24.0088C12.244 23.8718 12.1944 23.7784 12.0695 23.8496C11.9247 23.9323 11.6075 23.9963 11.5515 23.9669C11.5074 23.9437 11.507 23.919 11.51 23.9082C11.5163 23.8849 11.5473 23.8461 11.6132 23.8263C11.8357 23.7595 12.2534 23.1853 12.2534 22.9249C12.2534 22.8581 12.2263 22.8019 12.1681 22.8294C12.1478 22.8389 12.1195 22.8626 12.0866 22.8942C12.0301 22.9483 11.9029 22.9834 11.7385 22.9834C11.4801 22.9834 11.4399 23.0037 11.3094 23.2273C11.2614 23.3097 11.2208 23.3637 11.1913 23.3981C11.186 23.3635 11.1808 23.3218 11.1808 23.2643C11.1808 23.1145 11.2156 23.0157 11.3491 22.8238L11.593 22.4733H11.3735C11.1836 22.4733 10.9247 22.7321 10.8203 23.0136C10.7717 23.1447 10.7128 23.4636 10.6869 23.7253C10.6479 24.12 10.6207 24.2087 10.4992 24.3802C10.3809 24.5471 10.3154 24.5834 10.3091 24.578C10.3091 24.578 10.2978 24.5425 10.3141 24.4369C10.4592 23.4945 10.4485 23.0829 10.258 22.3554C10.1495 21.9408 10.1508 21.9282 10.2159 21.7418C10.2594 21.617 10.2945 21.388 10.2943 21.2343C10.2937 20.9362 10.1219 20.3535 9.98439 20.1978C9.94023 20.1479 9.87705 20.113 9.85466 20.2283C9.84242 20.2913 9.84117 20.416 9.84117 20.6389C9.84117 21.0788 9.8333 21.07 9.78813 21.07C9.7488 21.07 9.73343 21.0456 9.73339 21.0437C9.7319 20.974 9.6063 20.7619 9.46571 20.5579L9.16671 20.1239L9.09483 20.3822C9.02404 20.6368 9.07414 20.8751 9.24658 21.1714C9.30463 21.2712 9.34163 21.3467 9.35963 21.3999C9.37937 21.4581 9.37461 21.4525 9.35692 21.4525C9.29705 21.4522 9.01676 21.2217 8.94238 21.0981C8.92046 21.0616 8.898 21.0236 8.87127 21.0216C8.80157 21.0164 8.82379 21.1293 8.83925 21.2272C8.91461 21.705 9.28845 22.0895 9.70865 22.1365C10.0703 22.1769 10.099 22.2307 10.0937 23.3569C10.0901 24.1219 10.0727 24.3026 9.92616 25.0841C9.83551 25.5677 9.74777 25.971 9.74455 25.9754C9.70783 26.0256 9.51155 25.8968 9.23549 25.5436L8.94602 25.1733L8.95013 24.8041C8.95271 24.5717 8.92275 24.2954 8.87748 24.1485C8.8118 23.9354 8.43547 23.3273 8.30328 23.2045C8.28797 23.1903 8.26509 23.1748 8.24822 23.1748C8.15996 23.1748 8.21582 23.359 8.26388 23.4931C8.30954 23.6205 8.3603 23.8427 8.37686 23.9876C8.4013 24.2013 8.39181 24.1952 8.37485 24.1952C8.35598 24.1952 8.32342 24.1608 8.31056 24.1054C8.2608 23.891 8.01885 23.7488 7.76412 23.7488C7.59741 23.7488 7.55364 23.7232 7.43891 23.5586L7.19489 23.2084L7.25708 23.5925C7.32579 24.0164 7.49246 24.3693 7.7259 24.5773C7.88631 24.7202 7.92429 24.7996 7.92146 24.8065C7.91138 24.8308 7.81292 24.8573 7.59702 24.8448L7.15239 24.8191L7.33415 25.089C7.55962 25.4236 7.79348 25.514 8.38376 25.5156L8.89981 25.517L9.18982 25.8651C9.57982 26.3334 9.59246 26.4019 9.46199 26.6845C8.97054 27.7492 8.74062 28.994 8.87546 29.8908C8.92147 30.1968 8.92077 30.3309 8.90981 30.3405C8.90362 30.346 8.82761 30.2876 8.67168 30.0786C8.33651 29.6295 8.30568 29.5369 8.27784 28.8989C8.24275 28.0943 8.04627 27.6667 7.5736 27.3827C7.47597 27.3241 7.40666 27.2863 7.36765 27.271C7.30534 27.2464 7.23944 27.2874 7.30221 27.3765C7.31517 27.3949 7.33987 27.4212 7.37261 27.4525C7.42049 27.4984 7.47955 27.6193 7.50327 27.7263C7.58868 28.1118 7.58619 28.3053 7.56724 28.3194C7.56421 28.3217 7.51642 28.2974 7.42899 28.1484C7.29559 27.921 7.25122 27.8944 7.02011 27.8944C6.71734 27.8944 6.50784 27.8084 6.38038 27.6447L6.20351 27.4175V27.6857C6.20351 28.0936 6.65868 28.8056 7.05523 29.0466C7.16191 29.1114 7.22963 29.1971 7.22963 29.2028C7.22963 29.2028 7.22931 29.2024 7.22009 29.2086C7.15403 29.2534 6.95125 29.2391 6.80345 29.1492C6.60198 29.0267 6.37822 28.9297 6.30943 28.9387C6.29961 28.94 6.28257 28.9454 6.27121 28.9609C6.25373 28.9848 6.25506 29.0165 6.25795 29.0353C6.277 29.1597 6.49528 29.5115 6.6286 29.6399C7.09494 30.0892 7.58546 30.201 7.98008 29.9324L8.15625 29.8124L8.36446 30.111C8.46465 30.2546 8.54894 30.389 8.57715 30.4467C8.5778 30.448 8.57837 30.4494 8.57894 30.4506C8.57945 30.4517 8.5799 30.4526 8.58033 30.4536C8.58073 30.4545 8.58108 30.4554 8.58142 30.4561C8.5817 30.4568 8.58203 30.4575 8.58227 30.4581C8.58247 30.4586 8.58263 30.459 8.58282 30.4594C8.58297 30.4598 8.58317 30.4602 8.58328 30.4605L8.58204 30.4479C8.58204 30.5083 8.69725 30.6421 8.8194 30.7695C9.06519 31.0259 9.13796 31.1817 9.14011 31.4089C9.14116 31.5191 9.20184 31.7952 9.27294 32.0346C9.40112 32.4664 9.39815 32.4454 9.38639 33.8751C9.38072 34.564 9.36891 35.1271 9.35956 35.2653C9.21909 35.2068 8.70048 34.829 8.4938 34.6215C8.24515 34.3719 7.97164 33.9016 7.67961 33.2154C7.16628 32.0093 6.81465 31.4205 6.32494 30.9561C6.25303 30.888 6.19108 30.8415 6.15179 30.8237C6.10215 30.8012 6.03898 30.8234 6.06153 30.9142C6.06827 30.9413 6.08812 30.9796 6.11442 31.0191C6.17168 31.1052 6.25758 31.6609 6.29928 32.3048C6.32147 32.6475 6.37169 33.0185 6.41776 33.1404C6.48403 33.3156 6.4689 33.3796 6.42474 33.3796C6.42078 33.3796 6.29564 33.2522 6.16172 33.079L5.93002 32.7793L5.92328 31.8906C5.91464 30.7541 5.73035 29.3562 5.51455 28.8236C5.50042 28.7887 5.48752 28.7582 5.47632 28.7398C5.43842 28.6776 5.39334 28.7028 5.3766 28.7749C5.36613 28.82 5.35753 28.9036 5.34489 29.0343C5.30977 29.3972 5.17785 29.8563 5.0624 30.0308C5.01394 30.104 4.95322 30.3011 4.92166 30.4711C4.88979 30.6428 4.84458 30.7265 4.84079 30.7301C4.83972 30.729 4.83856 30.7279 4.83722 30.7265C4.80016 30.6862 4.73491 30.5618 4.67702 30.4079L4.55427 30.0816L4.71657 29.7344C5.07953 28.9584 5.25986 28.0559 5.25541 27.043L5.25269 26.4503L5.17538 26.4297L5.09644 26.6922C4.99298 27.0358 4.93291 27.1238 4.68392 27.2963C4.56091 27.3816 4.40272 27.5428 4.33327 27.6557C4.26 27.7748 4.21033 27.819 4.19021 27.8186C4.1696 27.8182 4.13864 27.7261 4.13864 27.4431C4.13864 27.2508 4.15053 27.2195 4.35406 27.0246C4.43944 26.9429 4.5038 26.8555 4.53977 26.8063C5.08765 26.057 5.21492 25.7262 5.41762 25.0745C5.4922 24.8281 5.54204 24.6429 5.56449 24.5348C5.5779 24.4702 5.59222 24.3987 5.55766 24.3683C5.50623 24.323 5.45877 24.4371 5.40212 24.5739C5.28542 24.8558 5.1517 24.9591 4.81535 25.0066C4.67381 25.0266 4.52227 25.0823 4.48192 25.1488C4.4296 25.235 4.32521 25.2272 4.32521 25.171C4.32521 25.126 4.3656 24.9542 4.41834 24.7865C4.5073 24.5037 4.49998 24.5106 4.73184 24.4778C5.09476 24.4266 5.3853 24.23 5.69398 23.8313C5.92982 23.5266 6.2355 22.9396 6.23686 22.7567C6.23706 22.7322 6.22609 22.7017 6.20359 22.6919C6.16506 22.6752 6.11236 22.7288 6.06502 22.788C5.92977 22.9573 5.84077 22.9863 5.50207 22.9345C5.24815 22.8956 5.22773 22.8728 5.22051 22.8038C5.2156 22.7569 5.25249 22.635 5.31178 22.5475L5.4077 22.4061L5.60272 22.5241C5.78284 22.633 5.89743 22.6557 6.12039 22.6281C6.51156 22.5796 6.97714 22.2623 7.16527 21.9071C7.24087 21.7644 7.30996 21.6163 7.30996 21.568C7.30996 21.4724 7.18355 21.4802 7.08075 21.499C6.98405 21.5168 6.76754 21.5121 6.60076 21.4877C6.41226 21.4601 6.33647 21.4151 6.33293 21.3962C6.33089 21.3853 6.37877 21.3152 6.54206 21.2118C6.69373 21.1157 6.75302 21.0474 6.95777 21.0493C7.09222 21.1108 7.29097 21.1988 7.53832 21.2297C7.93464 21.2702 8.23007 21.1026 8.54257 20.6603C8.78131 20.3223 8.76809 20.2084 8.51163 20.3949C8.38037 20.4903 8.24779 20.504 7.94573 20.454C7.73343 20.4187 7.83059 20.3601 8.24528 20.2734C8.67926 20.1826 8.89552 20.0462 9.02481 19.7816C9.26355 19.2933 8.38449 19.4438 7.99148 19.9585C7.85863 20.1327 7.81352 20.1603 7.81352 20.0672C7.81352 19.8984 7.94443 19.7085 8.14827 19.5818C8.44531 19.3971 8.38554 19.2449 8.1268 19.2501Z" fill="#FBC724"/>
</g>
<defs>
<clipPath id="clip0_8_30744">
<rect width="38" height="55" rx="19" fill="white"/>
</clipPath>
</defs>
</svg>
