<svg width="37" height="57" viewBox="0 0 37 57" fill="none" xmlns="http://www.w3.org/2000/svg">
<g clip-path="url(#clip0_8_31127)">
<path d="M0 0H55.52V57H0V0Z" fill="white"/>
<path d="M0 0H55.52V14.25H0V0Z" fill="#FFD100"/>
<path d="M0 28.5H55.52V57H0V28.5Z" fill="#EF3340"/>
<path d="M0 42.75H55.52V57H0V42.75Z" fill="#003DA5"/>
<path d="M30.8333 28.5L0 57V0L30.8333 28.5Z" fill="#009639"/>
<path d="M12.8661 15.5312C10.8074 15.9126 8.91079 17.4428 7.53489 19.8326C6.15899 22.2224 5.3992 25.306 5.3992 28.5003C5.3992 31.6947 6.15899 34.7783 7.53489 37.168C8.91079 39.5578 10.8074 41.0881 12.8661 41.4694C11.5687 42.0236 10.2056 42.1083 8.88339 41.7168C7.56118 41.3254 6.31559 40.4685 5.24388 39.2129C4.17216 37.9574 3.30333 36.3372 2.70522 34.4789C2.1071 32.6206 1.7959 30.5745 1.7959 28.5003C1.7959 26.4261 2.1071 24.38 2.70522 22.5217C3.30333 20.6634 4.17216 19.0433 5.24388 17.7877C6.31559 16.5322 7.56118 15.6752 8.88339 15.2838C10.2056 14.8924 11.5687 14.9771 12.8661 15.5312Z" fill="white"/>
<path d="M12.8684 17.0215L13.926 22.0343L11.1582 18.9357H14.5797L11.8119 22.0343L12.8684 17.0215Z" fill="white"/>
<path d="M12.8684 22.959L13.926 27.9718L11.1582 24.8732H14.5797L11.8119 27.9718L12.8684 22.959Z" fill="white"/>
<path d="M12.8684 28.896L13.926 33.9088L11.1582 30.8102H14.5797L11.8119 33.9088L12.8684 28.896Z" fill="white"/>
<path d="M12.8684 34.8335L13.926 39.8463L11.1582 36.7477H14.5797L11.8119 39.8463L12.8684 34.8335Z" fill="white"/>
</g>
<defs>
<clipPath id="clip0_8_31127">
<rect width="37" height="57" rx="18.5" fill="white"/>
</clipPath>
</defs>
</svg>
