<svg width="39" height="55" viewBox="0 0 39 55" fill="none" xmlns="http://www.w3.org/2000/svg">
<g clip-path="url(#clip0_8_31319)">
<path d="M39 0H-19.5V55H39V0Z" fill="#20603D"/>
<path d="M39 0H-19.5V41.25H39V0Z" fill="#FAD201"/>
<path d="M39 0H-19.5V27.5H39V0Z" fill="#00A1DE"/>
<path d="M34.8107 14.3689L30.4553 14.7278L34.5964 16.6643L30.3235 15.4212L33.9682 18.8032L30.069 16.043L32.9688 20.64L29.709 16.5506L31.6663 22.0494L29.2682 16.9095L30.1496 22.9354L28.7765 17.0953L28.5219 23.2376L28.4678 14.2925L34.8107 14.3689Z" fill="#E5BE01"/>
<path d="M34.8107 14.3689L30.4553 14.01L34.5964 12.0735L30.3235 13.3165L33.9682 9.93455L30.069 12.6948L32.9688 8.09777L29.709 12.1872L31.6663 6.68836L29.2682 11.8283L30.1496 5.80237L28.7765 11.6425L28.5219 5.50017L28.4678 14.4453L34.8107 14.3689Z" fill="#E5BE01"/>
<path d="M22.2313 14.3684L26.5867 14.7273L22.4456 16.6638L26.7185 15.4208L23.0738 18.8028L26.973 16.0425L24.0732 20.6395L27.333 16.5501L25.3757 22.0489L27.7738 16.909L26.8924 22.9349L28.2655 17.0949L28.5201 23.2371L28.5742 14.292L22.2313 14.3684Z" fill="#E5BE01"/>
<path d="M22.2313 14.3684L26.5867 14.0095L22.4456 12.073L26.7185 13.3161L23.0738 9.93406L26.973 12.6943L24.0732 8.09728L27.333 12.1867L25.3757 6.68787L27.7738 11.8278L26.8924 5.80188L28.2655 11.642L28.5201 5.49969L28.5742 14.4448L22.2313 14.3684Z" fill="#E5BE01"/>
<path d="M28.52 16.9888C29.5461 16.9888 30.3779 15.8157 30.3779 14.3687C30.3779 12.9216 29.5461 11.7485 28.52 11.7485C27.4939 11.7485 26.6621 12.9216 26.6621 14.3687C26.6621 15.8157 27.4939 16.9888 28.52 16.9888Z" fill="#E5BE01" stroke="#00A1DE" stroke-width="0.188889"/>
</g>
<defs>
<clipPath id="clip0_8_31319">
<rect width="39" height="55" rx="19.5" fill="white"/>
</clipPath>
</defs>
</svg>
