<svg width="37" height="57" viewBox="0 0 37 57" fill="none" xmlns="http://www.w3.org/2000/svg">
<g clip-path="url(#clip0_8_31149)">
<path d="M0 0H55.9277V57H0V0Z" fill="#BF0A30"/>
<path d="M0 7.77246H56.0028H0ZM56.0028 18.1361H0H56.0028Z" fill="black"/>
<path d="M0 7.77246H56.0028M56.0028 18.1361H0" stroke="white" stroke-width="3.2456"/>
<path d="M0 0H16.8182V28.5H0V0Z" fill="#002868"/>
<path d="M0 28.5H55.9599H0ZM55.9599 38.8636H0H55.9599ZM0 49.2273H55.9599H0Z" fill="black"/>
<path d="M0 28.5H55.9599M55.9599 38.8636H0M0 49.2273H55.9599" stroke="white" stroke-width="3.24435"/>
<path d="M10.3577 15.5386L9.51758 6.94531L7.95845 14.3376L10.3577 15.5386Z" fill="white"/>
<path d="M8.67745 15.5386L9.51758 6.94531L11.0767 14.3376L8.67745 15.5386Z" fill="white"/>
<path d="M9.26998 16.2003L14.3154 12.314L9.48601 13.0297L9.26998 16.2003Z" fill="white"/>
<path d="M8.75075 14.1477L14.3154 11.9048L10.0281 16.8827L8.75075 14.1477Z" fill="white"/>
<path d="M9.02979 13.2925L6.70605 21.0054L10.6503 16.6815L9.02979 13.2925Z" fill="white"/>
<path d="M10.5267 15.0284L6.56836 20.7905L7.92728 13.6128L10.5267 15.0284Z" fill="white"/>
<path d="M8.54064 15.3204L12.499 20.501L11.3722 13.6141L8.54064 15.3204Z" fill="white"/>
<path d="M10.1855 13.2935L12.2129 21.0063L8.41684 17.0345L10.1855 13.2935Z" fill="white"/>
<path d="M10.2961 13.618L4.73145 12.4419L8.84009 16.8864L10.2961 13.618Z" fill="white"/>
<path d="M9.7769 15.9735L4.73145 12.5479L9.74802 12.3175L9.7769 15.9735Z" fill="white"/>
</g>
<defs>
<clipPath id="clip0_8_31149">
<rect width="37" height="57" rx="18.5" fill="white"/>
</clipPath>
</defs>
</svg>
