<svg width="38" height="55" viewBox="0 0 38 55" fill="none" xmlns="http://www.w3.org/2000/svg">
<g clip-path="url(#clip0_8_31433)">
<path d="M-9.5 0H47.5V55H-9.5V0Z" fill="black"/>
<path d="M-9.5 9.16699H47.5V22.917H-9.5V9.16699ZM-9.5 36.667H47.5V55.0003H-9.5V36.667Z" fill="#FCDC04"/>
<path d="M-9.5 18.3335H47.5V27.5002H-9.5V18.3335ZM-9.5 45.8335H47.5V55.0002H-9.5V45.8335Z" fill="#D90000"/>
<path d="M18.9988 36.0709C22.2693 36.0709 24.9205 32.2336 24.9205 27.5C24.9205 22.7665 22.2693 18.9292 18.9988 18.9292C15.7284 18.9292 13.0771 22.7665 13.0771 27.5C13.0771 32.2336 15.7284 36.0709 18.9988 36.0709Z" fill="white"/>
<path d="M17.9563 20.9355L17.5723 19.9116C17.7205 19.6971 17.9698 19.5312 18.3673 19.5312C18.3673 19.5703 18.3269 20.6527 18.3269 20.6527L17.9563 20.9355Z" fill="#D90000" stroke="black" stroke-width="0.0666667"/>
<path d="M18.3262 20.6626L18.3801 19.5314C18.3801 19.5314 19.1751 19.4632 19.6063 20.214C19.6131 20.2043 19.1819 21.0917 19.1819 21.0917L18.3262 20.6626Z" fill="#FCDC04" stroke="black" stroke-width="0.0666667"/>
<path d="M19.1963 21.0817L19.5871 20.2041C19.8498 20.6039 19.9576 20.8867 19.998 21.3158C20.0048 21.3256 19.3782 21.5401 19.3782 21.5303C19.3782 21.5206 19.203 21.0915 19.1963 21.0817Z" fill="#D90000" stroke="black" stroke-width="0.0666667"/>
<path d="M18.1513 35.5731C18.1513 35.5731 18.8857 34.3541 20.3141 34.6174C20.0985 34.1103 19.4045 34.1688 19.4045 34.1688C19.4045 34.1688 19.1889 31.7991 19.3573 31.6821C19.5257 31.565 20.2399 31.6918 20.2399 31.6918C20.3342 31.6918 20.496 31.3213 20.368 31.0872C20.2399 30.8531 19.8626 29.956 20.0176 29.7804C20.1726 29.6049 21.0148 29.878 21.0148 29.878L18.6364 25.4701C18.6364 25.4701 18.3938 23.8123 18.8789 23.0127C19.4651 22.3105 19.4045 21.5499 19.3843 21.5596C19.3034 20.7892 18.4949 20.2333 17.9492 20.9453C17.6257 21.5109 17.8413 21.94 17.8413 21.94C17.8413 21.94 16.9924 22.2715 16.9587 22.486C16.925 22.7006 17.9155 22.4471 17.9155 22.4471L17.8211 23.432C17.8211 23.432 15.8941 25.9674 17.3697 28.1616C17.3832 28.1519 17.4169 28.0641 17.4169 28.0641C17.4169 28.0641 17.9357 28.9906 18.4814 29.1953C18.9935 29.956 18.9463 29.8389 18.9463 29.8389C18.9463 29.8389 19.0474 31.0385 18.9531 31.2725C18.825 31.214 17.518 31.1458 17.3225 31.253C17.1474 31.331 16.4736 31.2822 16.642 32.8718C16.77 32.4427 16.8846 32.0624 16.8846 32.0624C16.8846 32.0624 16.8644 32.6377 17.0261 32.8426C16.9992 32.2379 17.1811 31.8284 17.1811 31.8284C17.1811 31.8284 17.2147 32.4915 17.3158 32.589C17.4169 32.6865 17.4169 31.5163 17.9761 31.6138C18.5353 31.7113 18.9396 31.6821 18.9396 31.6821C18.9396 31.6821 19.1282 33.9737 19.0676 34.1883C18.6633 34.0518 17.6999 34.2468 17.6392 34.5979C18.2051 34.5491 18.468 34.6466 18.468 34.6466C18.468 34.6466 18.0098 35.2318 18.1513 35.5731Z" fill="black" stroke="black" stroke-width="0.0666667"/>
<path d="M18.3784 23.0688C18.3784 23.0688 16.9762 25.3057 17.5812 27.0174C17.6134 26.7787 17.5993 26.6287 17.6195 26.6385C17.5859 26.6092 17.7934 26.8444 17.7776 26.7987C17.7821 26.6749 17.7144 26.4097 17.7144 26.4097C17.7776 26.4325 17.8409 26.4555 17.9041 26.4783C17.8672 26.3792 17.8303 26.2801 17.7934 26.1809C17.883 26.1961 17.9726 26.2113 18.0622 26.2266C18.0622 26.2266 17.9674 25.8605 17.999 25.8605C18.0306 25.8605 18.2203 25.8833 18.2203 25.8833C17.8216 24.8476 18.1977 23.9875 18.3784 23.0688Z" fill="#9CA69C" stroke="#9CA69C" stroke-width="0.0666667"/>
<path d="M18.8648 21.1499C18.8648 21.1499 18.9389 21.9203 18.6492 22.1446C18.602 22.1934 18.4201 22.2811 18.447 22.4372C18.4807 22.6517 18.5616 22.6127 18.6761 22.5737C18.9793 22.4957 19.3297 21.5595 18.8648 21.1499Z" fill="#9CA69C" stroke="#9CA69C" stroke-width="0.0666667"/>
<path d="M18.24 21.9814C18.3029 21.9814 18.354 21.9075 18.354 21.8164C18.354 21.7252 18.3029 21.6514 18.24 21.6514C18.177 21.6514 18.126 21.7252 18.126 21.8164C18.126 21.9075 18.177 21.9814 18.24 21.9814Z" fill="white"/>
<path d="M17.8957 22.457C17.8216 22.5448 17.4308 23.13 17.8149 23.3445C18.2124 23.1884 18.1046 23.0812 18.1922 22.9544C18.1945 22.6911 17.9945 22.6228 17.8957 22.457Z" fill="#D90000" stroke="black" stroke-width="0.0666667"/>
<path d="M18.7448 27.9863C18.7246 28.1131 18.637 28.5812 18.7583 28.942C19.0952 28.7372 19.2501 28.7957 19.3647 28.903C19.0885 28.5812 18.9807 28.4446 18.7448 27.9863Z" fill="#9CA69C" stroke="#9CA69C" stroke-width="0.0666667"/>
<path d="M19.3242 30.2002L19.3444 31.2924C19.3444 31.2924 19.6072 31.3607 19.7285 31.2924C19.8498 31.2241 19.7217 30.5318 19.3242 30.2002Z" fill="white" stroke="white" stroke-width="0.0666667"/>
<path d="M21.2297 30.3359C21.2297 30.3359 20.7446 28.6391 19.5049 28.21C18.2651 27.7809 18.4268 25.8696 18.5279 25.7525C18.5818 25.5867 18.6222 25.3332 18.9793 25.5771C19.3364 25.8208 20.9804 27.0203 21.2162 27.0788C21.452 27.1373 21.2499 30.375 21.2297 30.3359Z" fill="#9CA69C" stroke="black" stroke-width="0.0666667"/>
<path d="M20.0519 28.201C20.0317 28.2205 21.7094 29.6344 21.2041 30.8534C21.6825 30.3951 21.5275 29.5955 21.5275 29.5955C21.5275 29.5955 21.9183 31.068 20.9683 31.7897C21.0693 31.9165 21.1367 31.8871 21.1367 31.8871L20.975 32.1212C20.975 32.1212 20.9009 32.2967 21.541 31.8481C21.3658 32.053 21.3523 32.1992 21.3523 32.1992C21.3523 32.1992 21.3994 32.3943 21.8172 31.8676C21.4803 32.3943 21.4062 32.6673 21.4062 32.6576C22.3158 32.5405 24.2966 28.2595 20.7796 26.9917C20.9683 27.2746 20.9413 27.2355 20.9413 27.2355L20.0519 28.201Z" fill="#D90000" stroke="black" stroke-width="0.0666667"/>
<path d="M20.1256 27.7816C20.3547 28.0156 20.4355 28.0936 20.4624 28.2107C20.2536 28.1425 20.0649 28.1619 20.0649 28.1619C20.0649 28.1619 19.6135 27.5378 19.5327 27.489C19.472 27.489 19.1217 27.1672 19.1217 27.1672C18.9465 27.0404 18.7848 26.1628 19.4316 26.4163C20.0986 26.8746 20.1929 26.9137 20.1929 26.9137C20.458 27.034 20.723 27.1543 20.988 27.2745C21.1407 27.5216 21.2934 27.7686 21.4461 28.0157C21.4461 28.0157 20.6309 27.4305 20.5298 27.4208C20.7522 27.684 20.8802 28.0449 20.8802 28.0449C20.6219 27.9376 20.3974 27.8401 20.1256 27.7816Z" fill="white" stroke="black" stroke-width="0.0666667"/>
<path d="M16.9512 22.5445C16.9512 22.5445 17.7328 22.2714 17.827 22.3105L16.9512 22.5445Z" fill="black"/>
<path d="M16.9512 22.5445C16.9512 22.5445 17.7328 22.2714 17.827 22.3105" stroke="white" stroke-width="0.0666667"/>
</g>
<defs>
<clipPath id="clip0_8_31433">
<rect width="38" height="55" rx="19" fill="white"/>
</clipPath>
</defs>
</svg>
