<svg width="37" height="57" viewBox="0 0 37 57" fill="none" xmlns="http://www.w3.org/2000/svg">
<g clip-path="url(#clip0_8_31106)">
<path d="M46.25 0H-9.25V57H46.25V0Z" fill="white"/>
<path d="M46.25 0H-9.25V17.1H46.25V0Z" fill="black"/>
<path d="M46.25 19.9502H-9.25V37.0502H46.25V19.9502Z" fill="#BB0000"/>
<path d="M46.25 39.8999H-9.25V56.9999H46.25V39.8999Z" fill="#006600"/>
<path d="M11.8922 45.4219L12.2928 45.7781L23.0951 16.9543C23.7269 16.6935 24.0738 15.7679 24.4206 14.8424C24.6519 14.2253 25.5769 11.7572 25.9778 8.55C24.3753 10.6884 23.4503 13.1566 23.219 13.7736C22.8721 14.6992 22.5253 15.6248 22.6946 16.5981L11.8922 45.4219Z" fill="black"/>
<path d="M11.8922 45.4219L12.2928 45.7781L23.0951 16.9543C23.7269 16.6935 24.0738 15.7679 24.4206 14.8424C24.6519 14.2253 25.5769 11.7572 25.9778 8.55C24.3753 10.6884 23.4503 13.1566 23.219 13.7736C22.8721 14.6992 22.5253 15.6248 22.6946 16.5981L11.8922 45.4219Z" fill="white"/>
<path d="M25.1088 45.4219L24.7082 45.7781L13.9059 16.9543C13.2741 16.6935 12.9272 15.7679 12.5803 14.8424C12.3491 14.2253 11.4241 11.7572 11.0232 8.55C12.6257 10.6884 13.5507 13.1566 13.782 13.7736C14.1288 14.6992 14.4757 15.6248 14.3064 16.5981L25.1088 45.4219Z" fill="black"/>
<path d="M25.1088 45.4219L24.7082 45.7781L13.9059 16.9543C13.2741 16.6935 12.9272 15.7679 12.5803 14.8424C12.3491 14.2253 11.4241 11.7572 11.0232 8.55C12.6257 10.6884 13.5507 13.1566 13.782 13.7736C14.1288 14.6992 14.4757 15.6248 14.3064 16.5981L25.1088 45.4219Z" fill="white"/>
<path d="M14.1064 37.0499C14.8002 39.8999 17.1127 45.5999 18.5002 45.5999C19.8877 45.5999 22.2002 39.8999 22.8939 37.0499V19.9499C22.2002 17.0999 19.8877 11.3999 18.5002 11.3999C17.1127 11.3999 14.8002 17.0999 14.1064 19.9499V37.0499Z" fill="#BB0000"/>
<path d="M22.8945 37.0502C23.5883 34.2002 24.0508 31.3502 24.0508 28.5002C24.0508 25.6502 23.5883 22.8002 22.8945 19.9502C22.2008 22.8002 21.7383 25.6502 21.7383 28.5002C21.7383 31.3502 22.2008 34.2002 22.8945 37.0502Z" fill="black"/>
<path d="M14.1064 37.0502C13.4127 34.2002 12.9502 31.3502 12.9502 28.5002C12.9502 25.6502 13.4127 22.8002 14.1064 19.9502C14.8002 22.8002 15.2627 25.6502 15.2627 28.5002C15.2627 31.3502 14.8002 34.2002 14.1064 37.0502Z" fill="black"/>
<path d="M18.5002 30.6378C19.0111 30.6378 19.4252 29.6808 19.4252 28.5003C19.4252 27.3198 19.0111 26.3628 18.5002 26.3628C17.9893 26.3628 17.5752 27.3198 17.5752 28.5003C17.5752 29.6808 17.9893 30.6378 18.5002 30.6378Z" fill="white"/>
<path d="M18.7314 30.584C18.7314 30.584 19.6564 33.434 19.6564 38.0652C19.6564 42.6965 18.7314 45.5465 18.7314 45.5465V30.584Z" fill="white"/>
<path d="M18.2686 26.416C18.2686 26.416 17.3436 23.566 17.3436 18.9348C17.3436 14.3035 18.2686 11.4535 18.2686 11.4535V26.416Z" fill="white"/>
<path d="M18.2686 30.584C18.2686 30.584 17.3436 33.434 17.3436 38.0652C17.3436 42.6965 18.2686 45.5465 18.2686 45.5465V30.584Z" fill="white"/>
<path d="M18.7314 26.416C18.7314 26.416 19.6564 23.566 19.6564 18.9348C19.6564 14.3035 18.7314 11.4535 18.7314 11.4535V26.416Z" fill="white"/>
</g>
<defs>
<clipPath id="clip0_8_31106">
<rect width="37" height="57" rx="18.5" fill="white"/>
</clipPath>
</defs>
</svg>
