<svg width="37" height="55" viewBox="0 0 37 55" fill="none" xmlns="http://www.w3.org/2000/svg">
<g clip-path="url(#clip0_8_30679)">
<path d="M-9.25 0H46.25V55H-9.25V0Z" fill="#E32118"/>
<path d="M-9.25 0H46.25V36.6667H-9.25V0Z" fill="white"/>
<path d="M-9.25 0H46.25V18.3333H-9.25V0Z" fill="#3E9A00"/>
<path d="M-4.625 0V55L9.25 27.5L-4.625 0Z" fill="#0073CE"/>
<path d="M15.541 21.9727H21.4456V31.1668C21.4456 34.2606 18.8756 31.8452 18.4933 33.5272C18.1428 31.8474 15.5564 34.2835 15.5564 30.9835C15.5564 27.7752 15.541 21.9727 15.541 21.9727Z" fill="white" stroke="black" stroke-width="0.08"/>
<path d="M18.9169 32.0605C18.9169 32.0605 18.8398 32.1751 18.701 32.0835C18.5623 31.9918 18.5469 26.1939 18.5469 26.1939C18.8552 25.6897 19.1019 25.5293 19.1019 25.5293L19.2869 25.7585C18.5931 26.2855 18.6548 27.0418 18.7165 28.348C18.7319 28.8293 18.7319 29.448 18.809 30.0439C18.9169 30.8001 19.1327 31.4418 19.1481 31.923C19.1635 32.221 18.9169 32.0605 18.9169 32.0605Z" fill="#73452B" stroke="black" stroke-width="0.0166667"/>
<path d="M18.4386 25.3916H18.7161C18.4849 28.7145 18.6853 30.6854 18.6853 31.6479C18.6853 31.9687 18.8086 32.0833 18.7932 32.0833C18.5157 32.5416 18.377 32.0604 18.377 32.0604L18.4386 25.3916Z" fill="#73452B" stroke="black" stroke-width="0.0166667"/>
<path d="M18.0136 32.0557C17.7515 32.239 17.7141 31.8772 17.7295 31.8314C18.3 30.1127 18.5466 26.3314 18.0225 25.9189L18.0533 25.5522C18.2537 25.6439 18.4387 26.0335 18.4387 26.0335C18.5158 30.2731 18.4375 32.008 18.3912 32.0768C18.1137 32.5122 18.0091 32.0199 17.9937 31.9741" fill="#A36629"/>
<path d="M18.0136 32.0557C17.7515 32.239 17.7141 31.8772 17.7295 31.8314C18.3 30.1127 18.5466 26.3314 18.0225 25.9189L18.0533 25.5522C18.2537 25.6439 18.4387 26.0335 18.4387 26.0335C18.5158 30.2731 18.4375 32.008 18.3912 32.0768C18.1137 32.5122 18.0091 32.0199 17.9937 31.9741" stroke="black" stroke-width="0.0166667"/>
<path d="M17.9956 31.9808C17.9493 31.6142 18.3931 30.6856 18.3623 29.7002" stroke="black" stroke-width="0.0166667"/>
<path d="M18.7471 30.502C18.8858 31.0749 18.9475 31.579 18.9167 32.0603" stroke="black" stroke-width="0.0166667"/>
<path d="M19.347 23.8336C19.4395 23.6732 19.4395 23.6732 19.6091 23.6732C19.6399 23.3294 20.0254 23.3294 20.0562 23.7649C20.3645 23.6732 20.4262 23.9482 20.3029 24.2232C20.5958 24.1086 20.8579 24.2232 20.7808 24.7274C21.3049 24.9336 21.1045 25.4836 20.8733 25.5982C20.8424 25.9419 20.6266 26.0565 20.3337 25.919C19.9637 26.3086 19.7479 26.1711 19.5783 25.7815C19.162 25.8732 19.1312 25.7357 18.9462 25.3919C18.6224 25.5982 18.5608 25.5982 18.2833 25.3461C18.2679 25.6669 18.1908 25.5753 18.052 25.5524C18.0674 25.9649 17.9595 26.1482 17.7129 26.0107C17.8979 26.5836 17.4199 26.8357 17.1887 26.3544C16.9729 26.3774 16.9574 26.2857 16.8495 26.1711C16.757 26.6294 16.4179 26.5607 16.3562 26.3086C15.9245 26.2169 15.9708 25.8732 16.3254 25.8503C16.3562 25.4836 16.572 25.5524 16.7108 25.5982C16.7262 25.369 16.8187 25.4149 16.8958 25.4607C16.8495 25.3003 16.8804 25.2086 17.0191 25.1628C16.8187 24.7732 16.942 24.6357 17.1424 24.4982C17.0345 24.1315 17.2195 24.1544 17.3583 24.1315C17.3429 23.7419 17.4199 23.6732 17.6974 23.6274C17.6666 23.4899 17.7129 23.3753 17.867 23.3753C17.7745 22.9857 17.8979 22.8963 18.1754 22.9628C18.2216 22.3967 19.0387 22.6649 18.977 23.444C19.2083 23.4899 19.2854 23.5586 19.347 23.8336Z" fill="#009A3B" stroke="black" stroke-width="0.0166667"/>
<path d="M17.6992 23.6265C17.7609 23.6723 17.838 23.6265 17.8534 23.8785C17.9767 23.5577 18.1309 23.741 18.1309 24.1077" stroke="black" stroke-width="0.0166667"/>
<path d="M18.9788 23.4434C18.9172 23.5809 18.6859 23.5809 18.7167 23.9475C18.6397 23.7871 18.4855 23.7413 18.4238 23.9017" stroke="black" stroke-width="0.0166667"/>
<path d="M19.3495 23.833C19.3495 23.9247 19.3341 24.1997 19.2725 24.3372" stroke="black" stroke-width="0.0166667"/>
<path d="M20.3042 24.2227C20.3196 24.2456 20.0884 24.2227 19.9805 24.3372" stroke="black" stroke-width="0.0166667"/>
<path d="M20.8758 25.5977C20.8141 25.5519 20.6908 25.4373 20.5983 25.6206C20.5983 25.5289 20.5983 25.2769 20.4287 25.2769" stroke="black" stroke-width="0.0166667"/>
<path d="M20.3351 25.9184C20.3351 25.6893 20.3043 25.6205 20.2734 25.5518" stroke="black" stroke-width="0.0166667"/>
<path d="M19.8267 25.5974C19.7034 25.4599 19.5801 25.6661 19.5801 25.7807" stroke="black" stroke-width="0.0166667"/>
<path d="M18.9317 25.3911C18.9317 25.2994 18.8855 25.1161 18.9934 25.0474" stroke="black" stroke-width="0.0166667"/>
<path d="M17.175 26.3536C17.2059 26.1245 17.3138 26.1245 17.2984 26.0099C17.2829 25.8266 17.1442 25.6661 16.9746 25.9182" stroke="black" stroke-width="0.0166667"/>
<path d="M17.2979 26.0097C17.3904 25.9639 17.4829 25.9868 17.5137 26.0555" stroke="black" stroke-width="0.0166667"/>
<path d="M17.0361 25.162C17.0978 25.0704 17.252 25.0933 17.3445 25.162" stroke="black" stroke-width="0.0166667"/>
<path d="M17.3447 24.612C17.4218 24.612 17.5606 24.5661 17.6068 24.7724C17.7764 24.3828 17.8997 24.4286 17.9306 24.5203" stroke="black" stroke-width="0.0166667"/>
<path d="M18.2393 24.4748C18.3626 24.4061 18.5784 24.5894 18.7018 24.9102C18.7634 24.6582 18.8559 24.704 18.9484 24.6811" stroke="black" stroke-width="0.0166667"/>
<path d="M19.5332 24.9097C19.7336 24.7722 19.857 25.0472 19.9186 25.1618C20.0111 24.9785 20.0882 24.9785 20.1807 24.9785" stroke="black" stroke-width="0.0166667"/>
<path d="M17.668 25.4603C17.7142 25.3457 17.8221 25.3228 17.8992 25.3916C17.8838 25.1853 17.9763 25.0937 18.038 25.1395" stroke="black" stroke-width="0.0166667"/>
<path d="M18.2776 20.6844L17.9385 20.7074L17.7689 21.1588L17.5839 20.728L17.2447 20.7486L17.3989 20.2949L17.2139 19.864L17.5685 19.8411L17.7226 19.3896L17.9076 19.8205L18.2468 19.7999L18.0926 20.2536L18.2776 20.6844Z" fill="#FFD700" stroke="black" stroke-width="0.0583333"/>
<path d="M16.8283 20.8515L16.4892 20.9753L16.3967 21.4634L16.15 21.0967L15.8263 21.2159L15.9188 20.7278L15.6875 20.3565L16.0113 20.235L16.1038 19.7446L16.3504 20.1113L16.6896 19.9921L16.5817 20.4825L16.8283 20.8515Z" fill="#FFD700" stroke="black" stroke-width="0.0583333"/>
<path d="M15.4254 21.28L15.117 21.5069L15.1016 22.0157L14.8087 21.7361L14.5004 21.9607L14.5312 21.4519L14.2383 21.17L14.5466 20.9409L14.5774 20.4321L14.8549 20.7117L15.1633 20.4871L15.1479 20.9959L15.4254 21.28Z" fill="#FFD700" stroke="black" stroke-width="0.0583333"/>
<path d="M18.7246 20.6844L19.0638 20.7074L19.2179 21.1588L19.4029 20.728L19.7421 20.7486L19.5879 20.2949L19.7729 19.864L19.4338 19.8411L19.2642 19.3896L19.0792 19.8205L18.74 19.7999L18.8942 20.2536L18.7246 20.6844Z" fill="#FFD700" stroke="black" stroke-width="0.0583333"/>
<path d="M20.1729 20.8515L20.4966 20.9753L20.5891 21.4634L20.8358 21.0967L21.1595 21.2159L21.067 20.7278L21.3137 20.3565L20.9745 20.235L20.882 19.7446L20.6354 20.1113L20.3116 19.9921L20.4041 20.4825L20.1729 20.8515Z" fill="#FFD700" stroke="black" stroke-width="0.0583333"/>
<path d="M21.5605 21.28L21.8689 21.5069L21.8843 22.0157L22.1772 21.7361L22.4855 21.9607L22.4701 21.4519L22.7476 21.17L22.4393 20.9409L22.4239 20.4321L22.131 20.7117L21.8226 20.4871L21.8535 20.9959L21.5605 21.28Z" fill="#FFD700" stroke="black" stroke-width="0.0583333"/>
<path d="M19.54 33.3892L19.5709 34.2142C19.5709 34.2142 19.725 34.2142 19.8638 34.1454C19.9871 34.0767 20.095 33.9392 20.095 33.9392L20.0796 33.5037L19.54 33.3892Z" fill="white" stroke="black" stroke-width="0.0583333"/>
<path d="M17.475 33.3892L17.4442 34.1912C17.4442 34.1912 17.3054 34.1912 17.1667 34.1454C17.0433 34.0996 16.9354 33.985 16.9354 33.985L16.7812 33.435L17.475 33.3892Z" fill="white" stroke="black" stroke-width="0.0583333"/>
<path d="M14.9814 30.9824L14.5918 31.8074L14.1602 30.7532L14.4839 30.249L14.9814 30.9824Z" fill="white" stroke="black" stroke-width="0.05835" stroke-linejoin="round"/>
<path d="M16.9189 35.039C16.9189 35.8181 20.0948 35.8181 20.0948 35.039V33.939C20.0948 34.5119 16.9189 34.3973 16.9189 33.939V35.039Z" fill="white" stroke="black" stroke-width="0.0583333"/>
<path d="M14.082 32.4955C14.3595 34.6038 16.9187 34.6497 16.9187 34.6497V33.9393C16.857 33.6643 16.9649 33.5726 17.3812 33.4809C17.5508 33.458 17.4737 33.0913 17.4737 33.0913C17.4737 33.0913 16.3637 33.3893 15.5774 32.9309C14.5137 32.2893 14.3595 31.0518 14.3595 31.0518C14.3595 31.0518 14.2824 32.0143 14.082 32.4955Z" fill="white" stroke="black" stroke-width="0.0583333"/>
<path d="M22.9161 32.4955C22.654 34.6038 20.0948 34.6497 20.0948 34.6497V33.9393C20.1411 33.6643 20.0332 33.5726 19.6169 33.4809C19.4473 33.458 19.5398 33.0913 19.5398 33.0913C19.5398 33.0913 20.6498 33.3893 21.4361 32.9309C22.4844 32.2893 22.6077 31.0518 22.6077 31.0518C22.6077 31.0518 22.7157 32.0143 22.9161 32.4955Z" fill="white" stroke="black" stroke-width="0.0583333"/>
<path d="M14.2757 31.6932C13.5665 31.1203 14.1261 30.5244 14.1878 28.8286C14.5447 29.9071 14.8975 29.9425 14.9983 30.6257C15.0107 30.7099 15.0202 30.8625 14.9893 30.9599C14.6655 30.9828 14.5115 30.2494 14.3574 31.0515L14.2757 31.6932Z" fill="white" stroke="black" stroke-width="0.0583333"/>
<path d="M22.0049 30.9824L22.3944 31.8074L22.8261 30.7532L22.5024 30.249L22.0049 30.9824Z" fill="white" stroke="black" stroke-width="0.05835" stroke-linejoin="round"/>
<path d="M22.71 31.6932C23.4191 31.1203 22.8595 30.5244 22.7978 28.8286C22.4409 29.9071 22.0881 29.9425 21.9873 30.6257C21.9749 30.7099 21.9654 30.8625 21.9963 30.9599C22.3201 30.9828 22.4741 30.2494 22.6282 31.0515L22.71 31.6932Z" fill="white" stroke="black" stroke-width="0.0583333"/>
<path d="M14.7144 32.4722L14.7915 32.5638L14.6219 32.8388C14.554 32.9489 14.5376 33.0217 14.5848 33.0887C14.6433 33.1719 14.6845 33.143 14.7453 33.0451L14.9303 32.7472L14.9919 32.8388L14.8071 33.1594C14.7068 33.3334 14.6136 33.2936 14.5355 33.1852C14.4674 33.0907 14.4284 32.9536 14.5285 32.7852L14.715 32.4735L14.7144 32.4722Z" fill="black"/>
<path d="M15.0228 32.8618L15.0999 32.9306L15.0845 33.4806L15.2541 33.091L15.3312 33.1597L15.0845 33.7556L14.992 33.6868L15.0074 33.1368L14.8378 33.5264L14.7607 33.4576L15.0228 32.8618Z" fill="black"/>
<path d="M15.1611 33.8238L15.377 33.1821L15.454 33.2509L15.2536 33.8696L15.1611 33.8238Z" fill="black"/>
<path d="M15.5013 33.2744L15.3311 33.9385L15.5013 34.0307C15.6599 34.1166 15.7344 34.0128 15.7848 33.8134C15.8356 33.6106 15.8134 33.4614 15.6548 33.3665L15.5013 33.2744ZM15.5623 33.4353C15.7219 33.5178 15.7316 33.6079 15.6881 33.7708C15.646 33.9255 15.6067 33.986 15.455 33.8698L15.5623 33.4353Z" fill="black"/>
<path d="M16.0099 33.5259L15.7324 34.1446L15.8397 34.1914L15.9017 34.0305L16.0867 34.0993L16.1024 34.2601L16.2097 34.2821L16.1024 33.5493L16.0099 33.5259ZM16.0404 33.6868L16.071 33.9618L15.9479 33.9384L16.0404 33.6868Z" fill="black"/>
<path d="M16.2726 33.586L16.2559 34.2961L16.4373 34.3014C16.606 34.3062 16.654 34.1726 16.6581 33.9597C16.6623 33.7432 16.6086 33.6125 16.4377 33.5996L16.2726 33.586ZM16.3651 33.7092C16.5341 33.7102 16.563 33.7904 16.5571 33.9657C16.5515 34.1324 16.527 34.2084 16.3585 34.1713L16.3651 33.7092Z" fill="black"/>
<path d="M17.89 34.5806V35.3134H17.9982V35.0384C17.9982 35.0384 18.0907 35.0467 18.1675 35.0164C18.228 34.9931 18.2701 34.9353 18.2715 34.793C18.2729 34.6534 18.2183 34.5806 18.124 34.5806H17.8896H17.89ZM17.9982 34.6947L18.1069 34.6968C18.1975 34.6968 18.1804 34.9009 18.1096 34.9009H17.9982V34.6947Z" fill="black"/>
<path d="M18.4458 34.5805L18.2451 35.3134H18.3533L18.3996 35.1305H18.6003L18.6466 35.3134H18.7539L18.5535 34.5801H18.4455L18.4458 34.5805ZM18.4921 34.7414L18.5689 35.0164H18.4301L18.4921 34.7414Z" fill="black"/>
<path d="M18.7529 35.1759L19.015 34.6947H18.7838V34.5801H19.1538V34.6947L18.8763 35.1759H19.1538V35.3134H18.7529V35.1759Z" fill="black"/>
<path d="M20.3114 33.7558L20.4039 33.7329L20.4501 34.1454C20.4666 34.2921 20.4215 34.3921 20.3513 34.4306C20.2713 34.4745 20.1693 34.4344 20.1572 34.2371L20.2343 34.2142C20.2523 34.3322 20.2842 34.3425 20.3212 34.324C20.3506 34.3093 20.3657 34.2405 20.3576 34.1683L20.3114 33.7558Z" fill="black"/>
<path d="M20.4639 33.714L20.5551 33.6883L20.5974 34.0316C20.6154 34.1785 20.6464 34.2409 20.7107 34.2243C20.7905 34.2036 20.7992 34.1372 20.7822 34.0063L20.7255 33.6401L20.8189 33.6191L20.8808 34.0001C20.9171 34.2229 20.8388 34.3112 20.7337 34.3404C20.6421 34.3658 20.5448 34.3313 20.5129 34.1115L20.4639 33.714Z" fill="black"/>
<path d="M20.9436 34.0302L21.0207 33.9843C21.0585 34.0853 21.1175 34.0801 21.1634 34.05C21.2271 34.0081 21.2344 33.9253 21.2029 33.8973C21.1579 33.8573 21.0507 33.9141 20.993 33.8827C20.9239 33.8453 20.8942 33.7875 20.8977 33.6987C20.902 33.5917 20.9653 33.533 21.0341 33.5012C21.1111 33.4657 21.1871 33.4783 21.2365 33.6177L21.144 33.6635C21.1139 33.5882 21.0752 33.5918 21.0408 33.6159C21.012 33.6361 20.967 33.6741 20.9911 33.7352C21.0108 33.7852 21.1241 33.7527 21.1838 33.7563C21.2455 33.7601 21.2954 33.8213 21.3037 33.9096C21.3154 34.0326 21.2847 34.0992 21.189 34.1547C21.0708 34.2232 20.9642 34.1465 20.9436 34.0302Z" fill="black"/>
<path d="M21.3592 33.4577L21.2359 33.5493L21.2051 33.4348L21.5442 33.2285L21.5751 33.3202L21.4517 33.4118L21.5905 33.916L21.5134 33.9848L21.3592 33.4577Z" fill="black"/>
<path d="M21.5586 33.2055L21.6357 33.1367L21.8515 33.7326L21.7744 33.8013L21.5586 33.2055Z" fill="black"/>
<path d="M22.0829 33.2513L22.1754 33.2055C22.2189 33.3414 22.1536 33.5885 21.9939 33.5834C21.7601 33.576 21.7348 33.1932 21.7715 33.067C21.8333 32.855 22.0062 32.859 22.0829 32.9763L22.0058 33.068C21.9569 32.9748 21.8484 33.0335 21.841 33.1193C21.8291 33.2592 21.8705 33.3894 21.9547 33.4512C22.026 33.5035 22.136 33.3719 22.0829 33.2513Z" fill="black"/>
<path d="M22.0371 32.7699L22.1142 32.6782L22.3917 33.2282L22.3146 33.3199L22.0371 32.7699Z" fill="black"/>
<path d="M22.3297 32.4263L22.2529 32.5184L22.4222 33.2059L22.499 33.0918L22.4527 32.9543L22.5915 32.77L22.684 32.8388L22.7617 32.748L22.3297 32.4263ZM22.3602 32.5871L22.5147 32.7013L22.4222 32.8388L22.3602 32.5871Z" fill="black"/>
</g>
<defs>
<clipPath id="clip0_8_30679">
<rect width="37" height="55" rx="18.5" fill="white"/>
</clipPath>
</defs>
</svg>
