<svg width="38" height="57" viewBox="0 0 38 57" fill="none" xmlns="http://www.w3.org/2000/svg">
<g clip-path="url(#clip0_8_31268)">
<path d="M59.8496 0H2.84961V57H59.8496V0Z" fill="black"/>
<path d="M59.8496 0H2.84961V19.5938H59.8496V0Z" fill="white"/>
<path d="M59.8496 0H2.84961V17.8125H59.8496V0Z" fill="#009639"/>
<path d="M59.8496 37.3823H2.84961V56.9998H59.8496V37.3823Z" fill="white"/>
<path d="M59.8496 39.1875H2.84961V57H59.8496V39.1875Z" fill="#FFD100"/>
<path d="M0 -3.25732V60.257L27.7875 28.4998L0 -3.25732Z" fill="#E4002B"/>
<path d="M15.7929 39.1858L11.1598 34.0976L6.53301 39.1873L8.3274 31.0054L3.67062 25.9777L9.41271 26.0092L11.1615 17.8122L12.9159 26.0136L18.6535 25.9753L13.9957 31.0125L15.7929 39.1858Z" fill="#FFD100"/>
<path fill-rule="evenodd" clip-rule="evenodd" d="M7.1377 33.4808H10.4753C10.7438 33.9326 11.343 34.1169 11.9137 33.4754C12.9598 32.6161 14.9836 33.4808 14.9836 33.4808L15.3821 32.8456L14.4107 28.0634L14.062 27.503C14.062 27.503 13.3148 26.8305 11.895 27.0547C10.4753 27.2788 9.97713 26.98 9.97713 26.98C9.97713 26.98 8.73178 27.2041 8.38307 27.4656C8.34474 27.5122 7.98455 28.0634 7.98455 28.0634L7.1377 33.4808Z" fill="white" stroke="black" stroke-width="0.104977" stroke-linecap="round" stroke-linejoin="round"/>
<path d="M7.81152 32.2478C7.81152 32.2478 10.9997 31.65 11.9213 33.4807C11.4008 34.0149 10.9425 34.0589 10.4517 33.5181C10.5299 33.3227 11.5975 31.65 14.3124 32.2105" stroke="black" stroke-width="0.104977" stroke-linecap="round" stroke-linejoin="round"/>
<path d="M11.2223 27.4658L11.1974 32.7338L11.2223 27.4658ZM14.0618 27.5405L14.6596 31.725L14.0618 27.5405ZM8.41574 27.4748L8.08398 29.6327L8.41574 27.4748Z" fill="black"/>
<path d="M11.2223 27.4658L11.1974 32.7338M14.0618 27.5405L14.6596 31.725M8.41574 27.4748L8.08398 29.6327" stroke="black" stroke-width="0.104977" stroke-linecap="round" stroke-linejoin="round"/>
<path fill-rule="evenodd" clip-rule="evenodd" d="M4.9707 34.0543L5.75562 35.4347C5.84779 35.5171 5.92966 35.5119 6.01153 35.4347L7.1748 33.3409L7.66337 32.4335C7.73902 32.2991 7.76317 32.1492 7.75643 32.0148L8.69047 30.7698C8.76688 30.7777 8.81238 30.7906 8.88879 30.7984C8.79852 30.7634 8.73228 30.6974 8.80336 30.549L9.01273 30.3048L9.17557 30.6188C9.17557 30.6188 8.94296 31.0725 8.91969 31.0725H8.66377L8.1752 31.7356L8.38878 32.0187L8.7103 33.3409L9.10584 32.922L8.84989 31.5611L9.40829 30.6537L9.19886 30.1651L9.33848 29.8859C9.33848 29.8859 11.271 31.7109 12.0155 31.2224C12.0356 31.2333 12.0605 29.9209 12.0605 29.9209C12.0605 29.9209 10.0597 29.6068 10.0131 29.0135C9.96661 28.4203 10.4552 28.3505 10.4552 28.3505L10.2458 27.8968L10.2924 27.6525L10.6413 28.3156L11.4324 27.3035L16.0853 35.2602C16.3394 35.1057 16.3936 35.0125 16.4111 34.632C16.4046 34.6225 11.8511 26.78 11.8511 26.78L12.2001 26.2218C12.2689 26.1054 12.2931 26.056 12.2931 25.8727L12.8282 25.1748C12.9892 25.2577 13.0918 25.4024 13.1772 25.5935L14.6483 23.7233C14.6871 23.7815 14.8048 23.8397 14.8848 23.7743L17.3169 20.2725L14.6662 23.0809L14.5732 22.9762C14.5732 22.8599 14.6693 22.8311 14.5732 22.6272C14.4702 22.4418 14.3172 22.8017 14.294 22.8017C14.2707 22.8017 13.9103 22.6107 13.8313 22.3686L13.8054 23.0111L13.1307 23.9533L12.6189 23.9184L11.8744 25.0003L11.7813 25.419L11.8977 25.7681C11.8977 25.7681 11.5021 26.2915 11.5021 26.2566C11.5021 26.2218 11.4222 26.1023 11.4187 26.0869L11.758 25.6284L11.8046 25.3144L11.6913 25.0492C11.657 25.0866 11.2229 25.7681 11.1996 25.6982C11.1609 25.6331 9.94339 23.5695 9.94339 23.5695L10.0131 23.1856L9.22216 21.8944C8.93379 21.745 8.47765 21.7199 8.38459 22.6621C8.31213 22.8834 7.7099 22.697 7.7099 22.697L7.38419 22.8017L5.54623 26.7103L6.5699 28.5598L8.66377 24.5815L8.72593 23.4545L9.16528 24.1913C9.31176 24.2195 9.4513 24.222 9.58405 24.1215L10.8246 26.1985L10.618 26.5008C10.6878 26.6172 10.7359 26.6915 10.8057 26.8078C10.8755 26.738 10.9421 26.6543 11.0119 26.5844C11.0352 26.631 11.074 26.7195 11.0973 26.766C10.9933 26.8509 10.9204 26.9639 10.8164 27.0487C10.6501 26.8861 10.4895 26.6836 10.5017 26.3613L9.80377 27.2337L9.78048 27.4082L7.7099 29.9906L7.52377 30.0256L7.47724 30.8282L8.82662 29.1532V28.9088L8.96622 29.0833L10.0131 27.8271C10.0131 27.8271 10.0829 27.9666 10.0597 27.9666C10.0364 27.9666 9.12906 29.2229 9.12906 29.2229L9.10584 29.3625L8.94296 29.5719L8.84989 29.4672L7.59357 31.1422H7.40745L6.70949 32.1893C6.52947 32.2127 6.37348 32.2413 6.22092 32.3986L4.9707 34.0543Z" fill="black" stroke="black" stroke-width="0.104977" stroke-linecap="round" stroke-linejoin="round"/>
</g>
<defs>
<clipPath id="clip0_8_31268">
<rect width="38" height="57" rx="19" fill="white"/>
</clipPath>
</defs>
</svg>
