<svg width="37" height="55" viewBox="0 0 37 55" fill="none" xmlns="http://www.w3.org/2000/svg">
<g clip-path="url(#clip0_8_31337)">
<path d="M37 -6.875H0V63.25H37V-6.875Z" fill="#00853F"/>
<path d="M37.0004 -6.875H12.0254V63.25H37.0004V-6.875Z" fill="#FDEF42"/>
<path d="M36.9996 -5.5H24.9746V61.875H36.9996V-5.5Z" fill="#E31B23"/>
<path d="M18.4912 21.8472L17.2208 27.6592L19.1758 28.6034L18.4912 21.8472Z" fill="#00853F"/>
<path d="M18.4912 21.8472L19.7616 27.6592L17.8067 28.6034L18.4912 21.8472Z" fill="#00853F"/>
<path d="M22.4111 26.0708L18.4635 26.5944L18.3 29.1264L22.4111 26.0708Z" fill="#00853F"/>
<path d="M22.4111 25.7734L18.9309 29.6631L17.8769 27.4887L22.4111 25.7734Z" fill="#00853F"/>
<path d="M20.918 32.7466L19.7983 27.0903L17.6926 28.1903L20.918 32.7466Z" fill="#00853F"/>
<path d="M20.8145 32.9023L17.592 29.4883L18.9038 26.8383L20.8145 32.9023Z" fill="#00853F"/>
<path d="M16.1875 32.9023L19.4099 29.4883L18.0982 26.8383L16.1875 32.9023Z" fill="#00853F"/>
<path d="M16.084 32.7466L17.2037 27.0903L19.3093 28.1903L16.084 32.7466Z" fill="#00853F"/>
<path d="M14.5908 25.771L18.071 29.6606L19.125 27.4863L14.5908 25.771Z" fill="#00853F"/>
<path d="M14.5908 26.0684L18.5385 26.592L18.7019 29.1239L14.5908 26.0684Z" fill="#00853F"/>
</g>
<defs>
<clipPath id="clip0_8_31337">
<rect width="37" height="55" rx="18.5" fill="white"/>
</clipPath>
</defs>
</svg>
