<svg width="37" height="55" viewBox="0 0 37 55" fill="none" xmlns="http://www.w3.org/2000/svg">
<g clip-path="url(#clip0_8_30649)">
<path d="M46.274 0H-9.25V55H46.274V0Z" fill="#FCD116"/>
<path d="M46.2498 27.5H14.7998V55H46.2498V27.5Z" fill="#009E49"/>
<path d="M-8.75 54.5V0.5H14.9167V54.5H-8.75Z" fill="#CE1126" stroke="#CE1126"/>
<path d="M7.68164 19.25L6.03935 26.7634L8.56658 27.984" fill="black"/>
<path d="M7.68164 19.25L9.32393 26.7634L6.7967 27.984" fill="black"/>
<path d="M12.7402 24.71L7.63695 25.3869L7.42566 28.66" fill="black"/>
<path d="M12.7402 24.3252L8.24123 29.3535L6.87874 26.5426" fill="black"/>
<path d="M10.8066 33.3403L9.35915 26.0283L6.63712 27.4503" fill="black"/>
<path d="M10.6729 33.542L6.50712 29.1285L8.20289 25.7028" fill="black"/>
<path d="M4.69434 33.542L8.86007 29.1285L7.1643 25.7028" fill="black"/>
<path d="M4.55957 33.3403L6.00706 26.0283L8.72909 27.4503" fill="black"/>
<path d="M2.63086 24.3228L7.12986 29.351L8.49236 26.5401" fill="black"/>
<path d="M2.63086 24.7075L7.73414 25.3844L7.94543 28.6575" fill="black"/>
</g>
<defs>
<clipPath id="clip0_8_30649">
<rect width="37" height="55" rx="18.5" fill="white"/>
</clipPath>
</defs>
</svg>
