<svg width="39" height="55" viewBox="0 0 39 55" fill="none" xmlns="http://www.w3.org/2000/svg">
<g clip-path="url(#clip0_8_30588)">
<path d="M-9.75 0H48.75V55H-9.75V0Z" fill="black"/>
<path d="M-9.75 0H48.75V27.5H-9.75V0Z" fill="#CC092F"/>
<path fill-rule="evenodd" clip-rule="evenodd" d="M15.6553 18.8651H18.0371L18.7594 15.6992L19.5011 18.8651H21.8827L19.9695 20.875L20.7111 24.0957L18.7594 22.141L16.8269 24.0957L17.5685 20.875L15.6553 18.8651Z" fill="#FFCB00"/>
<path fill-rule="evenodd" clip-rule="evenodd" d="M24.3631 36.181L22.4893 34.1157C24.3826 31.941 25.6127 28.6098 25.6127 24.8936C25.6127 19.2225 22.7434 14.4597 18.956 13.331L19.2488 11.4037C19.7759 11.569 20.3943 11.882 20.9019 12.1294L21.39 10.9736C21.9165 11.3311 22.5027 11.6889 22.9904 12.1294L22.6197 13.3685C23.1078 13.8092 23.697 14.4915 24.0247 15.0288L24.7577 14.2213C25.1482 14.8267 25.6169 15.4594 25.9487 16.1207L25.285 17.0843C25.7136 17.9716 25.8793 18.38 26.1953 19.4023L27.1265 19.0943C27.3024 19.865 27.5694 20.8086 27.6673 21.6067L26.7855 22.0955C26.8908 22.7157 27.0272 23.799 27.0184 24.7102C27.0177 24.7651 27.0148 24.8272 27.0148 24.8824L27.9356 25.0677C27.8966 25.8663 27.8773 26.775 27.7599 27.5732H26.8035C26.667 28.3986 26.4908 29.4083 26.2763 30.1788L27.0763 30.84C26.8228 31.5555 26.5693 32.4091 26.2373 33.0974L25.3589 32.5746C25.0268 33.2626 24.6563 33.923 24.2462 34.529L24.8121 35.5749C24.6563 35.7674 24.5195 35.9604 24.3631 36.1809M20.2446 35.933L21.6598 37.1357C21.5278 37.3059 21.1325 37.5946 21.0277 37.653L21.2591 38.9057C20.7126 39.154 20.1268 39.5115 19.522 39.6768L19.1707 38.4382C18.6046 38.6032 18.0387 38.7132 17.453 38.7132L17.3355 40.0069C16.7891 39.9521 16.1254 40.0069 15.5202 39.8143V38.5208C14.9735 38.3828 14.4464 38.1903 13.9391 37.9422L13.49 39.0718C13.0215 38.7958 12.3969 38.4654 11.8891 38.0253L12.2212 36.7865C11.811 36.4834 11.4402 36.0982 11.0889 35.7122L11.9673 34.143C13.412 35.7675 15.2273 36.7306 17.2185 36.7306C18.2729 36.7306 19.3071 36.4834 20.2446 35.9331" fill="#FFCB00"/>
<path fill-rule="evenodd" clip-rule="evenodd" d="M26.142 39.1244L16.7995 29.0978L16.7144 29.2688L26.0328 39.313L25.4797 40.289L16.3957 32.072C13.9362 29.8971 14.0338 28.1905 14.5414 26.3459L14.9709 24.8594C15.2053 26.7865 16.6104 28.2459 18.0746 29.8697L26.324 38.8069L26.142 39.1244ZM28.4874 42.1127C28.4684 42.1127 28.4495 42.1074 28.4318 42.0971C28.4142 42.0867 28.3982 42.0716 28.3847 42.0526C28.3713 42.0335 28.3606 42.0109 28.3534 41.986C28.3461 41.9611 28.3424 41.9344 28.3425 41.9075C28.3425 41.8807 28.3462 41.8541 28.3535 41.8293C28.3608 41.8044 28.3714 41.7819 28.3849 41.7629C28.3983 41.7439 28.4143 41.7288 28.4319 41.7185C28.4495 41.7082 28.4684 41.7029 28.4874 41.7029C28.5678 41.7029 28.633 41.7946 28.633 41.9075C28.633 41.9345 28.6293 41.9612 28.622 41.9861C28.6146 42.011 28.6039 42.0337 28.5904 42.0527C28.5769 42.0718 28.5608 42.0869 28.5432 42.0972C28.5255 42.1075 28.5065 42.1127 28.4874 42.1127ZM27.9291 41.5346C27.8906 41.5345 27.8536 41.5129 27.8264 41.4745C27.7991 41.4361 27.7838 41.384 27.7837 41.3297C27.7837 41.2891 27.7922 41.2495 27.8081 41.2158C27.8241 41.1821 27.8468 41.1558 27.8733 41.1403C27.8999 41.1247 27.9291 41.1206 27.9573 41.1285C27.9855 41.1364 28.0114 41.1559 28.0317 41.1846C28.0521 41.2132 28.0659 41.2498 28.0716 41.2895C28.0772 41.3293 28.0743 41.3705 28.0633 41.4079C28.0523 41.4454 28.0337 41.4774 28.0098 41.5C27.9859 41.5225 27.9578 41.5345 27.9291 41.5346ZM27.3577 40.8923C27.2776 40.8923 27.2124 40.8007 27.2124 40.6878C27.2135 40.6346 27.2293 40.584 27.2564 40.5469C27.2836 40.5098 27.3199 40.489 27.3577 40.489C27.3955 40.489 27.4318 40.5098 27.4589 40.5469C27.486 40.584 27.5018 40.6346 27.5029 40.6878C27.5029 40.8007 27.4379 40.8923 27.3577 40.8923ZM29.2787 42.029L26.4795 38.9705L25.6661 40.4489L28.0978 42.8537C28.2931 43.0462 28.3123 43.9279 29.0342 44.0657C29.3276 44.1204 29.5222 43.8173 29.5222 43.8173C29.8368 43.2772 29.7511 42.5338 29.2787 42.029Z" fill="#FFCB00"/>
</g>
<defs>
<clipPath id="clip0_8_30588">
<rect width="39" height="55" rx="19.5" fill="white"/>
</clipPath>
</defs>
</svg>
