<svg width="37" height="55" viewBox="0 0 37 55" fill="none" xmlns="http://www.w3.org/2000/svg">
<g clip-path="url(#clip0_8_30809)">
<path d="M-9.25 0H46.25V55H-9.25V0Z" fill="black"/>
<path d="M-9.25 0H46.25V36.6667H-9.25V0Z" fill="white"/>
<path d="M-9.25 0H46.25V18.3333H-9.25V0Z" fill="#CE1126"/>
<path d="M18.5502 27.7201L22.7737 33.5482L22.473 22.9635C22.4288 21.3593 21.491 21.7273 20.8098 22.306C20.1197 22.9635 19.3324 22.9635 18.5006 22.5294C17.669 22.9634 16.8817 22.9634 16.1915 22.306C15.5104 21.7274 14.5727 21.3593 14.5284 22.9634L14.2275 33.5482L18.5502 27.7201Z" fill="white" stroke="#C09300" stroke-width="0.0846906" stroke-linejoin="round"/>
<path d="M15.015 22.5952L14.723 32.8912L14.2275 33.5483L14.5284 22.9635C14.6699 22.8189 14.9177 22.5952 15.015 22.5952ZM15.6082 23.3322L15.3605 31.9447L14.8652 32.6982L15.1659 22.7533C15.2633 22.8979 15.5553 23.2529 15.6082 23.3318V23.3322ZM16.1478 23.9895L15.9532 31.1726L15.5552 31.7511L15.8029 23.5555C15.9 23.7002 16.0946 23.9106 16.1478 23.9895ZM16.7318 24.358L16.5371 30.4801L16.1478 30.9494L16.3425 24.1345C16.4398 24.2002 16.6344 24.358 16.7318 24.358ZM17.2713 24.358L17.1297 29.4598L16.7316 30.0385L16.8821 24.4238C16.9792 24.4238 17.227 24.4238 17.2713 24.358Z" fill="#C09300"/>
<path d="M21.988 22.5952L22.2799 32.8912L22.7754 33.5483L22.4745 22.9635C22.3331 22.8189 22.0852 22.5952 21.988 22.5952ZM21.3947 23.3322L21.6425 31.9447L22.1378 32.6982L21.837 22.7533C21.7396 22.8979 21.4476 23.2529 21.3947 23.3318V23.3322ZM20.8552 23.9895L21.0497 31.1726L21.4478 31.7511L21.2 23.5555C21.1029 23.7002 20.9083 23.9106 20.8552 23.9895ZM20.2712 24.358L20.4658 30.4801L20.8551 30.9494L20.6605 24.1345C20.5631 24.2002 20.3685 24.358 20.2712 24.358ZM19.7316 24.358L19.8732 29.4598L20.2713 30.0385L20.1208 24.4238C20.0237 24.4238 19.7759 24.4238 19.7316 24.358Z" fill="#C09300"/>
<path d="M18.694 28.8804L19.2867 32.8913L19.092 33.1805L18.8886 32.9569L18.5524 29.3803L18.6939 32.9569L18.4992 33.325L18.3046 32.9569L18.4462 29.3803L18.1101 32.9569L17.9064 33.1805L17.7119 32.8913L18.3046 28.8804L18.694 28.8804Z" fill="#C09300" stroke="#C09300" stroke-width="0.0715907"/>
<path d="M17.1747 27.1187L15.998 33.325L17.6171 33.6932L18.307 29.0252L17.1746 27.1187L17.1747 27.1187Z" fill="white" stroke="#C09300" stroke-width="0.0792673" stroke-linejoin="round"/>
<path d="M16.7861 29.2365L16.9277 29.7492L17.6927 28.6631" stroke="#C09300" stroke-width="0.0846595" stroke-linejoin="round"/>
<path d="M17.3172 27.9512L17.4773 30.1829L17.9638 29.2361M17.7692 29.6039L18.035 30.9675M18.1392 30.4665L17.6016 31.6802M17.7693 32.8917L17.5972 31.6819L17.447 30.4515L17.0869 31.1764L16.9289 30.3405L16.4248 31.1091L16.6812 32.5071L17.035 31.6423L17.2296 32.5234L17.5928 31.6835" stroke="#C09300" stroke-width="0.0846595" stroke-linejoin="round"/>
<path d="M16.3438 33.1809L16.6706 32.4985L16.8835 33.5488L17.1754 32.8125L17.3701 33.6937" stroke="#C09300" stroke-width="0.0846595" stroke-linejoin="round"/>
<path d="M19.8293 27.1192L21.0059 33.3255L19.3868 33.6937L18.6969 29.0257L19.8293 27.1191L19.8293 27.1192Z" fill="white" stroke="#C09300" stroke-width="0.0792673" stroke-linejoin="round"/>
<path d="M20.2178 29.2365L20.0762 29.7492L19.3112 28.6631" stroke="#C09300" stroke-width="0.0846595" stroke-linejoin="round"/>
<path d="M19.6867 27.9517L19.5266 30.1834L19.0401 29.2366M19.2347 29.6044L18.9689 30.9679M18.8647 30.467L19.4023 31.6807M19.2346 32.8922L19.4067 31.6824L19.5569 30.4519L19.917 31.1769L20.075 30.341L20.5791 31.1096L20.3227 32.5076L19.9689 31.6428L19.7743 32.5239L19.4111 31.684" stroke="#C09300" stroke-width="0.0846595" stroke-linejoin="round"/>
<path d="M20.6602 33.1814L20.3333 32.499L20.1204 33.5492L19.8285 32.8129L19.6338 33.6942" stroke="#C09300" stroke-width="0.0846595" stroke-linejoin="round"/>
<path d="M18.5028 36.0993C19.7327 36.0993 20.9093 35.9547 21.5993 35.6653C21.8913 35.5866 21.8913 35.3631 21.8913 35.0736C22.1833 34.929 22.0328 34.4163 22.2363 34.4163C22.0328 34.4954 21.9887 33.9035 21.7409 33.9826C21.7409 33.4696 21.3959 33.4039 21.1039 33.5483C20.52 33.8377 19.4849 33.9035 18.5028 33.9035C17.5208 33.8377 16.4945 33.8377 15.9018 33.5483C15.6099 33.4039 15.265 33.4696 15.265 33.9826C15.0172 33.9035 14.973 34.4954 14.7695 34.4163C14.973 34.4163 14.8225 34.929 15.1145 35.0736C15.1145 35.3631 15.1145 35.5866 15.4153 35.6653C16.0964 35.9547 17.2732 36.0993 18.5028 36.0993Z" fill="white" stroke="#C09300" stroke-width="0.158535" stroke-linecap="round" stroke-linejoin="round"/>
<path d="M16.8285 33.3245C17.2265 33.4034 17.6689 33.4691 18.014 33.4034C18.2085 33.4034 18.35 33.9031 17.9608 33.9821C17.6159 34.0477 17.0762 33.9821 16.7842 33.9031C16.5365 33.8373 15.9969 33.6927 15.6518 33.5478C15.3068 33.3245 15.5546 32.8908 15.749 32.9564C16.0499 33.1009 16.4392 33.2457 16.8285 33.3245L16.8285 33.3245ZM20.1726 33.3245C19.7745 33.4034 19.3322 33.4691 18.996 33.4034C18.7924 33.4034 18.6509 33.9031 19.0402 33.9821C19.3853 34.0477 19.9249 33.9821 20.2167 33.9031C20.4645 33.8373 21.0041 33.6927 21.3491 33.5478C21.6943 33.3245 21.4466 32.8908 21.2519 32.9564C20.9511 33.1009 20.5618 33.2457 20.1726 33.3245Z" fill="white" stroke="#C09300" stroke-width="0.0846595" stroke-linecap="round" stroke-linejoin="round"/>
<path d="M15.6107 33.0355C15.31 32.9566 15.1684 33.4692 15.2658 33.7585C15.31 33.6138 15.5135 33.6138 15.5578 33.4692C15.6107 33.2458 15.5135 33.2459 15.6107 33.0355ZM16.7873 34.3803C16.7873 34.0912 16.9819 34.1268 16.9819 33.8374C16.9819 33.6929 16.9289 33.4692 16.8316 33.4692C16.7342 33.4692 16.6369 33.6138 16.6369 33.7584C16.5926 34.0478 16.7873 34.0913 16.7873 34.3803ZM18.1878 33.5479C18.4795 33.5479 18.4506 34.1267 18.309 34.416C18.309 34.2056 18.0613 34.1267 18.0613 33.9823C18.0613 33.7584 18.2849 33.7584 18.1878 33.5479ZM21.3963 33.0355C21.6971 32.9566 21.8387 33.4692 21.7413 33.7585C21.6971 33.6138 21.4936 33.6138 21.4494 33.4692C21.3963 33.2458 21.4937 33.2459 21.3963 33.0355ZM20.2197 34.3803C20.2197 34.0912 20.0253 34.1268 20.0253 33.8374C20.0253 33.6929 20.0782 33.4692 20.1756 33.4692C20.2728 33.4692 20.3702 33.6138 20.3702 33.7584C20.4145 34.0478 20.2197 34.0913 20.2197 34.3803ZM18.8192 33.5479C18.5274 33.5479 18.5564 34.1267 18.6979 34.416C18.6979 34.2056 18.9456 34.1267 18.9456 33.9823C18.9456 33.7584 18.7219 33.7584 18.8192 33.5479Z" fill="white" stroke="#C09300" stroke-width="0.0846595" stroke-linecap="round" stroke-linejoin="round"/>
<path d="M15.7093 33.1805C15.8067 33.1805 15.957 33.2462 16.0013 33.325L15.709 33.1802L15.7093 33.1805ZM16.1952 33.4041C16.2483 33.4041 16.443 33.4698 16.5403 33.5485L16.1949 33.4037L16.1952 33.4041ZM17.965 33.6929C17.8677 33.6929 17.6731 33.6929 17.6201 33.7584L17.9649 33.6924L17.965 33.6929ZM17.4255 33.6929C17.3725 33.6138 17.1778 33.6138 17.0805 33.6929H17.4252H17.4255ZM21.3006 33.1805C21.2033 33.1805 21.0617 33.2462 21.0086 33.325L21.3006 33.1805ZM20.814 33.4041C20.761 33.4041 20.5663 33.4698 20.469 33.5485L20.8143 33.4037L20.814 33.4041ZM19.0442 33.6929C19.1416 33.6929 19.3362 33.6929 19.3892 33.7584L19.0439 33.6924L19.0442 33.6929ZM19.5838 33.6929C19.6368 33.6138 19.8316 33.6138 19.9288 33.6929H19.5835H19.5838Z" fill="white" stroke="#C09300" stroke-width="0.0593922" stroke-linecap="round" stroke-linejoin="round"/>
<path d="M15.6241 34.336C15.5911 34.3266 15.5739 34.2879 15.5821 34.242C15.5922 34.1862 15.6223 34.1542 15.6507 34.1692C15.6688 34.1787 15.7019 34.2283 15.7021 34.2461C15.7022 34.2665 15.6847 34.3151 15.6772 34.3152C15.674 34.3152 15.6689 34.3195 15.666 34.3245C15.6599 34.3354 15.6405 34.3406 15.6241 34.3359V34.336ZM19.0114 34.6953C18.9992 34.6885 18.9797 34.6477 18.9797 34.6289C18.9798 34.5934 19.0151 34.5356 19.0369 34.5353C19.0478 34.5352 19.0773 34.558 19.0884 34.5751C19.1084 34.6061 19.1041 34.657 19.0789 34.6859C19.0665 34.7001 19.0295 34.7052 19.0114 34.6953L19.0114 34.6953ZM19.0336 34.9226C19.0077 34.9096 18.9982 34.8907 18.9961 34.848C18.9939 34.8035 18.9968 34.7966 19.0285 34.771L19.051 34.7527L19.0724 34.7669C19.102 34.7865 19.1151 34.8076 19.1162 34.8372C19.1173 34.8691 19.1014 34.9017 19.0767 34.9181C19.055 34.9326 19.0537 34.9327 19.0336 34.9226V34.9226Z" fill="#C09300"/>
<path d="M15.8949 33.9243C15.8736 33.9233 15.8443 33.9525 15.8275 33.9673C15.7875 33.9813 15.7409 34.0178 15.7023 33.9788C15.6642 33.9613 15.6136 33.9751 15.6078 34.0447C15.6176 34.1044 15.6739 34.1385 15.708 34.0991C15.7334 34.0498 15.8025 34.0209 15.8102 34.1048C15.782 34.1683 15.7852 34.2523 15.762 34.3197C15.7582 34.3616 15.7465 34.4015 15.7312 34.4371C15.7027 34.4414 15.6723 34.4364 15.6483 34.4629C15.6097 34.466 15.5703 34.4945 15.5481 34.5431C15.5232 34.5961 15.4994 34.6499 15.4922 34.715C15.4988 34.7814 15.55 34.8005 15.5886 34.8038C15.6297 34.8206 15.6708 34.8426 15.7119 34.8611C15.7788 34.8833 15.8415 34.9193 15.9084 34.9413C16.0061 34.9851 16.1087 35.0052 16.2071 35.0444C16.2175 35.0495 16.2271 35.0539 16.238 35.0558C16.2788 35.0685 16.3001 35.0024 16.3035 34.9527C16.3238 34.8464 16.3392 34.7383 16.3594 34.6319C16.3732 34.5892 16.39 34.4928 16.3343 34.5145C16.3026 34.5427 16.2756 34.5853 16.236 34.5889C16.1821 34.5936 16.2129 34.6756 16.2341 34.7092C16.2388 34.7631 16.2274 34.8274 16.2033 34.8697C16.1712 34.8999 16.131 34.8645 16.0973 34.8525C16.0619 34.8534 15.991 34.8265 16.0241 34.7551C16.0358 34.7022 16.0368 34.6443 16.0511 34.5918C16.0691 34.5355 16.0717 34.474 16.0799 34.4142C16.0577 34.3429 16.0196 34.4376 15.9894 34.4457C15.9685 34.4672 15.8904 34.4763 15.9316 34.5316C15.967 34.5717 15.9398 34.6413 15.9335 34.6921C15.9312 34.7627 15.8818 34.7795 15.8429 34.7637C15.8042 34.7609 15.7503 34.7181 15.7832 34.6548C15.7907 34.6021 15.803 34.5503 15.8102 34.4973C15.8248 34.4333 15.8371 34.3723 15.8526 34.3082C15.8592 34.2514 15.873 34.1975 15.8911 34.1478C15.8922 34.085 15.9205 34.0309 15.92 33.9673C15.9171 33.9362 15.9078 33.9249 15.8949 33.9243ZM15.6733 34.5889C15.6784 34.5876 15.682 34.5887 15.6868 34.5918C15.7022 34.6015 15.7027 34.6201 15.6868 34.6405C15.6799 34.6494 15.672 34.6579 15.6695 34.6577C15.6406 34.654 15.6321 34.6476 15.631 34.6319C15.6299 34.618 15.6328 34.614 15.6521 34.6004C15.6617 34.5936 15.6683 34.5902 15.6733 34.5889ZM15.6094 35.0491C15.5788 35.0064 15.5838 34.9752 15.629 34.925C15.6484 34.9036 15.6601 34.906 15.6822 34.936C15.7163 34.9822 15.7177 35.0115 15.6876 35.0511C15.6727 35.0706 15.6662 35.0746 15.6489 35.0749C15.6308 35.0752 15.6257 35.0718 15.6094 35.0491ZM15.7975 35.1334C15.7905 35.1309 15.7839 35.1263 15.7781 35.1199C15.7723 35.1134 15.7674 35.1053 15.7638 35.0959C15.7602 35.0866 15.758 35.0762 15.7572 35.0655C15.7563 35.0549 15.757 35.044 15.7591 35.0337C15.767 34.9939 15.7716 34.99 15.8109 34.9894C15.855 34.9887 15.8636 34.9997 15.864 35.0574C15.8642 35.0899 15.8626 35.0974 15.8517 35.1124C15.8389 35.1301 15.8144 35.1396 15.7975 35.1334V35.1334ZM21.2926 35.1408C21.2786 35.1235 21.2758 35.1156 21.2757 35.0936C21.2755 35.0559 21.2901 35.0283 21.3217 35.007C21.3637 34.9787 21.3809 34.9826 21.3967 35.0241C21.4177 35.0792 21.4167 35.1017 21.3915 35.1388C21.3776 35.1593 21.375 35.1605 21.3431 35.161C21.3118 35.1613 21.3082 35.1601 21.2926 35.1408ZM16.0473 35.2462C16.0248 35.2373 16.0132 35.2122 16.0129 35.1722C16.0127 35.1416 16.0142 35.1367 16.0285 35.12C16.0379 35.1091 16.0526 35.0998 16.0642 35.0975C16.0807 35.0941 16.0867 35.0963 16.0999 35.1101C16.1339 35.1456 16.1411 35.1807 16.1214 35.2147C16.1005 35.251 16.0807 35.2594 16.0473 35.2462ZM17.399 35.336C17.394 35.3268 17.383 35.3213 17.3819 35.3097C17.3839 35.2588 17.3855 35.2073 17.3964 35.1586C17.4023 35.1107 17.3971 35.0606 17.4084 35.0139C17.4199 34.9289 17.4199 34.8413 17.4332 34.7569C17.4338 34.7134 17.4366 34.6699 17.4451 34.6281C17.4548 34.5619 17.4459 34.4927 17.459 34.4274C17.4576 34.4028 17.4766 34.3373 17.4933 34.3761C17.5176 34.4289 17.5495 34.4719 17.5809 34.515C17.6079 34.5381 17.5831 34.5723 17.5645 34.5837C17.5389 34.5987 17.5327 34.6406 17.5345 34.6774C17.5309 34.7154 17.5206 34.7514 17.5196 34.7902C17.5142 34.8472 17.5152 34.9052 17.5102 34.9622C17.499 35.018 17.5033 35.0777 17.4996 35.1352C17.5 35.1717 17.4884 35.2049 17.49 35.2416C17.487 35.2788 17.4859 35.3236 17.4649 35.3491C17.4446 35.3643 17.4153 35.3616 17.399 35.336H17.399ZM19.2305 34.4377C19.2008 34.4711 19.1742 34.5106 19.1476 34.5494C19.1111 34.5905 19.1776 34.6145 19.1862 34.6497C19.1959 34.7034 19.1953 34.7606 19.1977 34.8158C19.2088 34.8663 19.2137 34.9202 19.2112 34.9734C19.208 35.0304 19.158 35.0184 19.1361 35.0507C19.1057 35.0697 19.0936 35.114 19.0705 35.1452C19.0554 35.1895 19.0513 35.2439 19.0494 35.2942C19.0515 35.3352 19.0307 35.3812 19.0494 35.4174C19.0518 35.4225 19.0546 35.4295 19.0571 35.4346C19.0633 35.4479 19.0782 35.4372 19.0879 35.4403C19.1189 35.4377 19.1513 35.4446 19.1804 35.426C19.255 35.4068 19.3303 35.4052 19.4059 35.4002C19.4521 35.4024 19.4965 35.3785 19.5427 35.3801C19.5789 35.392 19.5952 35.3337 19.5947 35.2913C19.5742 35.2314 19.5919 35.1604 19.5754 35.0994C19.561 35.0377 19.5667 34.9685 19.56 34.9046C19.5591 34.8543 19.5162 34.8357 19.4945 34.8731C19.4735 34.9047 19.4395 34.911 19.4232 34.9504C19.4049 35.0057 19.4619 35.0057 19.4714 35.0478C19.4822 35.0904 19.4787 35.1377 19.481 35.1825C19.4881 35.2368 19.4484 35.2399 19.4232 35.2455C19.3901 35.2639 19.3437 35.2763 19.3249 35.2169C19.3132 35.1729 19.3148 35.1258 19.3114 35.0794C19.3106 34.9976 19.2974 34.9172 19.2941 34.8359C19.2909 34.7353 19.2792 34.6354 19.2748 34.5351C19.2742 34.4933 19.2705 34.4253 19.2305 34.4377V34.4377ZM19.192 35.1939L19.2112 35.1968L19.2132 35.2312L19.2151 35.2655L19.19 35.277C19.1768 35.2828 19.1652 35.2856 19.165 35.2856C19.161 35.282 19.1572 35.2782 19.1534 35.2741C19.1399 35.2596 19.1433 35.2388 19.1611 35.2111C19.1711 35.1955 19.1759 35.1925 19.192 35.1939ZM17.3441 34.3433C17.3207 34.3556 17.2909 34.4068 17.267 34.4063C17.2128 34.412 17.2203 34.4905 17.2593 34.518C17.2645 34.5418 17.2596 34.5719 17.2612 34.5982C17.2688 34.6706 17.2381 34.7288 17.2439 34.8016C17.2412 34.8814 17.225 34.9591 17.2227 35.0394C17.2075 35.1222 17.2073 35.2073 17.1977 35.2914C17.1912 35.3669 17.1545 35.3403 17.1225 35.3201C17.1223 35.2874 17.1208 35.2554 17.1206 35.2227C17.1339 35.1478 17.0934 35.1259 17.0531 35.1167C17.0108 35.1227 16.9901 35.0688 16.9992 35.0136C17.0174 34.9814 17.0631 34.9904 17.0917 34.985C17.1522 35.0036 17.1497 34.883 17.1186 34.8417C17.0974 34.7834 17.0448 34.7584 17.03 34.6985C17.0359 34.6191 17.0004 34.5397 16.9568 34.5008C16.8897 34.4938 16.839 34.5799 16.8142 34.6641C16.7863 34.6761 16.7584 34.6885 16.7313 34.7042C16.6876 34.7205 16.6253 34.8332 16.685 34.8761C16.7186 34.8898 16.8207 34.9245 16.7756 34.9935C16.7502 35.0583 16.7016 35.0595 16.6581 35.0422C16.6135 35.0423 16.5638 35.01 16.5656 34.9334C16.5565 34.8646 16.558 34.7906 16.5367 34.7271C16.5275 34.6502 16.4688 34.6682 16.4654 34.7386C16.4202 34.7875 16.4262 34.8667 16.4577 34.9248C16.4773 34.9916 16.4579 35.0694 16.4384 35.131C16.4266 35.2112 16.3671 35.214 16.3247 35.2399C16.3039 35.2519 16.2243 35.2327 16.2534 35.3C16.2998 35.3244 16.3553 35.3463 16.4037 35.3287C16.4544 35.3193 16.4985 35.2677 16.5232 35.2026C16.5573 35.1513 16.6158 35.1782 16.66 35.1768C16.7077 35.1767 16.7564 35.2266 16.8026 35.194C16.816 35.1423 16.878 35.0569 16.897 35.1453C16.8938 35.2244 16.9408 35.2669 16.9895 35.2571C17.0428 35.2526 17.0231 35.3131 17.0223 35.3602C17.0258 35.4459 17.063 35.4908 17.1109 35.5263C17.1273 35.5329 17.1445 35.5307 17.161 35.5263C17.2072 35.5048 17.2569 35.4742 17.2709 35.3974C17.2896 35.335 17.2901 35.2645 17.3037 35.1998C17.3146 35.0962 17.3287 34.9926 17.3306 34.8876C17.3477 34.7924 17.3428 34.6918 17.3557 34.5954C17.3638 34.5237 17.3699 34.4521 17.3749 34.3805C17.3693 34.3423 17.3582 34.3358 17.3441 34.3433ZM16.9259 34.7242C16.9353 34.7259 16.9405 34.743 16.9414 34.7729C16.9423 34.8063 16.9541 34.8335 16.9683 34.8388C16.9796 34.843 16.9786 34.8607 16.9664 34.8732C16.9593 34.8805 16.9466 34.8848 16.924 34.8847C16.8884 34.8844 16.8663 34.8707 16.8469 34.8417L16.8354 34.8245L16.8527 34.8073C16.8649 34.793 16.8765 34.7777 16.8874 34.7615C16.905 34.7348 16.9166 34.7225 16.9259 34.7242ZM20.9979 34.0022C20.9629 34.0046 20.9277 34.0131 20.8957 34.0252C20.8316 34.0192 20.7994 34.1193 20.8611 34.1684C20.8981 34.3091 20.956 34.1394 21.0152 34.1512C21.1039 34.1769 21.1113 34.3192 21.1251 34.4262C21.1301 34.5323 21.1506 34.6354 21.1713 34.7356C21.2306 34.8336 21.1269 34.8951 21.0827 34.8187C21.045 34.7578 20.9642 34.683 20.9189 34.7671C20.8631 34.8022 20.8609 34.9129 20.8148 34.9447C20.7402 34.9785 20.7309 34.8421 20.6915 34.7843C20.6552 34.7087 20.586 34.7021 20.5296 34.6754C20.5031 34.5958 20.5169 34.4604 20.4621 34.4062C20.4161 34.434 20.3318 34.5622 20.4024 34.621C20.4713 34.7091 20.3723 34.7494 20.3407 34.8101C20.2956 34.8847 20.2884 34.9875 20.281 35.0822C20.2033 35.146 20.1882 35.01 20.1789 34.9247C20.1728 34.8228 20.115 34.8527 20.0748 34.8903C20.0161 34.9257 19.9867 35.0086 19.9457 35.0736C19.9408 35.133 19.948 35.198 19.9476 35.2598C19.9609 35.3342 20.0218 35.2993 20.0594 35.2942C20.1197 35.2567 20.1444 35.3517 20.096 35.4059C20.0632 35.4679 19.9591 35.4355 19.9688 35.5348C20.0023 35.5406 20.0373 35.5388 20.0709 35.5348C20.1382 35.5075 20.2104 35.437 20.2174 35.3257C20.2263 35.2287 20.3202 35.2464 20.3716 35.2254C20.4357 35.1979 20.5131 35.1909 20.5277 35.3114C20.5714 35.3797 20.6663 35.4566 20.7146 35.3629C20.7636 35.3184 20.7871 35.2403 20.784 35.1567C20.774 35.0848 20.8622 35.0821 20.8842 35.1223C20.9163 35.2009 21.0168 35.1777 21.0653 35.1338C21.1169 35.0772 21.1281 34.9775 21.2021 34.9762C21.312 34.9273 21.4262 34.8991 21.5336 34.8387C21.6206 34.8105 21.5207 34.7289 21.4989 34.6812C21.4327 34.6325 21.3751 34.8317 21.3004 34.7327C21.2427 34.6671 21.2466 34.5424 21.2253 34.4462C21.2106 34.3218 21.2143 34.1784 21.154 34.0796C21.1125 34.0141 21.0562 33.9983 20.9979 34.0022ZM20.5778 34.8702C20.5855 34.87 20.5943 34.8757 20.6086 34.8874C20.6356 34.9096 20.6549 34.9463 20.6548 34.9762C20.6548 34.9957 20.6515 34.997 20.6317 35.0106C20.6196 35.0189 20.6057 35.0279 20.6009 35.0278C20.5897 35.0276 20.5624 34.9951 20.5624 34.9819C20.5623 34.9765 20.5588 34.9557 20.5546 34.939C20.5474 34.9096 20.5485 34.91 20.5585 34.8903C20.5649 34.8777 20.57 34.8705 20.5778 34.8702ZM20.9805 34.9017C21.0035 34.8995 21.0171 34.9101 21.0268 34.9361C21.038 34.9663 21.0304 34.9894 21.0017 35.0077C20.9892 35.0158 20.9766 35.0223 20.9747 35.022C20.9729 35.0218 20.9625 35.0126 20.9516 35.002C20.935 34.9857 20.9325 34.9778 20.9323 34.959C20.9322 34.9301 20.9539 34.9043 20.9805 34.9017ZM20.4294 34.9103C20.4361 34.9088 20.4422 34.914 20.4506 34.9246C20.4617 34.9388 20.4652 34.9502 20.4679 34.9791C20.4698 34.9991 20.4695 35.0251 20.4679 35.0364C20.4649 35.0571 20.4646 35.0561 20.4332 35.0564C20.3938 35.057 20.3901 35.0506 20.3908 34.9963C20.3913 34.9617 20.3916 34.9524 20.4043 34.9332C20.4142 34.9184 20.4227 34.9119 20.4294 34.9103ZM20.0902 35.0421C20.1025 35.0464 20.1141 35.0602 20.1172 35.0822C20.1212 35.1113 20.1177 35.1246 20.1018 35.1366C20.0881 35.147 20.0565 35.1505 20.0478 35.1424C20.045 35.1397 20.0392 35.1329 20.0363 35.1252C20.0321 35.1141 20.0328 35.1087 20.0382 35.1023C20.0419 35.0977 20.0459 35.0913 20.0459 35.0879C20.0459 35.0846 20.05 35.073 20.0555 35.0622C20.0645 35.0444 20.0779 35.0378 20.0902 35.0421ZM20.6606 35.151C20.6716 35.1509 20.6809 35.1565 20.6876 35.1653C20.699 35.1802 20.6986 35.202 20.6857 35.2168C20.6773 35.2264 20.6319 35.2255 20.6163 35.2168C20.6093 35.213 20.6067 35.2078 20.6067 35.1968C20.6065 35.1839 20.609 35.1759 20.624 35.1653C20.6366 35.1563 20.6496 35.1511 20.6606 35.151ZM19.6017 35.5927C19.5958 35.5869 19.5871 35.5819 19.5959 35.5724C19.6065 35.5446 19.6278 35.535 19.6467 35.5247C19.6805 35.503 19.7097 35.466 19.7314 35.4222C19.7345 35.3917 19.7576 35.3751 19.7575 35.3432C19.7577 35.2997 19.7594 35.2551 19.7523 35.2125C19.7443 35.1735 19.7244 35.1436 19.7013 35.1232C19.6855 35.1047 19.6597 35.0996 19.6539 35.0669C19.6506 35.0355 19.6695 35.0116 19.6761 34.9836C19.6899 34.9449 19.7015 34.9044 19.7163 34.8667C19.7322 34.8403 19.7569 34.8653 19.7651 34.8907C19.7768 34.9162 19.7872 34.9435 19.7929 34.973C19.8116 35.0034 19.8281 35.0391 19.8348 35.0795C19.844 35.108 19.8584 35.1347 19.8576 35.1681C19.8576 35.2062 19.8721 35.2402 19.8712 35.2786C19.872 35.33 19.872 35.3836 19.8594 35.4321C19.8507 35.459 19.8334 35.4752 19.822 35.4993C19.8023 35.5263 19.7806 35.5523 19.7554 35.5667C19.7375 35.5752 19.7272 35.6057 19.7048 35.5983C19.6731 35.5992 19.6409 35.6056 19.6094 35.598C19.6114 35.6029 19.5998 35.5896 19.6017 35.5927V35.5927ZM19.1793 35.6339C19.1644 35.611 19.1611 35.6013 19.1609 35.5789C19.1608 35.5562 19.1637 35.5472 19.1784 35.5252C19.2054 35.4846 19.2186 35.4836 19.2652 35.5187C19.3098 35.5523 19.3249 35.5553 19.3289 35.5316C19.3328 35.5086 19.3584 35.4877 19.3828 35.4875C19.3982 35.4873 19.407 35.4919 19.4193 35.5062C19.4348 35.5241 19.4356 35.5269 19.436 35.5684C19.4362 35.6109 19.4358 35.6125 19.4181 35.6359C19.4009 35.6583 19.3982 35.6597 19.377 35.6565C19.35 35.6525 19.3339 35.6341 19.3295 35.6026C19.3263 35.5797 19.3209 35.5742 19.3168 35.5897C19.3155 35.5948 19.3089 35.6009 19.3021 35.6035C19.2895 35.6082 19.2682 35.6281 19.2531 35.6493C19.2474 35.6573 19.2374 35.6611 19.2211 35.6613C19.1992 35.6616 19.1962 35.6597 19.1793 35.6339ZM17.9571 34.8181C17.9161 34.8187 17.872 34.87 17.8665 34.9298C17.8759 34.9988 17.9144 35.0663 17.8896 35.1389C17.9067 35.2318 17.8427 35.267 17.7991 35.2134C17.7727 35.1244 17.7594 35.0268 17.7201 34.947C17.6705 34.9261 17.6489 35.0439 17.6141 35.0845C17.6313 35.1537 17.6816 35.2158 17.6873 35.3022C17.6993 35.3861 17.665 35.4792 17.616 35.5228C17.5737 35.5828 17.5158 35.5613 17.4638 35.5743C17.4006 35.6292 17.5101 35.6493 17.5389 35.6517C17.6035 35.6614 17.6706 35.6488 17.7181 35.5772C17.7655 35.5435 17.7619 35.4216 17.8183 35.4082C17.9163 35.4017 18.0134 35.4305 18.1112 35.434C18.1636 35.4526 18.2447 35.4247 18.2808 35.4827C18.2809 35.5842 18.3388 35.6468 18.3945 35.6861C18.4253 35.6988 18.4577 35.6421 18.489 35.6316C18.5485 35.6034 18.5304 35.494 18.566 35.4512C18.6678 35.443 18.7705 35.4447 18.8724 35.4426C18.8918 35.4433 18.8976 35.4022 18.911 35.3853C18.9088 35.3267 18.9073 35.2686 18.9014 35.2105C18.8817 35.1366 18.9045 35.0414 18.8686 34.9785C18.8174 34.9578 18.7739 35.0274 18.7221 35.0329C18.665 35.0708 18.6169 35.1492 18.6142 35.2449C18.5804 35.3271 18.5262 35.2303 18.5448 35.1618C18.5427 35.132 18.5492 35.0973 18.5429 35.0702C18.5117 35.0144 18.4569 35.0326 18.4138 35.0244C18.351 35.0281 18.2897 35.0079 18.2269 35.01C18.1718 35.0038 18.1145 35.0172 18.0611 34.9957C17.9975 34.993 18.0063 34.9005 17.9956 34.8353C17.9843 34.8228 17.9708 34.8179 17.9571 34.8181ZM18.0804 35.1561C18.1016 35.1568 18.1215 35.1609 18.1421 35.1647C18.1687 35.1712 18.197 35.1511 18.223 35.1647C18.2832 35.1799 18.3435 35.1763 18.4042 35.1848C18.4202 35.1844 18.4317 35.2017 18.4427 35.2163C18.4428 35.2789 18.4428 35.3427 18.4427 35.4053C18.4409 35.4289 18.4474 35.4602 18.4331 35.4769C18.4285 35.4816 18.4233 35.4868 18.4177 35.4884C18.401 35.482 18.3833 35.4657 18.3753 35.4426C18.3727 35.4098 18.3764 35.378 18.3772 35.3452C18.3768 35.3367 18.3797 35.3234 18.3772 35.3165C18.3641 35.3027 18.3492 35.2937 18.3329 35.2936C18.2805 35.2909 18.2291 35.2852 18.1768 35.2821C18.1332 35.2781 18.0884 35.2877 18.0457 35.2707C18.0292 35.2617 18.0076 35.2648 17.9976 35.2392C17.9831 35.2142 18.0039 35.1845 18.0188 35.1733C18.0384 35.16 18.0593 35.1555 18.0804 35.1561L18.0804 35.1561ZM18.7761 35.179C18.7859 35.1788 18.789 35.1836 18.7934 35.2105C18.7963 35.2277 18.7996 35.2488 18.8011 35.2564C18.8034 35.2672 18.7998 35.2707 18.7896 35.2764C18.7591 35.2935 18.7288 35.2918 18.7183 35.2707C18.7135 35.2611 18.7191 35.2309 18.7279 35.2191C18.7458 35.1954 18.7655 35.1791 18.7761 35.179Z" fill="#C09300"/>
<path d="M19.2619 23.2001C19.3031 23.2038 19.2063 22.8731 19.2063 22.8731C19.3152 23.0384 19.7262 23.078 19.7262 23.078C19.4795 22.9161 19.233 21.6942 19.2619 20.7202C19.2886 19.7427 19.1677 19.358 19.071 19.2143C18.9476 19.031 18.5511 18.8693 18.29 18.8476C18.1425 18.8369 18.1667 19.013 18.1667 19.013C17.8935 18.9088 17.6203 18.8693 17.497 18.9915C17.3809 19.1065 17.3567 19.6815 17.4414 19.5809C17.6468 19.3365 17.8258 19.5593 17.9491 19.8253C18.0578 20.0589 18.0506 20.7202 17.8934 21.4929C17.729 22.3051 17.2793 23.1174 17.2793 23.1174C17.5235 23.1174 17.8669 22.794 17.8669 22.794L17.7847 23.3007C18.0433 23.1174 18.2489 22.8335 18.2489 22.8335L18.4955 23.218C18.5777 23.0563 18.7422 22.8335 18.7422 22.8335C18.7422 22.8335 18.9476 23.157 19.2619 23.2001Z" fill="white" stroke="#C09300" stroke-width="0.0811999"/>
<path d="M18.2608 20.8612C18.2608 20.8612 18.1229 22.3671 17.8643 22.7948M18.4785 20.8218C18.4785 20.8218 18.4252 22.3455 18.2463 22.8344M18.6715 20.8832C18.6715 20.8832 18.6715 22.5508 18.7392 22.8347M18.9157 20.9657C18.9157 20.9657 18.9713 22.3674 19.2034 22.8741" stroke="#C09300" stroke-width="0.0846665"/>
<path d="M18.0125 20.1313C18.0004 19.9984 17.9786 19.894 17.9472 19.8257C17.8238 19.5598 17.645 19.337 17.4395 19.5814C17.4395 19.5814 17.5096 19.2579 17.6595 19.2472C17.7755 19.2363 18.039 19.3765 18.2712 19.9659C18.2712 19.9659 18.0995 19.9084 18.0585 19.9623C17.981 20.063 18.0125 20.1313 18.0125 20.1313Z" fill="#C09300" stroke="#C09300" stroke-width="0.0236"/>
<path d="M17.4219 19.1824C17.4388 19.0997 17.4654 19.0242 17.4993 18.9919C17.6226 18.8697 17.8958 18.9092 18.169 19.0134C18.169 19.0134 18.1448 18.8373 18.2923 18.8481C18.5534 18.8697 18.9499 19.0315 19.0732 19.2147C19.1022 19.2615 19.1361 19.3298 19.1651 19.4339H19.1602C19.0998 19.3081 18.9281 19.3154 18.887 19.3225C18.8217 19.3333 18.7806 19.3297 18.6936 19.362C18.6525 19.3764 18.5896 19.3944 18.5557 19.4339C18.5292 19.4662 18.5074 19.5849 18.4663 19.5849C18.401 19.5849 18.4059 19.5597 18.3889 19.531C18.3672 19.4915 18.3551 19.4339 18.3333 19.4375C18.2656 19.4555 18.1568 19.3764 18.019 19.2147C17.8812 19.0529 17.828 19.0134 17.6491 19.0314C17.4726 19.0529 17.417 19.2003 17.417 19.2003L17.4219 19.1824Z" fill="#C09300" stroke="#C09300" stroke-width="0.0236"/>
<path d="M18.4319 19.4197C18.4719 19.4197 18.5044 19.3714 18.5044 19.3119C18.5044 19.2524 18.4719 19.2041 18.4319 19.2041C18.3918 19.2041 18.3594 19.2524 18.3594 19.3119C18.3594 19.3714 18.3918 19.4197 18.4319 19.4197Z" fill="white"/>
<path d="M18.4968 29.9963C20.5098 27.6949 20.3372 24.3237 20.3372 24.3237C20.284 24.3395 20.2336 24.3474 20.1805 24.3474C19.7582 24.3474 18.7512 23.9883 18.5162 23.5322C18.2645 23.945 17.2354 24.3474 16.8158 24.3474C16.7627 24.3474 16.7096 24.3395 16.6591 24.3237C16.6591 24.3237 16.4839 27.6948 18.4968 29.9963Z" fill="white" stroke="#C09300" stroke-width="0.0766669"/>
<path d="M20.18 24.5707C20.1627 24.5724 20.1453 24.5732 20.1278 24.5732C19.7451 24.5732 18.8563 24.2813 18.5136 23.8438C18.1548 24.248 17.2512 24.5732 16.8748 24.5732C16.8571 24.5732 16.8397 24.57 16.8224 24.5652C16.8215 24.6927 16.826 24.8249 16.8313 24.9451C16.8512 25.3943 16.9042 25.8451 16.9847 26.279C17.238 27.6444 17.7565 28.8047 18.5 29.6849C19.244 28.804 19.7632 27.6426 20.017 26.2762C20.0976 25.8424 20.1508 25.3916 20.1709 24.9424C20.1756 24.8167 20.1803 24.6627 20.18 24.5707Z" stroke="#C09300" stroke-width="0.0610669"/>
<mask id="mask0_8_30809" style="mask-type:luminance" maskUnits="userSpaceOnUse" x="16" y="23" width="5" height="7">
<path d="M20.1638 24.5884C20.1467 24.5901 20.1295 24.5908 20.1121 24.5908C19.7335 24.5908 18.8541 24.302 18.5152 23.8691C18.1601 24.269 17.2662 24.5908 16.8938 24.5908C16.8763 24.5908 16.859 24.5877 16.8419 24.5829C16.841 24.7091 16.8455 24.8398 16.8507 24.9587C16.8704 25.4032 16.9229 25.8492 17.0025 26.2785C17.2531 27.6293 17.7661 28.7773 18.5016 29.6481C19.2378 28.7765 19.7514 27.6275 20.0026 26.2756C20.0823 25.8465 20.1349 25.4005 20.1548 24.9561C20.1595 24.8317 20.1641 24.6793 20.1638 24.5884Z" fill="white"/>
</mask>
<g mask="url(#mask0_8_30809)">
<path fill-rule="evenodd" clip-rule="evenodd" d="M16.8145 23.811H17.9404V29.706H16.8145V23.811Z" fill="#C09300"/>
<path fill-rule="evenodd" clip-rule="evenodd" d="M17.9385 23.811H19.0644V29.706H17.9385V23.811Z" fill="white"/>
<path fill-rule="evenodd" clip-rule="evenodd" d="M19.0674 23.811H20.1934V29.706H19.0674V23.811Z" fill="#C09300"/>
</g>
</g>
<defs>
<clipPath id="clip0_8_30809">
<rect width="37" height="55" rx="18.5" fill="white"/>
</clipPath>
</defs>
</svg>
