<svg width="38" height="55" viewBox="0 0 38 55" fill="none" xmlns="http://www.w3.org/2000/svg">
<g clip-path="url(#clip0_8_30602)">
<path d="M47.5 0H-9.5V55H47.5V0Z" fill="#009E49"/>
<path d="M47.5 0H-9.5V27.5H47.5V0Z" fill="#EF2B2D"/>
<path d="M18.9834 18.333L17.0263 27.051L20.038 28.4674" fill="#FCD116"/>
<path d="M18.9834 18.333L20.9405 27.051L17.9288 28.4674" fill="#FCD116"/>
<path d="M25.0244 24.6685L18.9275 25.4105L18.6911 29.2518" fill="#FCD116"/>
<path d="M25.0244 24.2476L19.6794 30.0567L18.0393 26.7698" fill="#FCD116"/>
<path d="M22.7227 34.6978L20.9832 26.1984L17.7539 27.8335" fill="#FCD116"/>
<path d="M22.5732 34.9165L17.5987 29.779L19.6093 25.8205" fill="#FCD116"/>
<path d="M15.4268 34.916L20.4013 29.7785L18.3907 25.82" fill="#FCD116"/>
<path d="M15.2773 34.6973L17.0168 26.1979L20.2461 27.833" fill="#FCD116"/>
<path d="M12.9785 24.2441L18.3235 30.0533L19.9636 26.7664" fill="#FCD116"/>
<path d="M12.9785 24.6655L19.0754 25.4076L19.3118 29.2489" fill="#FCD116"/>
</g>
<defs>
<clipPath id="clip0_8_30602">
<rect width="38" height="55" rx="19" fill="white"/>
</clipPath>
</defs>
</svg>
