<svg width="37" height="57" viewBox="0 0 37 57" fill="none" xmlns="http://www.w3.org/2000/svg">
<g clip-path="url(#clip0_8_31184)">
<path d="M-9.25 0H46.2351V57H-9.25V0Z" fill="#CD2A3E"/>
<path d="M-9.25 8.5498H46.2351V48.4498H-9.25V8.5498Z" fill="#006233"/>
<path d="M30.0632 18.3589C30.0632 23.0831 28.845 27.6137 26.6766 30.9542C24.5082 34.2947 21.5672 36.1714 18.5007 36.1714C15.4341 36.1714 12.4931 34.2947 10.3247 30.9542C8.15635 27.6137 6.93816 23.0831 6.93816 18.3589C6.68121 19.8788 6.55168 21.4432 6.55274 23.0139C6.55274 27.8955 7.81154 32.5772 10.0522 36.0291C12.2929 39.4809 15.3319 41.4201 18.5007 41.4201C21.6694 41.4201 24.7084 39.4809 26.9491 36.0291C29.1898 32.5772 30.4486 27.8955 30.4486 23.0139C30.4501 21.4432 30.3205 19.8787 30.0632 18.3589Z" fill="#FFC400"/>
<path d="M18.5002 11.1382L17.4596 16.0663H14.1064L16.8275 19.1063L15.7869 24.0226L18.5079 20.9826L21.2289 24.0226L20.1883 19.1063L22.9094 16.0663H19.5485L18.5002 11.1382Z" fill="#FFC400"/>
</g>
<defs>
<clipPath id="clip0_8_31184">
<rect width="37" height="57" rx="18.5" fill="white"/>
</clipPath>
</defs>
</svg>
