<svg width="38" height="57" viewBox="0 0 38 57" fill="none" xmlns="http://www.w3.org/2000/svg">
<g clip-path="url(#clip0_8_31144)">
<path d="M-9.5 0H47.5V57H-9.5V0Z" fill="white"/>
<path d="M-9.5 0H47.5V17.1H-9.5V0Z" fill="#00209F"/>
<path d="M-9.5 39.8999H47.5V56.9999H-9.5V39.8999Z" fill="#009543"/>
<path d="M18.9987 18.0117C19.0965 18.0115 19.1925 18.0518 19.276 18.1281C19.3596 18.2044 19.4275 18.3138 19.4723 18.4443C20.5987 18.6458 21.1911 19.8693 21.3974 21.2923C21.6383 22.9555 21.3832 25.2171 20.6008 27.5918L23.6062 33.5737C23.7657 33.4618 23.9234 33.344 24.0791 33.2205L25.1838 36.7281C23.2723 38.2127 21.1512 38.9875 18.9987 38.9875C16.8461 38.9875 14.725 38.2127 12.8135 36.7281L13.9182 33.2205C14.0739 33.344 14.2316 33.4618 14.3912 33.5737L17.3965 27.5918C16.6142 25.2171 16.359 22.9555 16.5999 21.2923C16.8062 19.8693 17.3986 18.6458 18.525 18.4443C18.5698 18.3138 18.6377 18.2044 18.7213 18.1281C18.8048 18.0518 18.9008 18.0115 18.9987 18.0117ZM20.1889 26.7714C20.7982 24.7306 20.9964 22.7956 20.8037 21.5162C20.6333 20.3843 20.2513 19.5436 19.4927 19.3645V22.2867L20.4427 23.7117H19.6827V25.7637L20.1889 26.7714ZM18.5047 19.3645C17.746 19.5436 17.364 20.3843 17.1937 21.5162C17.0009 22.7956 17.1991 24.7306 17.8084 26.7714L18.3147 25.7637V23.7117H17.5547L18.5047 22.2867V19.3645ZM14.2867 34.7209L13.9616 35.7509L14.4875 35.5392L14.2867 34.7209ZM14.022 36.1988C14.2632 36.3544 14.5076 36.4987 14.7549 36.6314L14.5927 35.9698L14.022 36.1988ZM15.2183 36.0441L15.9003 35.7204L15.7042 35.0608C15.4228 34.9326 15.1448 34.7879 14.8709 34.6272L15.2183 36.0441ZM16.0245 36.1398L15.3235 36.4726L15.445 36.9673C15.7518 37.1023 16.0619 37.2198 16.3746 37.3195L16.0245 36.1398ZM16.7818 36.5876L17.5329 36.1255L17.3531 35.6156C17.0375 35.5459 16.7239 35.4562 16.4133 35.3468L16.7818 36.5876ZM17.6761 36.5306L16.9053 37.0039L17.0545 37.5078C17.3957 37.5875 17.7389 37.6463 18.0833 37.6838L17.6761 36.5306ZM18.4334 36.8502L19.3705 36.1153L19.2348 35.7916C18.8361 35.8042 18.4372 35.7852 18.0398 35.7346L18.4334 36.8502ZM19.534 36.5021L18.5759 37.2533L18.7442 37.7296C19.1721 37.7426 19.6001 37.7229 20.0267 37.6706L19.534 36.5021ZM20.3205 36.7688L21.0574 36.0095L20.8437 35.5687C20.527 35.647 20.2082 35.7051 19.8883 35.7428L20.3205 36.7688ZM21.2366 36.3779L20.4834 37.1546L20.6578 37.5688C21.0025 37.5005 21.3453 37.4109 21.6851 37.3001L21.2366 36.3779ZM21.9219 36.3362L22.5354 35.5199L22.285 35.0649C22.0132 35.1886 21.7384 35.2969 21.4612 35.3896L21.9219 36.3362ZM22.7294 35.871L22.1018 36.7067L22.2836 37.0813C22.5823 36.9602 22.8779 36.8227 23.1698 36.669L22.7294 35.871ZM23.3551 35.6644L23.771 34.9122L23.5899 34.3371C23.3515 34.4955 23.1096 34.6415 22.8645 34.7748L23.3551 35.6644ZM23.9149 35.3672L23.5525 36.0217L23.7337 36.3505C23.8709 36.2672 24.0071 36.1803 24.1422 36.0899L23.9149 35.3672Z" fill="black"/>
</g>
<defs>
<clipPath id="clip0_8_31144">
<rect width="38" height="57" rx="19" fill="white"/>
</clipPath>
</defs>
</svg>
