<svg width="38" height="57" viewBox="0 0 38 57" fill="none" xmlns="http://www.w3.org/2000/svg">
<g clip-path="url(#clip0_8_31282)">
<path d="M0 57V0H57L0 57Z" fill="#003580"/>
<path d="M57 0V57H0L57 0Z" fill="#009543"/>
<mask id="mask0_8_31282" style="mask-type:luminance" maskUnits="userSpaceOnUse" x="0" y="0" width="57" height="57">
<path d="M0 0H57V57H0V0Z" fill="white"/>
</mask>
<g mask="url(#mask0_8_31282)">
<path d="M0 57L57 0" stroke="white" stroke-width="13.3333"/>
<path d="M0 57L57 0" stroke="#D21034" stroke-width="10"/>
</g>
<path d="M12.3509 7.44922L13.3345 11.444L15.5176 8.72222L15.0381 12.9193L17.8356 12.1992L16.0217 15.4748L18.6842 16.9492L16.0217 18.4246L17.8356 21.6992L15.0381 20.9801L15.5176 25.1772L13.3345 22.4554L12.3509 26.4492L11.3673 22.4554L9.18425 25.1772L9.66368 20.9801L6.86624 21.6992L8.68011 18.4246L6.01758 16.9492L8.68011 15.4748L6.86624 12.1992L9.66368 12.9193L9.18425 8.72222L11.3673 11.444L12.3509 7.44922Z" fill="#FFCE00"/>
<path d="M12.3486 22.1741C14.2724 22.1741 15.8319 19.8348 15.8319 16.9491C15.8319 14.0634 14.2724 11.7241 12.3486 11.7241C10.4248 11.7241 8.86523 14.0634 8.86523 16.9491C8.86523 19.8348 10.4248 22.1741 12.3486 22.1741Z" stroke="#003580" stroke-width="0.666667"/>
</g>
<defs>
<clipPath id="clip0_8_31282">
<rect width="38" height="57" rx="19" fill="white"/>
</clipPath>
</defs>
</svg>
