<svg width="37" height="57" viewBox="0 0 37 57" fill="none" xmlns="http://www.w3.org/2000/svg">
<g clip-path="url(#clip0_8_31172)">
<path d="M46.25 0H-9.25V57H46.25V0Z" fill="#239E46"/>
<path d="M46.2867 0H-9.25V42.75H46.2867V0Z" fill="black"/>
<path d="M46.2867 0H-9.25V14.25H46.2867V0Z" fill="#E70013"/>
<path d="M17.9541 35.625C20.5084 35.625 22.5791 32.435 22.5791 28.5C22.5791 24.565 20.5084 21.375 17.9541 21.375C15.3998 21.375 13.3291 24.565 13.3291 28.5C13.3291 32.435 15.3998 35.625 17.9541 35.625Z" fill="white"/>
<path d="M18.8906 34.6909C21.1099 34.6909 22.9091 31.9193 22.9091 28.5002C22.9091 25.0812 21.1099 22.3096 18.8906 22.3096C16.6712 22.3096 14.8721 25.0812 14.8721 28.5002C14.8721 31.9193 16.6712 34.6909 18.8906 34.6909Z" fill="black"/>
<path d="M20.2041 28.5L26.4247 25.3863L22.5802 33.5382V23.4619L26.4247 31.6138L20.2041 28.5Z" fill="white"/>
</g>
<defs>
<clipPath id="clip0_8_31172">
<rect width="37" height="57" rx="18.5" fill="white"/>
</clipPath>
</defs>
</svg>
