<svg width="37" height="55" viewBox="0 0 37 55" fill="none" xmlns="http://www.w3.org/2000/svg">
<g clip-path="url(#clip0_8_30788)">
<path d="M-9.25 0H46.25V55H-9.25V0Z" fill="#DA121A"/>
<path d="M-9.25 0H46.25V36.6667H-9.25V0Z" fill="#FCDD09"/>
<path d="M-9.25 0H46.25V18.3333H-9.25V0Z" fill="#078930"/>
<path d="M18.64 45.7604C25.4515 45.7604 30.9733 37.5523 30.9733 27.4271C30.9733 17.3019 25.4515 9.09375 18.64 9.09375C11.8285 9.09375 6.30664 17.3019 6.30664 27.4271C6.30664 37.5523 11.8285 45.7604 18.64 45.7604Z" fill="#0F47AF"/>
<path d="M18.6393 12.7603L18.2071 14.7379L19.99 22.8947H17.6129L17.3457 24.1169H24.968L26.0997 22.8947H20.8545L18.6393 12.7603Z" fill="#FCDD09"/>
<path d="M21.2969 21.9883L24.4383 15.5611L21.2969 21.9883Z" fill="black"/>
<path d="M21.2969 21.9883L24.4383 15.5611" stroke="#FCDD09" stroke-width="0.444444"/>
<path d="M28.5258 22.7595L27.0536 22.9641L21.8438 28.4764L21.2689 25.3644L20.359 25.4908L22.2026 35.4695L23.3215 36.4749L22.0529 29.6082L28.5258 22.7595Z" fill="#FCDD09"/>
<path d="M22.9424 29.5039L28.0253 31.9589L22.9424 29.5039Z" fill="black"/>
<path d="M22.9424 29.5039L28.0253 31.9589" stroke="#FCDD09" stroke-width="0.444444"/>
<path d="M24.3938 38.8759L24.0325 36.9593L19.5283 32.3689L21.5378 30.1592L21.3146 28.9746L14.8712 36.0603L14.3636 38.0485L18.7975 33.1726L24.3938 38.8759Z" fill="#FCDD09"/>
<path d="M20.0908 35.1162L19.9552 41.3637L20.0908 35.1162Z" fill="black"/>
<path d="M20.0908 35.1162L19.9552 41.3637" stroke="#FCDD09" stroke-width="0.444444"/>
<path d="M13.1096 39.2203L14.2016 38.1074L15.6915 30.2022L17.701 32.412L18.3759 31.7241L11.9325 24.6385L10.5268 24.5227L14.9607 29.3985L13.1096 39.2203Z" fill="#FCDD09"/>
<path d="M14.3369 29.5039L9.25404 31.9589L14.3369 29.5039Z" fill="black"/>
<path d="M14.3369 29.5039L9.25404 31.9589" stroke="#FCDD09" stroke-width="0.444445"/>
<path d="M9.1703 22.1146L10.4334 23.451L16.5056 24.295L15.9307 27.4071L16.7113 28.233L18.5548 18.2543L17.9833 16.2966L16.7147 23.1632L9.1703 22.1146Z" fill="#FCDD09"/>
<path d="M15.9824 21.9893L12.841 15.5621L15.9824 21.9893Z" fill="black"/>
<path d="M15.9824 21.9893L12.841 15.5621" stroke="#FCDD09" stroke-width="0.444444"/>
</g>
<defs>
<clipPath id="clip0_8_30788">
<rect width="37" height="55" rx="18.5" fill="white"/>
</clipPath>
</defs>
</svg>
