<svg width="500" height="787" viewBox="0 0 500 787" fill="none" xmlns="http://www.w3.org/2000/svg">
<g clip-path="url(#clip0_8_54414)">
<path d="M523.755 -510C813.018 -510 1047.51 -272.263 1047.51 20.9999C1047.51 314.263 813.018 552 523.755 552C234.493 552 2.52884e-05 314.263 0 20.9999C-2.52884e-05 -272.263 234.493 -510 523.755 -510Z" fill="#00BAF2"/>
<path opacity="0.8" d="M789.616 -432C462.405 -432 197.155 -163.151 197.155 168.5C197.155 500.15 462.405 769 789.616 769C1116.82 769 1382.08 500.15 1382.08 168.5C1382.08 -163.151 1116.82 -432 789.616 -432Z" stroke="#1D5DC7" stroke-width="36"/>
</g>
<defs>
<clipPath id="clip0_8_54414">
<rect width="1400" height="1297" fill="white" transform="translate(0 -510)"/>
</clipPath>
</defs>
</svg>
