<svg width="285" height="38" viewBox="0 0 285 38" fill="none" xmlns="http://www.w3.org/2000/svg">
<g clip-path="url(#clip0_8_69416)">
<path d="M109.662 0.880951H126.094V1.53566H118.884V8.9666H116.956V1.53566H109.746V0.880951H109.662Z" fill="#003764"/>
<path d="M128.023 0.880951H129.951V4.38364H142.275V0.880951H144.203V8.9666H142.275V5.03835H129.951V8.9666H128.023V0.880951Z" fill="#003764"/>
<path d="M148.479 0.880951H162.731V1.53566H150.407V4.44911H161.977V5.10382H150.407V8.27916H162.899V8.93387H148.479V0.880951Z" fill="#003764"/>
<path d="M109.662 29.0007H122.825V29.6554H111.674V32.5688H121.567V33.2235H111.674V37.0863H109.746V29.0007H109.662Z" fill="#003764"/>
<path d="M133.891 28.837C140.347 28.837 143.616 30.8339 143.616 33.0599C143.616 35.2859 140.347 37.2827 133.891 37.2827C127.352 37.2827 124.166 35.2859 124.166 33.0599C124.166 30.8339 127.436 28.837 133.891 28.837ZM133.891 36.5953C139.341 36.5953 141.688 34.7949 141.688 33.0271C141.688 31.2594 139.341 29.459 133.891 29.459C128.442 29.459 126.095 31.2594 126.095 33.0271C126.095 34.8276 128.442 36.5953 133.891 36.5953Z" fill="#003764"/>
<path d="M146.551 29.0007H148.479V34.0092C148.479 35.8751 150.742 36.5953 154.515 36.5953C158.372 36.5953 160.635 35.8751 160.635 34.0092V29.0007H162.647V34.1729C162.647 35.8424 160.384 37.25 154.599 37.25C148.898 37.25 146.551 35.8424 146.551 34.1729V29.0007Z" fill="#003764"/>
<path d="M166.588 29.0007H168.767L180.84 35.8424H180.924V29.0007H182.936V37.0863H180.756L168.684 30.2446H168.6V37.0863H166.588V29.0007Z" fill="#003764"/>
<path d="M186.96 29.0007H194.086C200.374 29.0661 203.56 30.3756 203.56 33.0271C203.56 35.7114 200.29 37.0209 194.086 37.0536H186.96V29.0007ZM188.972 36.4316H193.164C199.116 36.4316 201.715 35.4823 201.715 33.0599C201.715 30.6374 199.116 29.6881 193.164 29.6881H188.972V36.4316Z" fill="#003764"/>
<path d="M212.866 29.0007H215.046L223.178 37.0863H221.082L218.567 34.5657H209.177L206.662 37.0863H204.566L212.866 29.0007ZM209.764 33.911H217.896L213.872 29.7863L209.764 33.911Z" fill="#003764"/>
<path d="M220.914 29.0007H237.346V29.6554H230.136V37.0863H228.124V29.6554H220.914V29.0007Z" fill="#003764"/>
<path d="M239.358 29.0007H241.37V37.0863H239.358V29.0007Z" fill="#003764"/>
<path d="M254.281 28.837C260.737 28.837 264.006 30.8339 264.006 33.0599C264.006 35.2859 260.737 37.2827 254.281 37.2827C247.742 37.2827 244.556 35.2859 244.556 33.0599C244.556 30.8339 247.826 28.837 254.281 28.837ZM254.281 36.5953C259.731 36.5953 262.078 34.7949 262.078 33.0271C262.078 31.2594 259.731 29.459 254.281 29.459C248.832 29.459 246.484 31.2594 246.484 33.0271C246.568 34.8276 248.832 36.5953 254.281 36.5953Z" fill="#003764"/>
<path d="M267.108 29.0007H269.288L281.36 35.8424H281.444V29.0007H283.456V37.0863H281.277L269.204 30.2446H269.12V37.0863H267.108V29.0007Z" fill="#003764"/>
<path d="M109.662 11.3563H121.064V22.0935H137.412V25.7926H109.662V11.3563Z" fill="#003764"/>
<path d="M144.958 11.3563H156.36V25.7926H144.958V11.3563Z" fill="#003764"/>
<path d="M164.827 11.3563H176.48L187.295 19.0819H187.379V11.3563H198.194V25.7926H187.128L175.726 17.9361H175.642V25.8253H164.827V11.3563Z" fill="#003764"/>
<path d="M240.364 20.2276C240.364 24.254 234.915 26.1527 223.513 26.1527C212.111 26.1527 206.578 24.254 206.578 20.2276V11.3563H217.98V19.2455C217.98 20.7186 217.896 22.5518 223.513 22.5518C228.879 22.5518 228.879 20.6859 228.879 19.2455V11.3563H240.28V20.2276H240.364Z" fill="#003764"/>
<path d="M258.473 18.1325L246.317 11.3563H259.731L265.348 15.2845L270.881 11.3563H283.54L271.635 18.1653L284.714 25.8253H270.965L264.677 21.5043L258.138 25.8253H245.059L258.473 18.1325Z" fill="#003764"/>
<path d="M19.1184 29.819V15.2845H0.506592V37.0863H56.342V29.819H19.1184Z" fill="#009ADE"/>
<path d="M93.5657 0.75H0.506592V11.6509H19.1184V8.05H74.9538V29.8191H65.6479V37.0863H93.5657V0.75Z" fill="#003764"/>
</g>
<defs>
<clipPath id="clip0_8_69416">
<rect width="284.207" height="36.5" fill="white" transform="translate(0.506592 0.75)"/>
</clipPath>
</defs>
</svg>
