<svg width="40" height="34" viewBox="0 0 40 34" fill="none" xmlns="http://www.w3.org/2000/svg">
<g clip-path="url(#clip0_8_54467)">
<path fill-rule="evenodd" clip-rule="evenodd" d="M39.8246 6.05863C33.8597 8.89392 30.8774 12.2254 30.8774 16.0531C33.4198 16.3366 35.5221 17.3408 37.1844 19.0656C38.8468 20.7904 39.6779 22.7869 39.6779 25.0552C39.6779 27.4652 38.8712 29.4971 37.2578 31.1511C35.6443 32.8051 33.6153 33.632 31.1707 33.632C28.4328 33.632 26.0616 32.557 24.0569 30.4068C22.0524 28.2567 21.0501 25.6459 21.0501 22.5743C21.0501 13.3595 26.3793 6.15317 37.0378 0.955078L39.8246 6.05863ZM18.7744 6.05863C12.7607 8.89392 9.7539 12.2254 9.7539 16.0531C12.3452 16.3366 14.4719 17.3408 16.1343 19.0656C17.7966 20.7904 18.6278 22.7869 18.6278 25.0552C18.6278 27.4652 17.8088 29.4971 16.171 31.1511C14.5331 32.8051 12.4919 33.632 10.0473 33.632C7.30929 33.632 4.9503 32.557 2.97018 30.4068C0.990047 28.2567 0 25.6459 0 22.5743C0 13.3595 5.3047 6.15317 15.9143 0.955078L18.7744 6.05863Z" fill="#0E71EB" fill-opacity="0.1"/>
</g>
<defs>
<clipPath id="clip0_8_54467">
<rect width="40" height="33" fill="white" transform="translate(0 0.75)"/>
</clipPath>
</defs>
</svg>
