<svg width="168" height="49" viewBox="0 0 168 49" fill="none" xmlns="http://www.w3.org/2000/svg">
<path d="M10.2154 24.2704C6.70986 23.1926 3.4386 22.1542 0 21.0763C2.33702 18.039 4.60711 15.0346 6.90711 12.0325C7.25167 12.8535 7.50939 13.7191 7.67472 14.611C7.80859 15.1856 7.94175 15.381 8.50927 15.1495C13.2363 13.0665 18.1526 11.607 23.1644 10.7988C32.5654 9.12687 42.1808 10.2393 51.1062 14.0314C51.3119 14.1131 51.4978 14.2499 51.6488 14.4305C51.7997 14.6112 51.9112 14.8306 51.9742 15.0707C52.3223 16.2695 52.5574 17.5079 52.6756 18.7647C52.7425 19.4576 52.6087 19.5733 52.0411 19.3393C48.5379 17.9624 44.9265 16.9828 41.2582 16.4145C35.8889 15.5872 30.4525 15.5098 25.0671 16.1838C20.0396 16.8348 15.0768 18.0332 10.2453 19.7629C9.37729 20.0707 9.1772 20.4558 9.51116 21.4179C9.78103 22.2691 9.94837 23.154 10.2154 24.2704Z" fill="white"/>
<path d="M11.3864 28.9574C15.9433 30.595 20.6279 31.7165 25.3736 32.3058C35.022 33.6315 44.8055 32.4075 53.9826 28.7267C54.5522 28.496 54.7167 28.3032 54.5166 27.5726C54.2161 26.6105 54.0495 25.5712 53.7825 24.3398C57.1876 25.5326 60.4923 26.649 63.8975 27.8032C61.4608 30.8052 59.1572 33.6915 56.687 36.7312C56.42 35.5771 56.1886 34.615 55.9529 33.6119C55.8525 33.1497 55.7193 32.9962 55.2522 33.2269C50.6262 35.5984 45.7213 37.1677 40.6967 37.8838C36.423 38.5313 32.0995 38.6216 27.8082 38.153C23.0219 37.6446 18.2915 36.5876 13.6871 34.9975C13.2442 34.9052 12.8356 34.6613 12.5146 34.2976C12.1935 33.934 11.9748 33.4673 11.887 32.9584C11.5248 31.667 11.3555 30.3141 11.3864 28.9574Z" fill="white"/>
<path d="M48.1716 39.3125C46.3067 41.9865 43.9639 44.166 41.3028 45.7027C38.6417 47.2394 35.7247 48.0972 32.7502 48.2177C29.7758 48.3382 26.8137 47.7186 24.0656 46.401C21.3175 45.0835 18.8479 43.0989 16.8247 40.5824C21.8808 42.632 27.2252 43.5717 32.5815 43.3529C37.9537 43.1606 43.2448 41.7893 48.1716 39.3125Z" fill="white"/>
<path d="M47.3712 7.83237C37.2173 3.59434 26.0527 3.9102 16.0913 8.7173C17.9737 6.06854 20.3297 3.91919 22.9984 2.41601C25.6672 0.912818 28.5859 0.0911691 31.5553 0.00716423C34.5247 -0.0768407 37.4748 0.578759 40.2043 1.92923C42.9338 3.2797 45.3784 5.29324 47.3712 7.83237Z" fill="white"/>
<path d="M125.385 30.2292C124.183 30.8038 123.348 30.5756 122.714 29.4592C121.011 26.6501 119.342 23.8016 117.606 20.9925C117.406 20.6846 117.305 20.0304 116.838 20.2611C116.471 20.4532 116.704 20.9539 116.704 21.3389V30.2292C116.135 30.7677 115.436 30.2678 114.835 30.5756C114.568 30.6913 114.635 30.0757 114.635 29.8056V17.9519C114.635 17.452 114.669 16.9512 114.635 16.4127C114.568 15.756 114.835 15.6813 115.337 15.605C115.76 15.5253 116.194 15.6014 116.577 15.8224C116.961 16.0435 117.274 16.3982 117.473 16.8363C119.142 19.7226 120.878 22.5703 122.614 25.4188C122.781 25.7266 122.981 25.9933 123.348 26.5343V23.9182C123.348 21.5318 123.415 19.1463 123.315 16.76C123.281 15.7207 123.615 15.49 124.383 15.6436C124.717 15.7207 125.15 15.4515 125.417 15.8742V20.6461C125.385 23.8402 125.385 27.0375 125.385 30.2292Z" fill="white"/>
<path d="M77.8838 20.7611C80.2208 18.7211 81.756 18.873 83.4921 21.1461C83.9662 20.4129 84.6219 19.8623 85.3727 19.567C86.1234 19.2716 86.9342 19.2451 87.6983 19.4911C88.2877 19.646 88.8216 20.0059 89.2276 20.5221C89.6337 21.0384 89.8922 21.6861 89.9684 22.3774C90.3693 24.8787 90.0688 27.4571 90.1685 29.9969C90.1685 30.4205 89.9684 30.4591 89.7013 30.4591C89.3899 30.4398 89.0778 30.4398 88.7664 30.4591C88.2679 30.5362 88.1319 30.267 88.1319 29.7277C88.1652 27.8035 88.1652 25.8793 88.1319 23.9552C88.0985 22.1492 87.0638 21.1846 85.5948 21.5311C84.6264 21.7617 84.0283 22.7238 83.9926 24.1481C83.9592 25.954 83.9257 27.7657 84.0261 29.5741C84.0596 30.5748 83.5925 30.4976 83.025 30.4591C82.5265 30.4205 81.8564 30.7669 81.9234 29.6127C81.9903 27.8068 81.9568 25.9951 81.9568 24.1866C81.9568 22.4931 81.2555 21.5311 80.0877 21.4925C78.8195 21.4539 78.0177 22.416 77.9842 24.1095C77.9507 25.9565 77.9173 27.8035 77.9842 29.6514C78.0177 30.7292 77.4501 30.4591 76.9495 30.4976C76.4155 30.4976 75.9149 30.652 75.9484 29.6127C76.0153 26.6493 75.9818 23.6473 75.9818 20.6839C75.9818 20.1093 75.848 19.4525 76.6825 19.606C77.2159 19.6832 78.1508 19.1447 77.8838 20.7611Z" fill="white"/>
<path d="M148.987 28.9962C148.987 30.5354 148.954 31.9597 148.987 33.3831C149.021 34.3066 148.787 34.653 147.919 34.653C147.084 34.653 146.918 34.3066 146.951 33.4603C146.984 29.1916 146.984 24.9164 146.951 20.6067C146.951 19.6832 147.218 19.4903 147.919 19.5675C148.52 19.6061 149.187 19.4517 148.987 20.5681C148.968 20.7485 148.98 20.9313 149.021 21.1067C149.457 20.485 150.022 20.0002 150.664 19.6974C151.306 19.3947 152.004 19.2836 152.693 19.3746C153.81 19.4737 154.85 20.0667 155.597 21.0295C156.424 22.1621 156.875 23.5969 156.869 25.0774C156.863 26.558 156.4 27.9877 155.564 29.1112C153.791 31.1897 151.29 31.1896 148.987 28.9962ZM148.954 24.9172C148.92 27.0721 150.055 28.5349 151.791 28.5735C152.588 28.5592 153.35 28.1905 153.917 27.5443C154.484 26.8982 154.812 26.0245 154.834 25.1058C154.855 24.187 154.568 23.2941 154.032 22.6137C153.496 21.9332 152.753 21.5177 151.958 21.4539C151.558 21.4325 151.159 21.5074 150.787 21.6739C150.414 21.8404 150.075 22.0947 149.792 22.4207C149.51 22.7467 149.289 23.1371 149.144 23.567C149 23.9969 148.935 24.4567 148.954 24.9172Z" fill="white"/>
<path d="M94.2101 21.0327C96.4133 18.8393 99.0173 18.8393 100.72 20.9942C101.57 22.1489 102.028 23.6196 102.009 25.1338C101.991 26.6481 101.497 28.1034 100.619 29.2301C98.85 31.2315 96.2794 31.1929 94.1766 28.9609V33.5793C94.1766 34.0414 94.2101 34.8106 93.6782 34.5413C93.1797 34.2721 92.1116 35.0799 92.1422 33.5407C92.2092 29.272 92.1757 24.9968 92.1422 20.7249C92.1422 19.9549 92.2426 19.5322 93.0437 19.6085C93.7779 19.6471 94.3789 19.6085 94.1788 20.7627C94.1825 20.8536 94.193 20.9439 94.2101 21.0327ZM94.1432 24.9582C94.1432 27.1131 95.2782 28.5373 97.0477 28.5759C97.8492 28.5476 98.6102 28.1631 99.1715 27.503C99.7329 26.8429 100.051 25.9582 100.06 25.0338C100.068 24.1095 99.7667 23.2171 99.2179 22.5431C98.669 21.8692 97.9154 21.466 97.1147 21.4177C96.7127 21.4028 96.3124 21.485 95.9396 21.659C95.5668 21.833 95.2296 22.0949 94.9499 22.428C94.6701 22.7611 94.4539 23.158 94.3151 23.5932C94.1763 24.0284 94.118 24.4923 94.1439 24.955L94.1432 24.9582Z" fill="white"/>
<path d="M132.329 25.8843C131.394 25.8843 130.426 25.9614 129.491 25.8843C128.556 25.8071 128.656 26.2693 128.957 26.9235C129.758 28.7705 132.129 29.3099 133.931 28.0777C134.198 27.8856 134.364 27.462 134.799 27.9234C135.333 28.5391 135.467 28.8855 134.765 29.5011C133.765 30.3429 132.537 30.7473 131.302 30.642C130.067 30.5368 128.904 29.9287 128.022 28.9265C127.223 27.8394 126.776 26.466 126.757 25.041C126.739 23.6161 127.151 22.228 127.922 21.1141C128.729 20.0816 129.844 19.4372 131.044 19.3088C132.245 19.1805 133.443 19.5775 134.402 20.4212C135.77 21.6526 136.138 23.3461 136.104 25.2703C136.104 25.8449 135.804 25.8859 135.436 25.8449C134.431 25.8843 133.363 25.8843 132.329 25.8843ZM131.427 24.1522C132.195 24.1522 132.93 24.1136 133.697 24.1522C134.267 24.1908 134.332 23.9215 134.164 23.3822C133.971 22.7432 133.603 22.1944 133.114 21.8192C132.626 21.444 132.044 21.263 131.458 21.3037C130.871 21.3275 130.304 21.5526 129.828 21.9502C129.352 22.3477 128.99 22.8997 128.788 23.5357C128.654 24.0356 128.821 24.1924 129.221 24.1514L131.427 24.1522Z" fill="white"/>
<path d="M108.127 30.6928C107.151 30.6889 106.197 30.3502 105.388 29.72C104.578 29.0897 103.95 28.1962 103.582 27.1531C103.215 26.1101 103.125 24.9645 103.323 23.8622C103.522 22.7598 104 21.7504 104.698 20.9623C105.395 20.1742 106.28 19.6431 107.24 19.4364C108.2 19.2296 109.192 19.3567 110.089 19.8014C110.986 20.246 111.748 20.9883 112.279 21.9337C112.809 22.8791 113.084 23.985 113.068 25.1107C113.078 25.8566 112.956 26.597 112.71 27.287C112.464 27.977 112.099 28.6021 111.637 29.1242C111.175 29.6464 110.625 30.0547 110.022 30.3244C109.418 30.594 108.774 30.7194 108.127 30.6928ZM108.228 21.4988C107.62 21.4437 107.013 21.6001 106.483 21.9474C105.954 22.2948 105.527 22.8173 105.258 23.4473C104.99 24.0773 104.891 24.7859 104.975 25.4813C105.059 26.1768 105.322 26.827 105.731 27.3481C106.139 27.8692 106.673 28.2371 107.265 28.4042C107.857 28.5713 108.478 28.5299 109.049 28.2854C109.62 28.0408 110.114 27.6044 110.468 27.0326C110.821 26.4608 111.018 25.7798 111.032 25.0778C111.069 24.6261 111.024 24.1703 110.901 23.7394C110.777 23.3086 110.577 22.912 110.313 22.5751C110.05 22.2381 109.728 21.968 109.369 21.782C109.01 21.596 108.621 21.4982 108.228 21.4947V21.4988Z" fill="white"/>
<path d="M167.881 25.0751C167.878 26.201 167.584 27.3002 167.037 28.2331C166.491 29.1661 165.716 29.8905 164.811 30.3143C163.906 30.7382 162.912 30.8422 161.956 30.6133C161 30.3844 160.124 29.8328 159.441 29.0287C158.757 28.2247 158.296 27.2044 158.117 26.0976C157.938 24.9909 158.048 23.8477 158.434 22.8134C158.819 21.779 159.463 20.9003 160.283 20.2889C161.103 19.6775 162.063 19.361 163.039 19.3797C163.686 19.3681 164.328 19.5084 164.927 19.7919C165.525 20.0755 166.068 20.4964 166.521 21.0292C166.973 21.5619 167.328 22.1954 167.562 22.8909C167.795 23.5865 167.904 24.3296 167.881 25.0751ZM163.039 28.5384C163.435 28.5444 163.827 28.455 164.191 28.276C164.555 28.0971 164.883 27.8326 165.153 27.4993C165.423 27.1661 165.63 26.7714 165.761 26.3407C165.891 25.91 165.942 25.4526 165.91 24.9979C165.937 24.5448 165.881 24.0903 165.746 23.6637C165.611 23.2371 165.4 22.848 165.126 22.5216C164.852 22.1951 164.522 21.9385 164.157 21.7685C163.791 21.5985 163.399 21.5188 163.006 21.5345C162.609 21.5258 162.215 21.6113 161.849 21.7857C161.483 21.9601 161.151 22.2197 160.876 22.5483C160.6 22.8768 160.386 23.2674 160.247 23.6955C160.108 24.1236 160.047 24.5801 160.068 25.0365C160.042 25.4977 160.101 25.9599 160.24 26.3933C160.38 26.8266 160.597 27.2212 160.877 27.5515C161.157 27.8819 161.495 28.1404 161.868 28.3105C162.24 28.4805 162.64 28.5582 163.04 28.5384H163.039Z" fill="white"/>
<path d="M140.977 26.6152C140.242 27.808 139.575 28.8472 138.907 29.8865C138.624 30.2388 138.262 30.4937 137.861 30.6228C137.461 30.7519 137.037 30.7503 136.636 30.6179C136.169 30.3486 136.436 30.0433 136.636 29.7716C137.571 28.3473 138.472 26.9239 139.441 25.5382C139.52 25.4552 139.583 25.3542 139.626 25.2415C139.669 25.1289 139.691 25.0071 139.691 24.884C139.691 24.7608 139.669 24.639 139.626 24.5264C139.583 24.4137 139.52 24.3127 139.441 24.2297C138.506 22.8055 137.638 21.3434 136.735 19.9192C136.701 19.8806 136.701 19.8034 136.668 19.6885C137.936 19.4193 139.038 19.3807 139.706 20.997C140.09 21.7531 140.526 22.4735 141.007 23.1519C141.441 22.4204 141.875 21.7662 142.275 21.1119C143.377 19.3413 143.41 19.3413 145.447 19.6877C144.479 21.1883 143.578 22.725 142.609 24.1903C142.526 24.2786 142.46 24.3858 142.415 24.505C142.37 24.6242 142.346 24.753 142.346 24.8831C142.346 25.0133 142.37 25.142 142.415 25.2613C142.46 25.3805 142.526 25.4876 142.609 25.5759C143.577 26.9616 144.479 28.4237 145.414 29.8093C145.814 30.384 145.614 30.6557 145.08 30.6557C144.245 30.6943 143.41 30.8864 142.876 29.655C142.321 28.5799 141.685 27.5627 140.977 26.6152Z" fill="white"/>
<path d="M73.9798 30.2312C73.4101 30.6548 72.7778 30.3855 72.1768 30.4233C71.8428 30.4233 71.9098 30.0768 71.9098 29.8486V16.2218C71.9098 15.9912 71.8763 15.6472 72.1768 15.6472C72.7778 15.6858 73.4122 15.378 73.9798 15.8393V30.2312Z" fill="white"/>
</svg>
