<svg width="27" height="28" viewBox="0 0 27 28" fill="none" xmlns="http://www.w3.org/2000/svg">
<path d="M13.4419 14.5381C15.7868 14.5381 17.9395 13.8377 19.5237 12.6687C21.1076 11.4999 22.1631 9.82443 22.1631 7.90579C22.1631 5.98716 21.1076 4.31172 19.5237 3.14287C17.9395 1.97384 15.7868 1.27344 13.4419 1.27344C11.0969 1.27344 8.94422 1.97384 7.36007 3.14287C5.77616 4.31172 4.7207 5.98716 4.7207 7.90579C4.7207 9.82443 5.77616 11.4999 7.36007 12.6687C8.94422 13.8377 11.0969 14.5381 13.4419 14.5381Z" stroke="white" stroke-width="1.5"/>
<path d="M1.48535 27.0248C1.48535 27.0248 1.48535 25.1866 1.48535 23.3483C1.48535 21.5101 5.96743 19.6719 13.4421 19.6719C20.9168 19.6719 25.3989 21.5101 25.3989 23.3483C25.3989 26.1057 25.3989 27.0248 25.3989 27.0248" stroke="white" stroke-width="1.5" stroke-linecap="round" stroke-linejoin="round"/>
</svg>
